<?xml version="1.0" standalone="yes"?>
<svg xmlns="http://www.w3.org/2000/svg" width="400" height="400">
<path style="fill:#010101; stroke:none;" d="M0 0L0 400L400 400L400 0L0 0z"/>
<path style="fill:#606060; stroke:none;" d="M188 104L189 105L188 104M192.667 104.333L193.333 104.667L192.667 104.333M196.667 104.333L197.333 104.667L196.667 104.333M199 104L200 105L199 104M268 104L269 105L268 104M130 105L130 297L178 297L178 296L131 296L131 162L131 123L130 105z"/>
<path style="fill:#e6702d; stroke:none;" d="M131 105L131 296L178 296L178 156L178 120L176.972 106.603L165 105L131 105z"/>
<path style="fill:#606060; stroke:none;" d="M177 105L178 106L177 105z"/>
<path style="fill:#fdfefe; stroke:none;" d="M187 105L244 158.17L270 181L270 105L187 105z"/>
<path style="fill:#b3b3b3; stroke:none;" d="M190 108L191 109L190 108M191 109L192 110L191 109M192 110L193 111L192 110M193 111L194 112L193 111M194 112L195 113L194 112z"/>
<path style="fill:#606060; stroke:none;" d="M195 113L196 114L195 113M196 114L197 115L196 114M197 115L198 116L197 115M198 116L199 117L198 116M199 117L200 118L199 117z"/>
<path style="fill:#b3b3b3; stroke:none;" d="M203 120L204 121L203 120M204 121L205 122L204 121M205 122L206 123L205 122M206 123L207 124L206 123M207 124L208 125L207 124z"/>
<path style="fill:#606060; stroke:none;" d="M208 125L209 126L208 125M209 126L210 127L209 126M210 127L211 128L210 127M211 128L212 129L211 128M212 129L213 130L212 129z"/>
<path style="fill:#b3b3b3; stroke:none;" d="M215 131L216 132L215 131M216 132L217 133L216 132M217 133L218 134L217 133M218 134L219 135L218 134M219 135L220 136L219 135M220 136L221 137L220 136z"/>
<path style="fill:#606060; stroke:none;" d="M221 137L222 138L221 137M222 138L223 139L222 138M223 139L224 140L223 139M224 140L225 141L224 140M225 141L226 142L225 141z"/>
<path style="fill:#b3b3b3; stroke:none;" d="M229 144L230 145L229 144M230 145L231 146L230 145M231 146L232 147L231 146M232 147L233 148L232 147M233 148L234 149L233 148M234 149L235 150L234 149z"/>
<path style="fill:#606060; stroke:none;" d="M235 150L236 151L235 150M236 151L237 152L236 151M237 152L238 153L237 152M238 153L239 154L238 153M239 154L240 155L239 154M240 155L241 156L240 155z"/>
<path style="fill:#b3b3b3; stroke:none;" d="M242 156L243 157L242 156M243 157L244 158L243 157M244 158L245 159L244 158M245 159L246 160L245 159M246 160L247 161L246 160M247 161L248 162L247 161z"/>
<path style="fill:#606060; stroke:none;" d="M248 162L249 163L248 162M249 163L250 164L249 163M250 164L251 165L250 164M251 165L252 166L251 165M252 166L253 167L252 166M253 167L254 168L253 167z"/>
<path style="fill:#b3b3b3; stroke:none;" d="M256 169L257 170L256 169M257 170L258 171L257 170M258 171L259 172L258 171M259 172L260 173L259 172M260 173L261 174L260 173M261 174L262 175L261 174z"/>
<path style="fill:#606060; stroke:none;" d="M262 175L263 176L262 175M263 176L264 177L263 176M264 177L265 178L264 177M265 178L266 179L265 178M266 179L267 180L266 179z"/>
<path style="fill:#b3b3b3; stroke:none;" d="M269 181L270 182L269 181z"/>
<path style="fill:#606060; stroke:none;" d="M269 219L267 222L269 219z"/>
<path style="fill:#fdfefe; stroke:none;" d="M269 220L212 272.961L188 296L270 296L270 244L269 220z"/>
<path style="fill:#b3b3b3; stroke:none;" d="M266 222L267 223L266 222M265 223L266 224L265 223M264 224L265 225L264 224M263 225L264 226L263 225z"/>
<path style="fill:#606060; stroke:none;" d="M259 228L260 229L259 228M258 229L259 230L258 229M257 230L258 231L257 230M256 231L257 232L256 231M255 232L256 233L255 232M254 233L255 234L254 233z"/>
<path style="fill:#b3b3b3; stroke:none;" d="M253 234L254 235L253 234M252 235L253 236L252 235M251 236L252 237L251 236M250 237L251 238L250 237M249 238L250 239L249 238z"/>
<path style="fill:#606060; stroke:none;" d="M246 240L247 241L246 240M245 241L246 242L245 241M244 242L245 243L244 242M243 243L244 244L243 243M242 244L243 245L242 244M241 245L242 246L241 245z"/>
<path style="fill:#b3b3b3; stroke:none;" d="M240 246L241 247L240 246M239 247L240 248L239 247M238 248L239 249L238 248M237 249L238 250L237 249M236 250L237 251L236 250z"/>
<path style="fill:#606060; stroke:none;" d="M232 253L233 254L232 253M231 254L232 255L231 254M230 255L231 256L230 255M229 256L230 257L229 256M228 257L229 258L228 257z"/>
<path style="fill:#b3b3b3; stroke:none;" d="M227 258L228 259L227 258M226 259L227 260L226 259M225 260L226 261L225 260M224 261L225 262L224 261M223 262L224 263L223 262z"/>
<path style="fill:#606060; stroke:none;" d="M220 264L221 265L220 264M218 266L219 267L218 266M217 267L218 268L217 267M216 268L217 269L216 268M215 269L216 270L215 269M214 270L215 271L214 270z"/>
<path style="fill:#b3b3b3; stroke:none;" d="M213 271L214 272L213 271M212 272L213 273L212 272M211 273L212 274L211 273M210 274L211 275L210 274M209 275L210 276L209 275M208 276L209 277L208 276z"/>
<path style="fill:#606060; stroke:none;" d="M205 278L206 279L205 278M204 279L205 280L204 279M203 280L204 281L203 280M202 281L203 282L202 281M201 282L202 283L201 282z"/>
<path style="fill:#b3b3b3; stroke:none;" d="M200 283L201 284L200 283M199 284L200 285L199 284M198 285L199 286L198 285M197 286L198 287L197 286M196 287L197 288L196 287z"/>
<path style="fill:#606060; stroke:none;" d="M192 290L193 291L192 290M191 291L192 292L191 291M190 292L191 293L190 292M189 293L190 294L189 293M188 294L189 295L188 294M187 295L186 297L187 295z"/>
<path style="fill:#b3b3b3; stroke:none;" d="M187 296L187 297L270 297L244 296L187 296z"/>
</svg>
