<?xml version="1.0" standalone="yes"?>
<svg xmlns="http://www.w3.org/2000/svg" width="400" height="400">
<path style="fill:#040405; stroke:none;" d="M0 0L0 400L400 400L400 0L0 0z"/>
<path style="fill:#d3b0c7; stroke:none;" d="M145 189L165 188L165 187L156 184C160.531 169.811 178.352 157.707 189 147.914C204.421 133.733 221.802 121.227 236.7 106.561C247.063 96.3589 255.39 84.2594 265.961 74.0934C274.056 66.3076 289.561 58.1732 294 48L293 47C280.507 52.8258 269.897 67.4969 260 76.9606C237.125 98.8342 214.732 121.783 191 142.715C180.05 152.372 169.333 162.684 159 173C154.086 177.906 147.964 182.645 145 189z"/>
<path style="fill:#ad4e7b; stroke:none;" d="M293 47L294 48L293 47M289 48L290 49L289 48M288 49L289 50L288 49M287 50L288 51L287 50M293 50L294 51L293 50M286 51L287 52L286 51z"/>
<path style="fill:#9cc14c; stroke:none;" d="M292 51L293 52L292 51z"/>
<path style="fill:#ad4e7b; stroke:none;" d="M285 52L286 53L285 52z"/>
<path style="fill:#9cc14c; stroke:none;" d="M291 52L292 53L291 52z"/>
<path style="fill:#ad4e7b; stroke:none;" d="M284 53L285 54L284 53M291 53L292 54L291 53M283 54L284 55L283 54z"/>
<path style="fill:#9cc14c; stroke:none;" d="M238 105L245 104L245 107C250.5 105.503 254.686 100.613 258.996 97.0394C271.904 86.338 282.69 68.5883 291 54C283.869 55.4388 278.3 62.0431 273.09 66.8302C260.455 78.4379 247.18 90.3217 238 105z"/>
<path style="fill:#ad4e7b; stroke:none;" d="M282 55L283 56L282 55z"/>
<path style="fill:#9cc14c; stroke:none;" d="M281 56L282 57L281 56z"/>
<path style="fill:#ad4e7b; stroke:none;" d="M289 56L290 57L289 56z"/>
<path style="fill:#9cc14c; stroke:none;" d="M280 57L281 58L280 57M279 58L280 59L279 58z"/>
<path style="fill:#ad4e7b; stroke:none;" d="M286 60L287 61L286 60M284 63L285 64L284 63M282 66L283 67L282 66M280 69L281 70L280 69M266 70L267 71L266 70M265 71L266 72L265 71M264 72L265 73L264 72M278 72L279 73L278 72M263 73L264 74L263 73M262 74L263 75L262 74M261 75L262 76L261 75M276 75L277 76L276 75M260 76L261 77L260 76z"/>
<path style="fill:#9cc14c; stroke:none;" d="M259 77L260 78L259 77M258 78L259 79L258 78M257 79L258 80L257 79z"/>
<path style="fill:#ad4e7b; stroke:none;" d="M273 79L274 80L273 79z"/>
<path style="fill:#9cc14c; stroke:none;" d="M256 80L257 81L256 80z"/>
<path style="fill:#ad4e7b; stroke:none;" d="M271 82L272 83L271 82M269 85L270 86L269 85M267 88L268 89L267 88M244 91L245 92L244 91M265 91L266 92L265 91M243 92L244 93L243 92z"/>
<path style="fill:#d3b0c7; stroke:none;" d="M263 92L264 93L263 92z"/>
<path style="fill:#ad4e7b; stroke:none;" d="M242 93L243 94L242 93M241 94L242 95L241 94z"/>
<path style="fill:#d3b0c7; stroke:none;" d="M239 128C248.665 120.017 257.126 105.033 263 94C249.078 100.454 242.309 113.704 239 128z"/>
<path style="fill:#ad4e7b; stroke:none;" d="M240 95L241 96L240 95M262 95L263 96L262 95M239 96L240 97L239 96z"/>
<path style="fill:#9cc14c; stroke:none;" d="M261 96L262 97L261 96z"/>
<path style="fill:#ad4e7b; stroke:none;" d="M238 97L239 98L238 97M237 98L238 99L237 98M260 98L261 99L260 98z"/>
<path style="fill:#9cc14c; stroke:none;" d="M236 99L237 100L236 99M235 100L236 101L235 100z"/>
<path style="fill:#ad4e7b; stroke:none;" d="M258 101L259 102L258 101M156 184C160.499 186.112 164.908 188.168 170 187.7C173.019 187.422 180.783 185.176 183.148 187.769C186.132 191.04 179.85 197.642 178.155 200.001C170.899 210.096 164.693 221.53 163 234L164 234L186.994 193L188.623 174.015L203 159C206.056 159 224.472 147.11 223 153L225 154C229.659 154.736 237.099 159.459 236.153 165C233.864 178.403 216.747 187.069 212.893 200C211.874 203.419 209.309 213.775 211.619 216.566C214.971 220.617 223.207 218.305 224.066 225.269C224.88 231.86 214.424 240.082 211 245L244 217C237.453 214.948 229.807 215.637 223 216.09C220.113 216.281 215.927 217.668 213.967 214.678C210.599 209.541 221.88 200.473 224.87 197C238.898 180.701 254.722 164.638 267 147L263 150C265.855 137.426 243.261 142 235 142L245 104C235.255 104.757 228.158 112.936 221 118.92C204.551 132.67 188.159 146.841 173 162C166.668 168.332 157.783 174.787 156 184M256 104L257 105L256 104z"/>
<path style="fill:#9cc14c; stroke:none;" d="M255 105L256 106L255 105z"/>
<path style="fill:#ad4e7b; stroke:none;" d="M254 107L255 108L254 107M253 108L254 109L253 108M252 110L253 111L252 110M251 111L252 112L251 111M222 112L223 113L222 112M221 113L222 114L221 113M220 114L221 115L220 114M249 114L250 115L249 114M219 115L220 116L219 115M218 116L219 117L218 116M217 117L218 118L217 117M247 117L248 118L247 117M216 118L217 119L216 118M215 119L216 120L215 119M214 120L215 121L214 120M245 120L246 121L245 120M213 121L214 122L213 121M244 121L245 122L244 121M212 122L213 123L212 122M243 123L244 124L243 123M242 124L243 125L242 124M241 126L242 127L241 126M240 127L241 128L240 127z"/>
<path style="fill:#d3b0c7; stroke:none;" d="M238 129L239 130L238 129z"/>
<path style="fill:#ad4e7b; stroke:none;" d="M200 133L201 134L200 133M199 134L200 135L199 134M198 135L199 136L198 135M197 136L198 137L197 136M196 137L197 138L196 137M261 137L261 138L266 138L261 137z"/>
<path style="fill:#d3b0c7; stroke:none;" d="M235 140L235 142C243.301 142 264.909 137.583 263 150L273 138L235 140z"/>
<path style="fill:#ad4e7b; stroke:none;" d="M272 137L273 138L272 137M195 138L196 139L195 138M250 138L250 139L254 139L250 138M194 139L195 140L194 139M238 139L238 140L243 140L238 139M193 140L194 141L193 140M272 140L273 141L272 140M192 141L193 142L192 141M271 141L272 142L271 141M191 142L192 143L191 142M270 142L271 143L270 142M190 143L191 144L190 143M269 143L270 144L269 143z"/>
<path style="fill:#d3b0c7; stroke:none;" d="M262 150L263 151L262 150z"/>
<path style="fill:#040405; stroke:none;" d="M203 159C203 163.859 190.641 167.982 188.167 173C185.428 178.555 188.274 185.428 187.5 191C186.782 196.168 182.654 204.996 180.5 210C176.153 220.096 166.616 226.678 161.167 236C154.224 247.876 165.967 250.787 167.833 263C168.527 267.542 159.055 276.344 165.167 280.5C169.696 283.58 178.003 275.081 181 272.667C194.963 261.419 209.868 248.398 220.667 234C221.605 232.749 222.449 231.385 223.167 230C229.665 217.467 213.427 222.212 210.5 215C209.962 213.675 212.318 201.819 213 200C217.754 187.323 232.34 178.98 236.667 166C238.745 159.764 230.181 153.182 225 154L225 152L224 152L223 153C221.979 147 206.23 158.041 203 159z"/>
<path style="fill:#ad4e7b; stroke:none;" d="M177 155L178 156L177 155M176 156L177 157L176 156M175 157L176 158L175 157M174 158L175 159L174 158M173 159L174 160L173 159M172 160L173 161L172 160M171 161L172 162L171 161M170 162L171 163L170 162M169 163L170 164L169 163M168 164L169 165L168 164M155 176L156 177L155 176M154 177L155 178L154 177M153 178L154 179L153 178M152 179L153 180L152 179M151 180L152 181L151 180M150 181L151 182L150 181M149 182L150 183L149 182M148 183L149 184L148 183M147 184L148 185L147 184M146 185L147 186L146 185M145 186L146 187L145 186M154 188L154 189L160 189L154 188M146 189L146 190L150 190L146 189z"/>
<path style="fill:#d3b0c7; stroke:none;" d="M182 192L154 227C164.904 218.975 177.944 204.16 184 192L182 192z"/>
<path style="fill:#ad4e7b; stroke:none;" d="M181 193L182 194L181 193M180 194L181 195L180 194M176 199L177 200L176 199M175 200L176 201L175 200M171 205L172 206L171 205z"/>
<path style="fill:#48b5b4; stroke:none;" d="M174 205L175 206L174 205z"/>
<path style="fill:#ad4e7b; stroke:none;" d="M170 206L171 207L170 206z"/>
<path style="fill:#48b5b4; stroke:none;" d="M173 206C166.83 212.447 151.486 224.476 150 233C145.239 235.267 140.856 239.73 140 245C134.126 247.828 130.253 256.047 128 262L166 260L164.248 251.104L158.647 242.957L167.904 218L173 206z"/>
<path style="fill:#ad4e7b; stroke:none;" d="M169 207L170 208L169 207z"/>
<path style="fill:#48b5b4; stroke:none;" d="M166 211L167 212L166 211z"/>
<path style="fill:#ad4e7b; stroke:none;" d="M240 211L240 212L245 212L240 211z"/>
<path style="fill:#d3b0c7; stroke:none;" d="M213 214L213 215L244 217L241 225C245.954 221.514 252.286 216.98 254 211L213 214z"/>
<path style="fill:#ad4e7b; stroke:none;" d="M165 212L166 213L165 212M229 212L229 213L233 213L229 212M164 213L165 214L164 213M218 213L218 214L222 214L218 213z"/>
<path style="fill:#48b5b4; stroke:none;" d="M222 213L223 214L222 213M213 215L214 216L213 215M214 216L214 217L220 217L214 216M161 217L162 218L161 217z"/>
<path style="fill:#ad4e7b; stroke:none;" d="M249 217L250 218L249 217M160 218L161 219L160 218z"/>
<path style="fill:#48b5b4; stroke:none;" d="M167 260C162.517 265.136 155.574 273.126 155 280L153 283L151 286L148 287L145 291L146 294L143 294L144 297L141 297L125 330L137 324L128 334C141.392 324.567 153.368 310.576 165 299.001C180.359 283.715 196.493 269.166 212 254.015C223.005 243.262 238.883 233 244 218C236.465 220.914 230.994 227.38 225 232.576C211.824 243.995 199.228 256.087 186 267.421C182.587 270.345 170.604 283.59 165.539 279.262C160.902 275.3 168.504 265.527 167 260z"/>
<path style="fill:#ad4e7b; stroke:none;" d="M248 218L249 219L248 218M159 219L160 220L159 219M247 219L248 220L247 219M246 220L247 221L246 220M245 221L246 222L245 221M244 222L245 223L244 222z"/>
<path style="fill:#48b5b4; stroke:none;" d="M156 223L157 224L156 223z"/>
<path style="fill:#ad4e7b; stroke:none;" d="M243 223L244 224L243 223M155 224L156 225L155 224M242 224L243 225L242 224M154 225L155 226L154 225M241 225L242 226L241 225M240 226L241 227L240 226M239 227L240 228L239 227z"/>
<path style="fill:#9cc14c; stroke:none;" d="M149 232L150 233L149 232z"/>
<path style="fill:#ad4e7b; stroke:none;" d="M138 244L139 245L138 244z"/>
<path style="fill:#9cc14c; stroke:none;" d="M139 244L140 245L139 244z"/>
<path style="fill:#ad4e7b; stroke:none;" d="M221 244L222 245L221 244M220 245L221 246L220 245z"/>
<path style="fill:#9cc14c; stroke:none;" d="M135 249L136 250L135 249z"/>
<path style="fill:#ad4e7b; stroke:none;" d="M133 250L134 251L133 250z"/>
<path style="fill:#9cc14c; stroke:none;" d="M134 250L135 251L134 250M133 251L134 252L133 251M132 252L126 259L127 262L128 262L132 252z"/>
<path style="fill:#48b5b4; stroke:none;" d="M130 254L131 255L130 254M129 255L130 256L129 255z"/>
<path style="fill:#ad4e7b; stroke:none;" d="M128 256L129 257L128 256z"/>
<path style="fill:#d3b0c7; stroke:none;" d="M128 257L129 258L128 257M126 260L127 261L126 260z"/>
<path style="fill:#48b5b4; stroke:none;" d="M126 261L127 262L126 261z"/>
<path style="fill:#ad4e7b; stroke:none;" d="M162 266L163 267L162 266z"/>
<path style="fill:#9cc14c; stroke:none;" d="M154 279L155 280L154 279z"/>
<path style="fill:#ad4e7b; stroke:none;" d="M151 282L152 283L151 282z"/>
<path style="fill:#9cc14c; stroke:none;" d="M152 282L153 283L152 282z"/>
<path style="fill:#ad4e7b; stroke:none;" d="M149 285L150 286L149 285z"/>
<path style="fill:#9cc14c; stroke:none;" d="M150 285L151 286L150 285z"/>
<path style="fill:#ad4e7b; stroke:none;" d="M147 288L148 289L147 288z"/>
<path style="fill:#9cc14c; stroke:none;" d="M148 288L149 289L148 288M147 289L146 292L147 289M145 292L144 295L145 292M143 295L142 298L143 295M141 298C129.58 314.788 112.189 333.039 105 352L106 353C117.093 347.827 130 333.938 137 324L125 330L141 298z"/>
<path style="fill:#48b5b4; stroke:none;" d="M139 300L140 301L139 300z"/>
<path style="fill:#ad4e7b; stroke:none;" d="M138 301L139 302L138 301z"/>
<path style="fill:#48b5b4; stroke:none;" d="M137 303L138 304L137 303z"/>
<path style="fill:#ad4e7b; stroke:none;" d="M136 304L137 305L136 304M134 307L135 308L134 307z"/>
<path style="fill:#48b5b4; stroke:none;" d="M132 310L133 311L132 310M130 313L131 314L130 313M128 316L129 317L128 316z"/>
<path style="fill:#ad4e7b; stroke:none;" d="M127 317L128 318L127 317z"/>
<path style="fill:#48b5b4; stroke:none;" d="M126 319L127 320L126 319z"/>
<path style="fill:#ad4e7b; stroke:none;" d="M125 320L126 321L125 320z"/>
<path style="fill:#9cc14c; stroke:none;" d="M139 321L137 324L139 321z"/>
<path style="fill:#48b5b4; stroke:none;" d="M124 322L125 323L124 322z"/>
<path style="fill:#ad4e7b; stroke:none;" d="M123 323L124 324L123 323z"/>
<path style="fill:#48b5b4; stroke:none;" d="M121 326L122 327L121 326M119 329L120 330L119 329M117 332L118 333L117 332z"/>
<path style="fill:#ad4e7b; stroke:none;" d="M127 334L128 335L127 334z"/>
<path style="fill:#48b5b4; stroke:none;" d="M115 335L116 336L115 335z"/>
<path style="fill:#ad4e7b; stroke:none;" d="M126 335L127 336L126 335M114 336L115 337L114 336M125 336L126 337L125 336z"/>
<path style="fill:#48b5b4; stroke:none;" d="M113 338L114 339L113 338z"/>
<path style="fill:#ad4e7b; stroke:none;" d="M112 339L113 340L112 339z"/>
<path style="fill:#48b5b4; stroke:none;" d="M111 341L112 342L111 341z"/>
<path style="fill:#ad4e7b; stroke:none;" d="M110 342L111 343L110 342z"/>
<path style="fill:#48b5b4; stroke:none;" d="M116 344L117 345L116 344M108 345L109 346L108 345M115 345L116 346L115 345M114 346L115 347L114 346M113 347L114 348L113 347M106 348L107 349L106 348M112 348L113 349L112 348M111 349L112 350L111 349M110 350L111 351L110 350M109 351L110 352L109 351M105 352L106 353L105 352M108 352L109 353L108 352z"/>
</svg>
