<?xml version="1.0" standalone="yes"?>
<svg xmlns="http://www.w3.org/2000/svg" width="400" height="400">
<path style="fill:#fafafb; stroke:none;" d="M0 0L0 25L1 25C2.21061 13.1809 13.1809 2.21057 25 1L0 0z"/>
<path style="fill:#a4a3be; stroke:none;" d="M25.6667 0.333344L26.3333 0.666656L25.6667 0.333344z"/>
<path style="fill:#0d0741; stroke:none;" d="M27 0.464508C-9.76941 7.09396 0 55.8544 0 83L0 301L0 355C0 366.064 -0.737548 377.44 5.9892 386.985C14.5944 399.197 28.4706 400 42 400L96 400L284 400L343 400C352.98 400 364.211 401.419 374 399.331C409.703 391.716 400 343.98 400 317L400 96L400 44C400 32.7811 400.541 21.3816 393.153 12.0394C383.92 0.365173 370.61 0 357 0L302 0L117 0C88.3185 0 55.2007 -4.62003 27 0.464508z"/>
<path style="fill:#a4a3be; stroke:none;" d="M373.667 0.333344L374.333 0.666656L373.667 0.333344z"/>
<path style="fill:#fafafb; stroke:none;" d="M375 0L375 1C386.708 2.19919 397.933 13.2274 399 25L400 25L400 0L375 0z"/>
<path style="fill:#a4a3be; stroke:none;" d="M20.6667 1.33334L21.3333 1.66666L20.6667 1.33334z"/>
<path style="fill:#10577c; stroke:none;" d="M22 1L23 2L22 1M377 1L378 2L377 1z"/>
<path style="fill:#a4a3be; stroke:none;" d="M378.667 1.33334L379.333 1.66666L378.667 1.33334M18 2L19 3L18 2z"/>
<path style="fill:#10577c; stroke:none;" d="M19 2L20 3L19 2M380 2L381 3L380 2z"/>
<path style="fill:#a4a3be; stroke:none;" d="M381 2L382 3L381 2M16 3L17 4L16 3z"/>
<path style="fill:#10577c; stroke:none;" d="M17 3L18 4L17 3M382 3L383 4L382 3z"/>
<path style="fill:#a4a3be; stroke:none;" d="M383 3L384 4L383 3M14 4L15 5L14 4M385 4L386 5L385 4z"/>
<path style="fill:#10577c; stroke:none;" d="M13 5L14 6L13 5M386 5L387 6L386 5z"/>
<path style="fill:#a4a3be; stroke:none;" d="M11 6L10 8L11 6z"/>
<path style="fill:#10577c; stroke:none;" d="M12 6L13 7L12 6M387 6L389 8L387 6z"/>
<path style="fill:#a4a3be; stroke:none;" d="M388 6L389 7L388 6z"/>
<path style="fill:#10577c; stroke:none;" d="M11 7L12 8L11 7z"/>
<path style="fill:#a4a3be; stroke:none;" d="M389 7L390 8L389 7M9 8L10 9L9 8M390 8L391 9L390 8M8 9L9 10L8 9M391 9L392 10L391 9M7 10L6 12L7 10M392 10L394 12L392 10z"/>
<path style="fill:#10577c; stroke:none;" d="M7 11L8 12L7 11M392 11L393 12L392 11M6 12L7 13L6 12M393 12L394 13L393 12M5 13L6 14L5 13M394 13L395 14L394 13z"/>
<path style="fill:#a4a3be; stroke:none;" d="M4 14L5 15L4 14M3 16L4 17L3 16M396 16L397 19L398 19L396 16z"/>
<path style="fill:#10577c; stroke:none;" d="M3 17L4 18L3 17M396 17L397 18L396 17z"/>
<path style="fill:#a4a3be; stroke:none;" d="M2 18L3 19L2 18z"/>
<path style="fill:#10577c; stroke:none;" d="M2 19L3 20L2 19M397 19L398 20L397 19z"/>
<path style="fill:#a4a3be; stroke:none;" d="M1.33333 20.6667L1.66667 21.3333L1.33333 20.6667M398.333 20.6667L398.667 21.3333L398.333 20.6667z"/>
<path style="fill:#10577c; stroke:none;" d="M1 22L2 23L1 22M398 22L399 23L398 22z"/>
<path style="fill:#a4a3be; stroke:none;" d="M0 25L1 26L0 25M399 25L400 26L399 25z"/>
<path style="fill:#10577c; stroke:none;" d="M0 26L1 27L0 26M399 26L400 27L399 26M172.667 132.333L173.333 132.667L172.667 132.333z"/>
<path style="fill:#09f9fb; stroke:none;" d="M174 132.533C160.444 135.828 158.909 155.699 172.001 160.852C178.215 163.297 186.439 162 193 162C209.331 162 233.712 166.519 248.999 160.272C261.97 154.972 259.827 136.364 246.999 132.638C239.487 130.456 229.781 132 222 132C207.081 132 188.502 129.008 174 132.533z"/>
<path style="fill:#10577c; stroke:none;" d="M247.667 132.333L248.333 132.667L247.667 132.333M169.667 133.333L170.333 133.667L169.667 133.333M249.667 133.333L250.333 133.667L249.667 133.333M168 134L169 135L168 134M251.667 134.333L252.333 134.667L251.667 134.333M167 135L168 136L167 135M253 135L254 136L253 135M166 136L167 137L166 136M165 137L166 138L165 137z"/>
<path style="fill:#a4a3be; stroke:none;" d="M254 137L255 138L254 137z"/>
<path style="fill:#10577c; stroke:none;" d="M255.333 137.667L255.667 138.333L255.333 137.667M164 138L165 139L164 138M256 139L257 140L256 139M163 140L164 141L163 140M257 140L257 143L258 143L257 140M162 141L162 152L163 152L162 141M258.333 145.667L258.667 146.333L258.333 145.667M258.333 149.667L258.667 150.333L258.333 149.667M257 151L256 155L257 155L257 151z"/>
<path style="fill:#a4a3be; stroke:none;" d="M163 152L164 153L163 152z"/>
<path style="fill:#10577c; stroke:none;" d="M163 153L164 154L163 153z"/>
<path style="fill:#a4a3be; stroke:none;" d="M164 154L165 155L164 154z"/>
<path style="fill:#10577c; stroke:none;" d="M255 155L251 160L255 155M165 156L165 158L167 158L165 156z"/>
<path style="fill:#a4a3be; stroke:none;" d="M254 156L255 157L254 156z"/>
<path style="fill:#10577c; stroke:none;" d="M167 158L168 159L167 158M168 159L169 160L168 159M170 160L171 161L170 160z"/>
<path style="fill:#a4a3be; stroke:none;" d="M249 160L250 161L249 160z"/>
<path style="fill:#10577c; stroke:none;" d="M250 160L251 161L250 160M171 161L171 162L174 162L171 161M243 161L243 162L248 162L243 161M249 161L250 162L249 161M138 206L139 206C137.951 197.511 139.993 189.586 149 186.264C156.742 183.408 166.873 185 175 185C193.348 185 212.287 183.167 230 188C223.104 182.435 213.329 184 205 184C187.808 184 166.733 180.697 150 184.684C139.789 187.116 135.707 196.343 138 206z"/>
<path style="fill:#09f9fb; stroke:none;" d="M151 185.468C136.435 188.292 133.494 208.475 148.004 213.867C154.583 216.311 163.086 215 170 215C186.277 215 209.593 219.258 225 213.891C238.683 209.125 237.729 189.764 224 185.789C216.091 183.5 206.179 185 198 185C183.011 185 165.721 182.614 151 185.468z"/>
<path style="fill:#10577c; stroke:none;" d="M231 189L232 190L231 189M232 190L234 193L232 190M234 194L235 195L234 194z"/>
<path style="fill:#a4a3be; stroke:none;" d="M234 195L235 196L234 195z"/>
<path style="fill:#10577c; stroke:none;" d="M235 197L235 203L236 203L235 197z"/>
<path style="fill:#a4a3be; stroke:none;" d="M234 204L235 205L234 204z"/>
<path style="fill:#10577c; stroke:none;" d="M234 205L235 206L234 205z"/>
<path style="fill:#a4a3be; stroke:none;" d="M139 206L140 207L139 206z"/>
<path style="fill:#10577c; stroke:none;" d="M139 207L140 208L139 207M233.333 207.667L233.667 208.333L233.333 207.667M140 208L141 209L140 208M141.333 209.667L141.667 210.333L141.333 209.667M232 209L233 210L232 209M231 210L232 211L231 210M142.667 211.333L143.333 211.667L142.667 211.333M230 211L231 212L230 211M144 212L145 213L144 212M228.667 212.333L229.333 212.667L228.667 212.333M145.667 213.333L146.333 213.667L145.667 213.333M226.667 213.333L227.333 213.667L226.667 213.333M147 214L147 215L150 215L147 214M150 215L150 216C173.798 216 202.86 220.509 226 215L203 215L150 215M179.667 238.333L180.333 238.667L179.667 238.333z"/>
<path style="fill:#09f9fb; stroke:none;" d="M181 238.533C167.586 241.794 164.723 260.946 178.015 266.517C192.393 272.544 216.499 268 232 268C238.277 268 246.018 269.201 251.999 267.03C265.508 262.127 264.452 242.963 251 238.803C243.763 236.565 234.512 238 227 238C212.688 238 194.914 235.151 181 238.533z"/>
<path style="fill:#10577c; stroke:none;" d="M250.667 238.333L251.333 238.667L250.667 238.333M177 239L178 240L177 239M253 239L254 240L253 239M175 240L176 241L175 240M255 240L257 242L257 240L255 240M174 241L175 242L174 241M173 242L174 243L173 242M257 242L258 243L257 242M172 243L173 244L172 243M171 244L172 245L171 244z"/>
<path style="fill:#a4a3be; stroke:none;" d="M259 244L260 245L259 244z"/>
<path style="fill:#10577c; stroke:none;" d="M170.333 245.667L170.667 246.333L170.333 245.667M260 245L261 246L260 245z"/>
<path style="fill:#a4a3be; stroke:none;" d="M260 246L261 247L260 246z"/>
<path style="fill:#10577c; stroke:none;" d="M261 247L261 250L262 250L261 247M169 248L168 250L169 248z"/>
<path style="fill:#a4a3be; stroke:none;" d="M169 249L170 250L169 249z"/>
<path style="fill:#10577c; stroke:none;" d="M262 250L262 256L263 256L262 250z"/>
<path style="fill:#a4a3be; stroke:none;" d="M169 251L170 252L169 251z"/>
<path style="fill:#10577c; stroke:none;" d="M168 252L169 253L168 252M168.333 254.667L168.667 255.333L168.333 254.667M169.333 257.667L169.667 258.333L169.333 257.667M261.333 257.667L261.667 258.333L261.333 257.667M260.333 259.667L260.667 260.333L260.333 259.667M170 260L171 261L170 260M171 261L173 264L171 261M259.333 261.667L259.667 262.333L259.333 261.667z"/>
<path style="fill:#a4a3be; stroke:none;" d="M172 262L173 263L172 262z"/>
<path style="fill:#10577c; stroke:none;" d="M258 263L259 264L258 263M173 264L174 265L173 264M257 264L258 265L257 264M174.667 265.333L175.333 265.667L174.667 265.333M255.667 265.333L256.333 265.667L255.667 265.333M176.667 266.333L177.333 266.667L176.667 266.333M253.667 266.333L254.333 266.667L253.667 266.333M178.667 267.333L179.333 267.667L178.667 267.333z"/>
<path style="fill:#a4a3be; stroke:none;" d="M180 267L181 268L180 267z"/>
<path style="fill:#10577c; stroke:none;" d="M251.667 267.333L252.333 267.667L251.667 267.333M0 373L1 374L0 373M399 373L400 374L399 373z"/>
<path style="fill:#a4a3be; stroke:none;" d="M0 374L1 375L0 374M399 374L400 375L399 374z"/>
<path style="fill:#fafafb; stroke:none;" d="M0 375L0 400L25 400L25 399C10.9652 397.562 5.47171 386.093 0 375M399 375C397.789 386.819 386.819 397.789 375 399L375 400L400 400L399 375z"/>
<path style="fill:#10577c; stroke:none;" d="M1 377L2 378L1 377M398 377L399 378L398 377z"/>
<path style="fill:#a4a3be; stroke:none;" d="M1.33333 378.667L1.66667 379.333L1.33333 378.667M398.333 378.667L398.667 379.333L398.333 378.667z"/>
<path style="fill:#10577c; stroke:none;" d="M2 380L3 381L2 380M397 380L398 381L397 380z"/>
<path style="fill:#a4a3be; stroke:none;" d="M2 381L3 382L2 381M397 381L398 382L397 381z"/>
<path style="fill:#10577c; stroke:none;" d="M3 382L4 383L3 382M396 382L397 383L396 382z"/>
<path style="fill:#a4a3be; stroke:none;" d="M3 383L4 384L3 383M396 383L397 384L396 383M4 385L5 386L4 385M395 385L396 386L395 385z"/>
<path style="fill:#10577c; stroke:none;" d="M5 386L6 387L5 386M394 386L395 387L394 386M6 387L7 388L6 387M393 387L392 389L393 387z"/>
<path style="fill:#a4a3be; stroke:none;" d="M6 388L7 389L6 388M393 388L394 389L393 388M7 389L8 390L7 389M392 389L393 390L392 389z"/>
<path style="fill:#10577c; stroke:none;" d="M8 390L9 391L8 390M391 390L392 391L391 390M9 391L10 392L9 391z"/>
<path style="fill:#a4a3be; stroke:none;" d="M390 391L391 392L390 391M10 392L12 394L10 392z"/>
<path style="fill:#10577c; stroke:none;" d="M11 392L12 393L11 392M388 392L387 394L388 392z"/>
<path style="fill:#a4a3be; stroke:none;" d="M389 392L390 393L389 392z"/>
<path style="fill:#10577c; stroke:none;" d="M12 393L13 394L12 393z"/>
<path style="fill:#a4a3be; stroke:none;" d="M388 393L389 394L388 393z"/>
<path style="fill:#10577c; stroke:none;" d="M13 394L14 395L13 394M386 394L387 395L386 394z"/>
<path style="fill:#a4a3be; stroke:none;" d="M14 395L15 396L14 395M385 395L386 396L385 395M16 396L17 397L16 396z"/>
<path style="fill:#10577c; stroke:none;" d="M17 396L18 397L17 396M382 396L383 397L382 396z"/>
<path style="fill:#a4a3be; stroke:none;" d="M383 396L384 397L383 396M18 397L19 398L18 397z"/>
<path style="fill:#10577c; stroke:none;" d="M19 397L20 398L19 397M380 397L381 398L380 397z"/>
<path style="fill:#a4a3be; stroke:none;" d="M381 397L382 398L381 397M20.6667 398.333L21.3333 398.667L20.6667 398.333z"/>
<path style="fill:#10577c; stroke:none;" d="M22 398L23 399L22 398M377 398L378 399L377 398z"/>
<path style="fill:#a4a3be; stroke:none;" d="M378.667 398.333L379.333 398.667L378.667 398.333M25 399L26 400L25 399z"/>
<path style="fill:#10577c; stroke:none;" d="M26 399L27 400L26 399M373 399L374 400L373 399z"/>
<path style="fill:#a4a3be; stroke:none;" d="M374 399L375 400L374 399z"/>
</svg>
