<?xml version="1.0" standalone="yes"?>
<svg xmlns="http://www.w3.org/2000/svg" width="400" height="400">
<path style="fill:#050404; stroke:none;" d="M0 0L0 400L400 400L400 0L0 0z"/>
<path style="fill:#5e121f; stroke:none;" d="M142 89L142 90L157 90L142 89M136 90L136 91L140 91L136 90z"/>
<path style="fill:#c75089; stroke:none;" d="M91 167L92 167L94 144C99.4535 148.381 102.791 153.926 103 161L104 161C104 147.666 104.724 134.26 112.789 123C129.163 100.136 163.986 96.6524 182.535 119.004C194.065 132.896 194 147.91 194 165L195 165L195 149L196 149L196 151L197 151L199 140L200 140L206 168C208.395 162.293 207 154.154 207 148C207 97.4758 144.889 70.7283 108.09 106.174C90.7697 122.857 91 144.835 91 167z"/>
<path style="fill:#5e121f; stroke:none;" d="M160.667 90.3333L161.333 90.6667L160.667 90.3333M133.667 91.3333L134.333 91.6667L133.667 91.3333M164.667 91.3333L165.333 91.6667L164.667 91.3333M129.667 92.3333L130.333 92.6667L129.667 92.3333M167 92L167 93L170 93L167 92M126 93L126 94L129 94L126 93M170.667 93.3333L171.333 93.6667L170.667 93.3333M124.667 94.3333L125.333 94.6667L124.667 94.3333M172.667 94.3333L173.333 94.6667L172.667 94.3333M122.667 95.3333L123.333 95.6667L122.667 95.3333M174.667 95.3333L175.333 95.6667L174.667 95.3333M120.667 96.3333L121.333 96.6667L120.667 96.3333M176.667 96.3333L177.333 96.6667L176.667 96.3333M119 97L120 98L119 97M178.667 97.3333L179.333 97.6667L178.667 97.3333M117.667 98.3333L118.333 98.6667L117.667 98.3333M180 98L181 99L180 98M116 99L117 100L116 99M181.667 99.3333L182.333 99.6667L181.667 99.3333M114.667 100.333L115.333 100.667L114.667 100.333M183 100L184 101L183 100M113 101L114 102L113 101M184 101L187 103L184 101M112 102L113 103L112 102M110.667 103.333L111.333 103.667L110.667 103.333M148.667 103.333L149.333 103.667L148.667 103.333M187 103L188 104L187 103M109 104L110 105L109 104M139 104L139 105L143 105L139 104M155 104L155 105L159 105L155 104M188 104L189 105L188 104M108 105L109 106L108 105M136 105L136 106L139 106L136 105M160 105L160 106L163 106L160 105M189 105L190 106L189 105M107 106L108 107L107 106M133.667 106.333L134.333 106.667L133.667 106.333M163.667 106.333L164.333 106.667L163.667 106.333M190 106L191 107L190 106M106 107L107 108L106 107M131.667 107.333L132.333 107.667L131.667 107.333M166.667 107.333L167.333 107.667L166.667 107.333M191 107L192 108L191 107M105 108L106 109L105 108M129 108L130 109L129 108M168.667 108.333L169.333 108.667L168.667 108.333M192 108L193 109L192 108M104 109L103 112L104 109M127 109L128 110L127 109M170.667 109.333L171.333 109.667L170.667 109.333M193 109L194 110L193 109M125.667 110.333L126.333 110.667L125.667 110.333M172 110L173 111L172 110M194 110L195 111L194 110M124 111L125 112L124 111M173.667 111.333L174.333 111.667L173.667 111.333M195.333 111.667L195.667 112.333L195.333 111.667M102 112L103 113L102 112M122.667 112.333L123.333 112.667L122.667 112.333M175 112L176 113L175 112M101.333 113.667L101.667 114.333L101.333 113.667M121 113L122 114L121 113M176 113L180 116L176 113M196 113L197 114L196 113M120 114L121 115L120 114M197 114L198 115L197 114M100 115L101 116L100 115M119 115L120 116L119 115M99.3333 116.667L99.6667 117.333L99.3333 116.667M118 116L119 117L118 116M180 116L181 117L180 116M198 116L199 117L198 116M117 117L118 118L117 117M181 117L183 120L181 117M199.333 117.667L199.667 118.333L199.333 117.667M98 118L99 119L98 118M116 118L117 119L116 118M115 119L116 120L115 119M200 119L201 120L200 119M97 120L98 121L97 120M114 120L113 123L114 120M183 120L184 121L183 120M96.3333 121.667L96.6667 122.333L96.3333 121.667M184 121L185 122L184 121M201 121L202 122L201 121M185 122L186 123L185 122M112 123L113 124L112 123M202 123L203 124L202 123M95.3333 124.667L95.6667 125.333L95.3333 124.667M111.333 124.667L111.667 125.333L111.333 124.667M186 124L187 125L186 124M187.333 125.667L187.667 126.333L187.333 125.667M203.333 125.667L203.667 126.333L203.333 125.667M94.3333 126.667L94.6667 127.333L94.3333 126.667M110.333 126.667L110.667 127.333L110.333 126.667M188 127L189 128L188 127M204 127L204 130L205 130L204 127M109.333 128.667L109.667 129.333L109.333 128.667M93.3333 129.667L93.6667 130.333L93.3333 129.667M189.333 129.667L189.667 130.333L189.333 129.667M108.333 130.667L108.667 131.333L108.333 130.667M190.333 131.667L190.667 132.333L190.333 131.667M205.333 131.667L205.667 132.333L205.333 131.667M92 132L92 135L93 135L92 132M107 132L107 135L108 135L107 132M191.333 134.667L191.667 135.333L191.333 134.667M206.333 134.667L206.667 135.333L206.333 134.667M106 135L106 138L107 138L106 135M91 136L91 140L92 140L91 136M192 137L192 141L193 141L192 137M207 138L207 186L208 186C208 172.474 212.209 150.414 207 138M105 139L105 144L106 144L105 139z"/>
<path style="fill:#d0244c; stroke:none;" d="M195.333 139.667L195.667 140.333L195.333 139.667M198 139L199 140L198 139M199 140L197 151L196 151L196 149L195 149L194 186L207 186C207 173.158 209.156 149.66 199 140z"/>
<path style="fill:#5e121f; stroke:none;" d="M90 142L90 258L91 258L91 177L90 142z"/>
<path style="fill:#d0244c; stroke:none;" d="M95 143L95 144L99 144L95 143z"/>
<path style="fill:#5e121f; stroke:none;" d="M193 142L193 186L194 186C194 173.52 197.81 153.463 193 142z"/>
<path style="fill:#d0244c; stroke:none;" d="M94 144C93.9247 153.092 91.4357 161.95 91.0394 171C90.1962 190.255 91 209.725 91 229C91 241.503 89.5589 254.86 93.0147 267C100.137 292.02 123.687 310.313 150 309.981C160.839 309.845 170.851 306.308 181 303L182 307C199.621 311.952 220.757 310 239 310L239 309L233 307L240 307L240 306L236 305L240 299L188 296C193.285 288.639 199.636 282.653 203.074 274C210.315 255.778 207 233.243 207 214C203.855 214 198.223 212.953 195.603 215.028C192.927 217.147 194 223.02 194 226C194 235.535 194.842 245.516 193.826 255C191.622 275.579 174.656 293.336 154 295.816C133.639 298.26 113.171 284.307 107.029 265C103.577 254.151 105 242.238 105 231C105 215.298 104 199.725 104 184C104 171.142 107.465 151.537 94 144M104 146L104 150L105 150L104 146z"/>
<path style="fill:#c75089; stroke:none;" d="M95 148L96 149L95 148z"/>
<path style="fill:#d0244c; stroke:none;" d="M102.333 150.667L102.667 151.333L102.333 150.667z"/>
<path style="fill:#5e121f; stroke:none;" d="M104.333 150.667L104.667 151.333L104.333 150.667z"/>
<path style="fill:#c75089; stroke:none;" d="M199 151L200 152L199 151z"/>
<path style="fill:#d0244c; stroke:none;" d="M205 151L206 152L205 151M104 152L104 159L105 159L104 152z"/>
<path style="fill:#5e121f; stroke:none;" d="M104 159L104 162L105 162L104 159M104 164L104.999 220L107 267L108 267C106.752 257.734 104.461 248.351 106.924 239C110.829 224.18 125.26 212.01 140 208.68C152.41 205.876 167.302 208 180 208L260 208L260 207L152.285 206.309L123 207L126 206L123 200C128.83 198.679 134.021 195.322 140 194.326C177.386 188.092 219.138 193 257 193L257 192L179 192C151.374 192 127.538 190.926 106 211C105.292 197.498 109.179 176.342 104 164z"/>
<path style="fill:#c75089; stroke:none;" d="M194 166L195 167L194 166z"/>
<path style="fill:#5e121f; stroke:none;" d="M195 186L195 187L206 187L195 186z"/>
<path style="fill:#d0244c; stroke:none;" d="M123 200L123 207C131.327 212.224 140.913 206.106 150 206.434C180.705 207.541 210.584 205.309 241 204L241 203C236.351 201.574 236.351 198.426 241 197C228.785 191.731 214.011 193 201 193C174.295 193 148.302 190.949 123 200z"/>
<path style="fill:#c75089; stroke:none;" d="M226 193L226 194L259 194L226 193z"/>
<path style="fill:#5e121f; stroke:none;" d="M259 193L259 194L263 194L259 193z"/>
<path style="fill:#e46843; stroke:none;" d="M237 195L237 196L244 196L244 197L237 197L237 198L240 198L237 202L237 203L244 203L244 204L238 204L238 205C249.535 205.238 262.791 206.042 273 211.954C297.126 225.925 304.762 258.471 285.816 280C271.681 296.06 257.57 293.579 239 298L242 307L238 307C266.183 318.853 299.048 295.082 307.641 269C315.062 246.476 306.672 219.983 288 205.529C272.176 193.279 255.692 194.301 237 195z"/>
<path style="fill:#c75089; stroke:none;" d="M263.667 194.333L264.333 194.667L263.667 194.333z"/>
<path style="fill:#5e121f; stroke:none;" d="M265 194L265 195L268 195L265 194z"/>
<path style="fill:#c75089; stroke:none;" d="M266 195L266 196L269 196L266 195z"/>
<path style="fill:#5e121f; stroke:none;" d="M269.667 195.333L270.333 195.667L269.667 195.333z"/>
<path style="fill:#c75089; stroke:none;" d="M241 196L241 197L244 197L241 196M270.667 196.333L271.333 196.667L270.667 196.333z"/>
<path style="fill:#5e121f; stroke:none;" d="M272 196L272 197L276 198L276 197L272 196z"/>
<path style="fill:#c75089; stroke:none;" d="M273 197L274 198L273 197M236 198L236 202L240 202L240 198L236 198M275.667 198.333L276.333 198.667L275.667 198.333z"/>
<path style="fill:#5e121f; stroke:none;" d="M277 198L277 199L280 200L277 198z"/>
<path style="fill:#c75089; stroke:none;" d="M278 199L279 200L278 199M280 200L282 202L280 200z"/>
<path style="fill:#5e121f; stroke:none;" d="M281 200L282 201L281 200M282 201L282 202L285 203L282 201z"/>
<path style="fill:#c75089; stroke:none;" d="M283 202L284 203L283 202M241 203L241 204L244 204L241 203z"/>
<path style="fill:#5e121f; stroke:none;" d="M285 203L285 204L288 205L285 203z"/>
<path style="fill:#c75089; stroke:none;" d="M224 206L224 207L257 207C247.004 202.806 234.384 205.553 224 206M286 204L287 205L286 204z"/>
<path style="fill:#5e121f; stroke:none;" d="M288 205L288 206L292 208L288 205z"/>
<path style="fill:#c75089; stroke:none;" d="M260.667 207.333L261.333 207.667L260.667 207.333M290 207L291 208L290 207z"/>
<path style="fill:#050404; stroke:none;" d="M193 214C210.915 211.736 208 222.368 208 237C208 261.216 203.889 275.046 190 295L246 295C259.651 295 271.373 293.193 281.961 283.7C301.099 266.541 300.147 233.445 279.999 217.518C264.285 205.095 244.763 208 226 208L168 208C158.101 208 146.571 206.384 137 209.209C111.893 216.621 99.5453 242.586 108.3 267C119.605 298.525 164.339 304.666 184.076 277.999C197.282 260.155 193 234.884 193 214z"/>
<path style="fill:#5e121f; stroke:none;" d="M261 208L261 209L264 209L261 208z"/>
<path style="fill:#c75089; stroke:none;" d="M264.667 208.333L265.333 208.667L264.667 208.333M291 208L292 209L291 208z"/>
<path style="fill:#5e121f; stroke:none;" d="M265 209L265 210L277 215L277 214L265 209z"/>
<path style="fill:#c75089; stroke:none;" d="M267 209L268 210L267 209M292 209L295 212L292 209z"/>
<path style="fill:#5e121f; stroke:none;" d="M293 209L294 210L293 209z"/>
<path style="fill:#c75089; stroke:none;" d="M270 210L271 211L270 210z"/>
<path style="fill:#5e121f; stroke:none;" d="M294 210L295 211L294 210z"/>
<path style="fill:#c75089; stroke:none;" d="M272 211L273 212L272 211M274 212L275 213L274 212M295 212L296 213L295 212z"/>
<path style="fill:#5e121f; stroke:none;" d="M196 213L196 214L206 214L196 213z"/>
<path style="fill:#c75089; stroke:none;" d="M275 213L276 214L275 213z"/>
<path style="fill:#5e121f; stroke:none;" d="M296 213L297 214L296 213M193 214L193 258L194 258L195 214L193 214M207 214L206 266L207 266L208 231L207 214M297 214L298 215L297 214M277 215L280 217L280 216L277 215z"/>
<path style="fill:#c75089; stroke:none;" d="M278 215L279 216L278 215z"/>
<path style="fill:#5e121f; stroke:none;" d="M298 215L299 216L298 215z"/>
<path style="fill:#c75089; stroke:none;" d="M298 216L299 217L298 216z"/>
<path style="fill:#5e121f; stroke:none;" d="M280 217L281 218L280 217z"/>
<path style="fill:#c75089; stroke:none;" d="M299 217L300 218L299 217z"/>
<path style="fill:#5e121f; stroke:none;" d="M281 218L285 222L281 218z"/>
<path style="fill:#c75089; stroke:none;" d="M282 218L283 219L282 218z"/>
<path style="fill:#5e121f; stroke:none;" d="M300 218L301 219L300 218z"/>
<path style="fill:#c75089; stroke:none;" d="M283 219L284 220L283 219z"/>
<path style="fill:#5e121f; stroke:none;" d="M301 219L302 220L301 219z"/>
<path style="fill:#c75089; stroke:none;" d="M284 220L285 221L284 220M301 220L302 221L301 220z"/>
<path style="fill:#5e121f; stroke:none;" d="M302 221L303 222L302 221M285 222L286 223L285 222z"/>
<path style="fill:#c75089; stroke:none;" d="M302 222L303 223L302 222z"/>
<path style="fill:#5e121f; stroke:none;" d="M286 223L287 224L286 223M303 223L304 224L303 223z"/>
<path style="fill:#c75089; stroke:none;" d="M287 224L288 225L287 224z"/>
<path style="fill:#5e121f; stroke:none;" d="M304 224L305 228L306 228L304 224M287 225L288 226L287 225M288 226L289 227L288 226z"/>
<path style="fill:#c75089; stroke:none;" d="M304 226L305 227L304 226z"/>
<path style="fill:#5e121f; stroke:none;" d="M289.333 227.667L289.667 228.333L289.333 227.667z"/>
<path style="fill:#c75089; stroke:none;" d="M305 228L306 229L305 228z"/>
<path style="fill:#5e121f; stroke:none;" d="M290 229L292 232L290 229M306 229L307 230L306 229z"/>
<path style="fill:#c75089; stroke:none;" d="M291 230L292 231L291 230M306 230L307 231L306 230z"/>
<path style="fill:#5e121f; stroke:none;" d="M307.333 231.667L307.667 232.333L307.333 231.667z"/>
<path style="fill:#c75089; stroke:none;" d="M292 232L293 233L292 232z"/>
<path style="fill:#5e121f; stroke:none;" d="M292.333 233.667L292.667 234.333L292.333 233.667z"/>
<path style="fill:#c75089; stroke:none;" d="M307 233L308 234L307 233M293.333 234.667L293.667 235.333L293.333 234.667z"/>
<path style="fill:#5e121f; stroke:none;" d="M308 235L309 236L308 235M293 236L294 237L293 236z"/>
<path style="fill:#c75089; stroke:none;" d="M308 236L309 237L308 236M294 237L295 238L294 237z"/>
<path style="fill:#5e121f; stroke:none;" d="M309 237L309 240L310 240L309 237M294.333 238.667L294.667 239.333L294.333 238.667z"/>
<path style="fill:#c75089; stroke:none;" d="M295.333 240.667L295.667 241.333L295.333 240.667M309.333 240.667L309.667 241.333L309.333 240.667z"/>
<path style="fill:#5e121f; stroke:none;" d="M295 242L295 247L296 247L295 242M310 243L310 259L311 259L310 243z"/>
<path style="fill:#c75089; stroke:none;" d="M296 247L296 256L297 256L296 247z"/>
<path style="fill:#5e121f; stroke:none;" d="M295 256L295 261L296 261L295 256M192 258L192 262L193 262L192 258M91 260L91 264L92 264L91 260z"/>
<path style="fill:#c75089; stroke:none;" d="M295 261L296 262L295 261M309 261L310 262L309 261z"/>
<path style="fill:#5e121f; stroke:none;" d="M191 262L190 268L191 268L191 262M294 262L294 265L295 265L294 262M309 262L309 265L310 265L309 262M92 265L92 268L93 268L92 265M205 266L205 269L206 269L205 266M293 266L294 267L293 266M308.333 266.667L308.667 267.333L308.333 266.667z"/>
<path style="fill:#c75089; stroke:none;" d="M293 267L294 268L293 267z"/>
<path style="fill:#5e121f; stroke:none;" d="M93 268L93 271L94 271L93 268M108 268L109 272L110 272L108 268M189 268L189 271L190 271L189 268M292 268L290 274L291 274L292 268M204 269L204 272L205 272L204 269z"/>
<path style="fill:#c75089; stroke:none;" d="M307 269L308 270L307 269M292 270L293 271L292 270z"/>
<path style="fill:#5e121f; stroke:none;" d="M307.333 270.667L307.667 271.333L307.333 270.667M188 271L187 274L188 271M94 272L95 276L96 276L94 272M110 272L112 275L110 272z"/>
<path style="fill:#c75089; stroke:none;" d="M291 272L292 273L291 272M306 272L307 273L306 272z"/>
<path style="fill:#5e121f; stroke:none;" d="M203.333 273.667L203.667 274.333L203.333 273.667M306 273L307 274L306 273M186.333 274.667L186.667 275.333L186.333 274.667M289 274L290 275L289 274z"/>
<path style="fill:#c75089; stroke:none;" d="M305 274L306 275L305 274z"/>
<path style="fill:#5e121f; stroke:none;" d="M112 275L114 278L112 275M202.333 275.667L202.667 276.333L202.333 275.667z"/>
<path style="fill:#c75089; stroke:none;" d="M289 275L290 276L289 275z"/>
<path style="fill:#5e121f; stroke:none;" d="M305 275L306 276L305 275M96.3333 276.667L96.6667 277.333L96.3333 276.667M185 276L186 277L185 276M288 276L289 277L288 276z"/>
<path style="fill:#c75089; stroke:none;" d="M304 276L305 277L304 276z"/>
<path style="fill:#5e121f; stroke:none;" d="M184 277L183 280L184 277M201.333 277.667L201.667 278.333L201.333 277.667M287 277L286 280L287 280L287 277M304 277L303 280L304 277M97.3333 278.667L97.6667 279.333L97.3333 278.667M114 278L115 279L114 278z"/>
<path style="fill:#c75089; stroke:none;" d="M287 278L288 279L287 278M303 278L304 279L303 278z"/>
<path style="fill:#5e121f; stroke:none;" d="M115 279L122 286L115 279M200.333 279.667L200.667 280.333L200.333 279.667M98.3333 280.667L98.6667 281.333L98.3333 280.667M182 280L183 281L182 280M285 280L286 281L285 280z"/>
<path style="fill:#c75089; stroke:none;" d="M302 280L303 281L302 280z"/>
<path style="fill:#5e121f; stroke:none;" d="M181 281L182 282L181 281M199 281L200 282L199 281M284 281L285 282L284 281M302 281L303 282L302 281M99 282L101 285L99 282M180 282L181 283L180 282M198.333 282.667L198.667 283.333L198.333 282.667M283 282L284 283L283 282M301 282L300 285L301 282M179 283L180 284L179 283M282 283L283 284L282 283z"/>
<path style="fill:#c75089; stroke:none;" d="M300 283L301 284L300 283z"/>
<path style="fill:#5e121f; stroke:none;" d="M178 284L179 285L178 284M197 284L196 287L197 284M281 284L282 285L281 284M101 285L104 289L101 285M174 288L178 285L174 288M277 288L281 286L277 288M299 285L298 288L299 285M122 286L126 289L122 286z"/>
<path style="fill:#c75089; stroke:none;" d="M279 286L280 287L279 286M298 286L299 287L298 286z"/>
<path style="fill:#5e121f; stroke:none;" d="M195 287L192 292L195 287z"/>
<path style="fill:#c75089; stroke:none;" d="M278 287L279 288L278 287z"/>
<path style="fill:#5e121f; stroke:none;" d="M171 290L174 288L171 290M275 288L274 290L275 288z"/>
<path style="fill:#c75089; stroke:none;" d="M276 288L277 289L276 288z"/>
<path style="fill:#5e121f; stroke:none;" d="M297 288L298 289L297 288M104 289L105 290L104 289M126 289L126 290L130 291L130 290L126 289z"/>
<path style="fill:#c75089; stroke:none;" d="M275 289L276 290L275 289z"/>
<path style="fill:#5e121f; stroke:none;" d="M296 289L297 290L296 289M105 290L106 291L105 290M167 291L167 292L171 291L167 291M272 290L273 291L272 290z"/>
<path style="fill:#c75089; stroke:none;" d="M273.667 290.333L274.333 290.667L273.667 290.333z"/>
<path style="fill:#5e121f; stroke:none;" d="M295 290L296 291L295 290M106 291L107 292L106 291M130.667 291.333L131.333 291.667L130.667 291.333M270 291L271 292L270 291z"/>
<path style="fill:#c75089; stroke:none;" d="M271 291L272 292L271 291M294 291L295 292L294 291z"/>
<path style="fill:#5e121f; stroke:none;" d="M107 292L107 294L109 294L107 292M132 292L132 293L138 294L138 293L132 292M164 292L164 293L167 293L164 292M188 296L258 296L258 295L190 295L192 292L188 296M267.667 292.333L268.333 292.667L267.667 292.333z"/>
<path style="fill:#c75089; stroke:none;" d="M269.667 292.333L270.333 292.667L269.667 292.333z"/>
<path style="fill:#5e121f; stroke:none;" d="M293 292L294 293L293 292M161 293L161 294L164 294L161 293M264.667 293.333L265.333 293.667L264.667 293.333z"/>
<path style="fill:#c75089; stroke:none;" d="M266.667 293.333L267.333 293.667L266.667 293.333z"/>
<path style="fill:#5e121f; stroke:none;" d="M292 293L293 294L292 293M109 294L110 295L109 294M138 294L138 295L141 295L138 294M142 295L142 296L160 295L142 295M260 294L260 295L263 295L260 294z"/>
<path style="fill:#c75089; stroke:none;" d="M263.667 294.333L264.333 294.667L263.667 294.333M291 294L292 295L291 294z"/>
<path style="fill:#5e121f; stroke:none;" d="M110 295L111 296L110 295z"/>
<path style="fill:#c75089; stroke:none;" d="M258 295L258 296L262 296L258 295z"/>
<path style="fill:#5e121f; stroke:none;" d="M290 295L291 296L290 295M111 296L112 297L111 296z"/>
<path style="fill:#c75089; stroke:none;" d="M225 296L225 297L256 297L225 296z"/>
<path style="fill:#5e121f; stroke:none;" d="M289 296L290 297L289 296M112 297L115 299L112 297z"/>
<path style="fill:#c75089; stroke:none;" d="M287 297L286 299L287 297z"/>
<path style="fill:#5e121f; stroke:none;" d="M288 297L289 298L288 297M287 298L288 299L287 298M115 299L116 300L115 299z"/>
<path style="fill:#c75089; stroke:none;" d="M284 299L283 301L284 299z"/>
<path style="fill:#5e121f; stroke:none;" d="M285 299L286 300L285 299M116 300L116 301L123 304L123 303L116 300z"/>
<path style="fill:#c75089; stroke:none;" d="M239 300L236 305L242 307L240 305L240 304L239 300z"/>
<path style="fill:#5e121f; stroke:none;" d="M284 300L285 301L284 300z"/>
<path style="fill:#c75089; stroke:none;" d="M281 301L282 302L281 301z"/>
<path style="fill:#5e121f; stroke:none;" d="M282 301L283 302L282 301M181 302L182 303L181 302M280.667 302.333L281.333 302.667L280.667 302.333M155 309L155 310L210 310L210 309L182 307L181 303L155 309z"/>
<path style="fill:#c75089; stroke:none;" d="M234 303L235 304L234 303z"/>
<path style="fill:#5e121f; stroke:none;" d="M278.667 303.333L279.333 303.667L278.667 303.333M123.667 304.333L124.333 304.667L123.667 304.333z"/>
<path style="fill:#d0244c; stroke:none;" d="M240 304L241 305L240 304z"/>
<path style="fill:#c75089; stroke:none;" d="M242 304L243 305L242 304M275 304L276 305L275 304z"/>
<path style="fill:#5e121f; stroke:none;" d="M276.667 304.333L277.333 304.667L276.667 304.333M125 305L125 306L134 308L134 307L125 305z"/>
<path style="fill:#c75089; stroke:none;" d="M273 305L274 306L273 305z"/>
<path style="fill:#5e121f; stroke:none;" d="M274.667 305.333L275.333 305.667L274.667 305.333M184 306L185 307L184 306z"/>
<path style="fill:#c75089; stroke:none;" d="M270.667 306.333L271.333 306.667L270.667 306.333z"/>
<path style="fill:#5e121f; stroke:none;" d="M272.667 306.333L273.333 306.667L272.667 306.333z"/>
<path style="fill:#c75089; stroke:none;" d="M233 307C237.064 311.717 250.089 310 256 310L256 309L233 307M266.667 307.333L267.333 307.667L266.667 307.333z"/>
<path style="fill:#5e121f; stroke:none;" d="M268 307L268 308L272 308L268 307M134 308L134 309L138 309L134 308z"/>
<path style="fill:#c75089; stroke:none;" d="M229 308L229 309L232 309L229 308M262.667 308.333L263.333 308.667L262.667 308.333z"/>
<path style="fill:#5e121f; stroke:none;" d="M264.667 308.333L265.333 308.667L264.667 308.333M138 309L138 310L144 310L138 309z"/>
<path style="fill:#d0244c; stroke:none;" d="M240 309L240 310L244 310L240 309M256.667 309.333L257.333 309.667L256.667 309.333z"/>
<path style="fill:#5e121f; stroke:none;" d="M258 309L258 310L263 310L258 309M148 310L148 311L152 311L148 310M228 310L229 311L228 310M230 310L231 311L230 310M232 310L232 311L240 311L232 310M247 310L248 311L247 310z"/>
</svg>
