<?xml version="1.0" standalone="yes"?>
<svg xmlns="http://www.w3.org/2000/svg" width="1586" height="1586">
<path style="fill:#ffffff; stroke:none;" d="M0 0L0 396C24.2871 378.892 44.974 352.026 66 331L198 199L331 66C352.026 44.974 378.892 24.287 396 0L0 0z"/>
<path style="fill:#209cc1; stroke:none;" d="M147 250L147 251L300 379.272L361 430.424L396 459L397 397L1005 397C992.081 380.98 971.813 368.113 956 354.92C922.934 327.331 890.066 299.508 857 271.92C749.19 181.969 639.77 93.3326 534 1L543 1C534.165 -2.7074 519.585 0 510 0L433 0C422.998 0 404.999 -3.4718 396 1.02771C387.03 5.51245 379.054 16.9458 372 24L320 76C262.166 133.834 204.812 192.188 147 250z"/>
<path style="fill:#13d8a7; stroke:none;" d="M534 1C544.047 13.451 559.694 23.4968 572 33.7531C596.053 53.7993 619.958 74.0209 644 94.0803C719.816 157.338 795.576 220.698 871 284.424C901.905 310.536 933.095 336.312 964 362.424C973.307 370.288 982.65 378.107 992 385.92C996.207 389.435 1000.67 394.705 1006 396.436C1021.03 401.32 1044.17 397 1060 397L1182 397L1586 397L1586 0L534 1z"/>
<path style="fill:#2d5cdd; stroke:none;" d="M168 228L169 229L168 228M167 229L168 230L167 229M166 230L167 231L166 230M165 231L166 232L165 231M164 232L165 233L164 232M163 233L164 234L163 233M162 234L163 235L162 234M161 235L162 236L161 235M160 236L161 237L160 236M159 237L160 238L159 237M158 238L159 239L158 238M157 239L158 240L157 239M156 240L157 241L156 240M155 241L156 242L155 241M154 242L155 243L154 242M153 243L154 244L153 243M152 244L153 245L152 244M151 245L152 246L151 245M150 246L151 247L150 246M149 247L150 248L149 247M148 248L149 249L148 248M147 249L148 250L147 249M146 250L42 354L13 383C8.97903 387.021 2.62086 391.528 0.603395 397C-1.29532 402.15 0 409.569 0 415L0 453L0 584C0 598.385 0.634482 612.678 0.98534 627C1.11656 632.356 -0.701566 640.925 2.02778 645.714C8.37345 656.846 26.1598 666.87 36 675.08C62.3732 697.085 88.864 718.986 115 741.272C176.239 793.49 238.525 844.484 300 896.424C320.603 913.832 341.396 931.016 362 948.424C373.321 957.989 384.423 969.134 397 977L397 452L396 452L396 459C346.218 415.543 294.479 374.226 244 331.576C212.132 304.65 180.784 273.009 146 250z"/>
<path style="fill:#ffffff; stroke:none;" d="M397 397L397 1189L1189 1189L1189 793L1586 793L1586 397L397 397z"/>
<path style="fill:#382bf2; stroke:none;" d="M0 621L0 1190L396 1190L396 1586L1141 1586L1141 1585C1135.2 1585 1127.45 1586.34 1122 1584.14C1109.56 1579.13 1097.3 1564.34 1087 1555.75C1058.58 1532.07 1030.43 1508.08 1002 1484.41C925.11 1420.42 848.415 1356.14 772 1291.58C745.076 1268.83 718.092 1246.14 691 1223.59C678.238 1212.96 665.908 1200.22 652 1191.15C646.281 1187.42 637.553 1189 631 1189L582 1189L397 1189L397 1037L397 995C397 989.815 398.491 981.78 395.972 977.089C391.088 967.994 376.847 960.206 369 953.576C348.397 936.168 327.604 918.984 307 901.576C239.864 844.852 172.486 788.388 105 732.08C80.9583 712.021 57.0534 691.799 33 671.753C24.0631 664.305 7.66512 655.014 2.02778 644.83C-1.78534 637.942 3.03206 628.226 0 621z"/>
<path style="fill:#209cc1; stroke:none;" d="M1189 793L1189 1033L1189 1098C1189 1105.23 1186.47 1118.41 1190.03 1124.83C1194.01 1132.02 1204.72 1138.19 1211 1143.41C1227.37 1157.04 1243.73 1170.68 1260 1184.42C1319.2 1234.44 1383.02 1281.43 1439 1335L1440 1335L1542 1234L1571 1205L1584.97 1190L1586 1162L1586 1094L1586 851L1585 851L1585 882L1509 818.753L1478 793.742L1451 793L1392 793L1189 793z"/>
<path style="fill:#13d8a7; stroke:none;" d="M1478 793L1478 794L1553 856.424L1585 882L1586 793L1478 793z"/>
<path style="fill:#2d5cdd; stroke:none;" d="M1189 1125L1189 1189L650 1189C659.901 1201.95 676.467 1212.31 689 1222.75C714.718 1244.19 740.526 1265.55 766 1287.27C852.728 1361.22 940.484 1434.06 1028 1507.08C1049.38 1524.92 1070.61 1542.93 1092 1560.75C1100.6 1567.92 1110.59 1579.94 1121 1584.14C1126.12 1586.21 1132.59 1584.66 1138 1585.17C1152.86 1586.58 1172.3 1588.76 1187 1585.72C1196.78 1583.7 1206.22 1569.78 1213 1563L1272 1504L1432 1344L1483 1293C1491.96 1284.04 1502.69 1275.37 1510 1265L1474 1300L1440 1335L1439 1335L1407 1306.92L1346 1255.75L1240 1166.92L1189 1125z"/>
<path style="fill:#ffffff; stroke:none;" d="M0 1190L0 1586L396 1586L396 1190L0 1190M1585 1190L1319 1456L1233 1542L1190 1586L1586 1586L1586 1306L1586 1225L1585 1190z"/>
<path style="fill:#382bf2; stroke:none;" d="M1190 1584L1191 1585L1190 1584M1189 1585L1190 1586L1189 1585z"/>
</svg>
