<?xml version="1.0" standalone="yes"?>
<svg xmlns="http://www.w3.org/2000/svg" width="958" height="958">
<path style="fill:#ffffff; stroke:none;" d="M0 0L0 186L1 186C1 90.5524 91.9212 1 187 1L169 0L131 0L0 0z"/>
<path style="fill:#1ab6b6; stroke:none;" d="M126 13C128.763 24.6037 127 38.1055 127 50L127 120L127 343L127 753L127 882C127 901.833 130.595 925.702 126 945C185.367 964.317 249.308 958 311 958L417 958C437.151 958 458.009 959.526 478 957L478 784L631 784L631 783L327 783L327 631L478 631L478 327L327 327L327 631L175 631L175 419L175 356C175 347.808 172.757 335.72 175.603 328C178.382 320.464 188.418 313.582 194 308L239 263L301 201C308.366 193.634 318.127 179.243 328 175.603C336.231 172.569 349.258 175 358 175L424 175L650 175L650 174L478 174L478 1C459.941 -1.28223 441.202 0 423 0L329 0C276.077 0 220.476 -4.78656 168 2.28241C153.446 4.24292 140.048 9.16565 126 13z"/>
<path style="fill:#3342e8; stroke:none;" d="M474 0L474 1L478 1L478 174L783 175L783 327L478 327L478 631L631 631L631 479L783 479L783 584C783 597.135 786.936 617.689 782.397 630C779.743 637.198 770.325 643.675 765 649L723 691L659 755C650.527 763.473 640.75 777.597 630 782.972C619.507 788.219 597.706 784 586 784L478 784L478 957L474 957C486.17 962.107 507.747 958 521 958L632 958L730 958C762.272 958 794.089 958.078 825 947.305C843.168 940.973 860.419 932.164 876 920.848C889.142 911.303 901.088 900.417 911.561 888C965.942 823.524 958 743.718 958 665L958 422L958 256C958 188.039 958.055 123.517 910.711 69C879.834 33.446 836.831 8.92548 790 2.28552C755.277 -2.6377 719.022 0 684 0L474 0z"/>
<path style="fill:#010101; stroke:none;" d="M770 0L771 1L770 0z"/>
<path style="fill:#ffffff; stroke:none;" d="M771 0L771 1C866.861 1 957 91.167 957 187L958 187L958 0L771 0z"/>
<path style="fill:#010101; stroke:none;" d="M796 3L797 4L796 3M810 6L811 7L810 6M140 8L141 9L140 8M817 8L818 9L817 8M128 12L129 13L128 12M829 12L830 13L829 12z"/>
<path style="fill:#1ab6b6; stroke:none;" d="M123 14L123 16L125 14L123 14z"/>
<path style="fill:#0fe7a0; stroke:none;" d="M127 944L127 14C62.4414 30.9656 13.7411 99.7233 3.08102 163C-2.43485 195.742 0 229.894 0 263L0 427L0 655C0 692.47 -3.37856 731.714 0.169753 769C5.73358 827.465 28.8308 879.222 76 916.21C89.9388 927.14 109.036 941.229 127 944z"/>
<path style="fill:#010101; stroke:none;" d="M834 14L835 15L834 14z"/>
<path style="fill:#1ab6b6; stroke:none;" d="M116 17L117 18L116 17z"/>
<path style="fill:#010101; stroke:none;" d="M841 17L842 18L841 17z"/>
<path style="fill:#1ab6b6; stroke:none;" d="M108 21L109 22L108 21M106 22L107 23L106 22M104 23L105 24L104 23M95 28L96 29L95 28z"/>
<path style="fill:#010101; stroke:none;" d="M862 28L863 29L862 28z"/>
<path style="fill:#1ab6b6; stroke:none;" d="M83 36L84 37L83 36z"/>
<path style="fill:#010101; stroke:none;" d="M80 38L81 39L80 38M877 38L878 39L877 38z"/>
<path style="fill:#1ab6b6; stroke:none;" d="M75 42L76 43L75 42z"/>
<path style="fill:#010101; stroke:none;" d="M71 45L72 46L71 45M886 45L887 46L886 45z"/>
<path style="fill:#1ab6b6; stroke:none;" d="M62 53L63 54L62 53z"/>
<path style="fill:#010101; stroke:none;" d="M895 53L896 54L895 53z"/>
<path style="fill:#1ab6b6; stroke:none;" d="M59 56L60 57L59 56M58 57L59 58L58 57M57 58L58 59L57 58M56 59L57 60L56 59z"/>
<path style="fill:#010101; stroke:none;" d="M903 61L904 62L903 61z"/>
<path style="fill:#1ab6b6; stroke:none;" d="M53 62L54 63L53 62z"/>
<path style="fill:#010101; stroke:none;" d="M904 62L905 63L904 62M45 71L46 72L45 71M912 71L913 72L912 71M41 76L42 77L41 76M916 76L917 77L916 76z"/>
<path style="fill:#1ab6b6; stroke:none;" d="M38 80L39 81L38 80z"/>
<path style="fill:#010101; stroke:none;" d="M919 80L920 81L919 80z"/>
<path style="fill:#1ab6b6; stroke:none;" d="M28 95L29 96L28 95z"/>
<path style="fill:#010101; stroke:none;" d="M929 95L930 96L929 95M12 128L13 129L12 128M945 128L946 129L945 128z"/>
<path style="fill:#1ab6b6; stroke:none;" d="M8 140L9 141L8 140z"/>
<path style="fill:#010101; stroke:none;" d="M949 140L950 141L949 140M6 147L7 148L6 147M951 147L952 148L951 147M5 151L6 152L5 151M952 151L953 152L952 151M1 174L2 175L1 174M956 174L957 175L956 174z"/>
<path style="fill:#ffffff; stroke:none;" d="M175 631L327 631L327 327L783 327L783 175L463 175L368 175C356.237 175 338.037 171.534 327 175.603C317.791 178.999 308.858 192.142 302 199L245 256L196 305C189.906 311.094 178.63 318.792 175.603 327C172.757 334.72 175 346.808 175 355L175 418L175 631z"/>
<path style="fill:#010101; stroke:none;" d="M0 186L1 187L0 186z"/>
<path style="fill:#ffffff; stroke:none;" d="M631 479L631 631L327 631L327 783L540 783L603 783C611.192 783 623.28 785.243 631 782.397C640.873 778.757 650.634 764.366 658 757L720 695L764 651C769.582 645.418 779.618 638.536 782.397 631C786.935 618.689 783 598.135 783 585L783 479L631 479z"/>
<path style="fill:#010101; stroke:none;" d="M0 771L1 772L0 771z"/>
<path style="fill:#ffffff; stroke:none;" d="M957 771C957 866.074 867.471 957 772 957L772 958L958 958L958 827L958 789L957 771M0 772L0 958L186 958L186 957C115.039 957 47.1949 905.919 18.3086 843C11.55 828.279 6.59394 812.919 3.61111 797C2.16885 789.303 2.9535 779.039 0 772z"/>
<path style="fill:#010101; stroke:none;" d="M1 783L2 784L1 783M956 783L957 784L956 783M5 806L6 807L5 806M952 806L953 807L952 806M6 810L7 811L6 810M951 810L952 811L951 810z"/>
<path style="fill:#1ab6b6; stroke:none;" d="M8 817L9 818L8 817z"/>
<path style="fill:#010101; stroke:none;" d="M949 817L950 818L949 817z"/>
<path style="fill:#1ab6b6; stroke:none;" d="M12 829L13 830L12 829z"/>
<path style="fill:#010101; stroke:none;" d="M945 829L946 830L945 829z"/>
<path style="fill:#1ab6b6; stroke:none;" d="M28 862L29 863L28 862z"/>
<path style="fill:#010101; stroke:none;" d="M929 862L930 863L929 862z"/>
<path style="fill:#1ab6b6; stroke:none;" d="M38 877L39 878L38 877z"/>
<path style="fill:#010101; stroke:none;" d="M919 877L920 878L919 877M41 881L42 882L41 881M916 881L917 882L916 881M45 886L46 887L45 886M912 886L913 887L912 886z"/>
<path style="fill:#1ab6b6; stroke:none;" d="M53 895L54 896L53 895z"/>
<path style="fill:#010101; stroke:none;" d="M904 895L905 896L904 895M903 896L904 897L903 896z"/>
<path style="fill:#1ab6b6; stroke:none;" d="M56 898L57 899L56 898M57 899L58 900L57 899M58 900L59 901L58 900M59 901L60 902L59 901M62 904L63 905L62 904z"/>
<path style="fill:#010101; stroke:none;" d="M895 904L896 905L895 904M71 912L72 913L71 912M886 912L887 913L886 912z"/>
<path style="fill:#1ab6b6; stroke:none;" d="M75 915L76 916L75 915z"/>
<path style="fill:#010101; stroke:none;" d="M76 916L77 917L76 916M881 916L882 917L881 916z"/>
<path style="fill:#1ab6b6; stroke:none;" d="M80 919L81 920L80 919z"/>
<path style="fill:#010101; stroke:none;" d="M877 919L878 920L877 919z"/>
<path style="fill:#1ab6b6; stroke:none;" d="M95 929L96 930L95 929z"/>
<path style="fill:#010101; stroke:none;" d="M862 929L863 930L862 929z"/>
<path style="fill:#1ab6b6; stroke:none;" d="M102 933L103 934L102 933M104 934L105 935L104 934M114 939L115 940L114 939M116 940L117 941L116 940M119 941L120 942L119 941M121 942L122 943L121 942M124 943L125 944L124 943z"/>
<path style="fill:#010101; stroke:none;" d="M829 945L830 946L829 945M817 949L818 950L817 949M810 951L811 952L810 951M151 952L152 953L151 952M806 952L807 953L806 952M174 956L175 957L174 956M783 956L784 957L783 956M186 957L187 958L186 957M771 957L772 958L771 957z"/>
</svg>
