<?xml version="1.0" standalone="yes"?>
<svg xmlns="http://www.w3.org/2000/svg" width="1586" height="1586">
<path style="fill:#ffffff; stroke:none;" d="M0 0L1 1189L397 1189L397 1585L1586 1586L1585 1L0 0z"/>
<path style="fill:#ededed; stroke:none;" d="M396 0L397 1L396 0z"/>
<path style="fill:#fafafa; stroke:none;" d="M397 0L397 1L1585 1L1585 397C1588.1 389.601 1586 378.007 1586 370L1586 308L1586 93L1586 24C1586 19.1865 1588.46 4.24219 1584.4 1.02771C1580.27 -2.23694 1568.09 0 1563 0L1505 0L1278 0L397 0z"/>
<path style="fill:#ededed; stroke:none;" d="M1585 0L1586 1L1585 0M395 1L130 266L44 352L1 396C13.5712 387.145 24.1292 373.871 35 363L98 300L293 105L367 31C374.458 23.5421 392.52 11.2308 395 1M0 396L1 397L0 396z"/>
<path style="fill:#fafafa; stroke:none;" d="M0 397L0 994L0 1141L0 1177L1.6034 1188.97L29 1190L104 1190L396 1190L396 1482L396 1557L397.028 1584.4L409 1586L445 1586L592 1586L1189 1586L1189 1585L397 1585L397 1189L1 1189L1 627L1 465L1 418L0 397M1585 793L1585 1189L1586 1189L1586 909L1586 828L1585 793z"/>
<path style="fill:#d5d5d5; stroke:none;" d="M0 1189L1 1190L0 1189z"/>
<path style="fill:#e9e9e9; stroke:none;" d="M1585 1189L1586 1190L1585 1189z"/>
<path style="fill:#ffffff; stroke:none;" d="M0 1190L0 1586L396 1586L396 1190L0 1190z"/>
<path style="fill:#ededed; stroke:none;" d="M1584 1190L1319 1455L1233 1541L1190 1585C1202.2 1576.4 1212.45 1563.55 1223 1553L1286 1490L1482 1294L1556 1220C1563.46 1212.54 1581.52 1200.23 1584 1190z"/>
<path style="fill:#d5d5d5; stroke:none;" d="M396 1585L397 1586L396 1585z"/>
<path style="fill:#ededed; stroke:none;" d="M1189 1585L1190 1586L1189 1585z"/>
</svg>
