<?xml version="1.0" standalone="yes"?>
<svg xmlns="http://www.w3.org/2000/svg" width="335" height="335">
<path style="fill:#192d7d; stroke:none;" d="M0 0L0 295L228 295.921L335 295L335 0L0 0z"/>
<path style="fill:#1a50c3; stroke:none;" d="M137 90C133.63 90.5363 131.4 93.1419 127.985 93.7716C120.23 95.2016 112.803 92.8084 106.019 98.3025C98.4729 104.413 96.2937 122.91 106 128C107.075 136.138 117.992 134.475 124 132.498C130.768 130.271 135.583 122.525 142.039 121.218C148.514 119.908 156.464 124.664 163 125.201C173.141 126.034 183.966 123.204 194 122C198.778 134.82 215.613 132.363 226 132C233.49 119.559 238.34 102.422 221 95.3526C214.7 92.7844 207.05 95.05 201.093 91.2978C193.217 86.3368 189.302 76.7098 180.907 71.8333C165.904 63.1186 141.512 73.4284 137 90z"/>
<path style="fill:#616ca3; stroke:none;" d="M152 119L155 118L154 120L170 121.826L194 111C196.142 118.334 199.583 125.419 207.001 128.633C218.331 133.541 230.898 125.29 230.806 113C230.679 96.219 204.807 90.986 196 104C191.946 93.1771 190.84 81.9882 179.83 75.3526C160.655 63.7961 137.695 83.4886 140.137 104C140.999 111.234 147.582 114.235 152 119z"/>
<path style="fill:#9da3c1; stroke:none;" d="M164 77.5216C138.935 82.5792 144.741 121.173 170 116.532C195.69 111.81 189.126 72.4517 164 77.5216z"/>
<path style="fill:#fcfcfd; stroke:none;" d="M162 79.5579C138.851 85.6298 150.056 120.996 173 114.362C195.2 107.943 184.21 73.7321 162 79.5579z"/>
<path style="fill:#616ca3; stroke:none;" d="M125 99L125 98L128 98C107.342 88.1534 90.4863 121.577 112.174 129.16C133.422 136.591 149.388 100.269 125 99z"/>
<path style="fill:#9da3c1; stroke:none;" d="M107 111L108 111C112.736 99.9147 130.549 99.7436 129.847 114C129.035 130.515 109.903 124.077 107 112C102.184 125.612 126.251 131.25 130.602 116.999C135.407 101.264 110.373 94.3291 107 111M210.015 101.652C194.84 106.438 203.067 130.07 217.985 125.346C233.503 120.434 225.469 96.778 210.015 101.652z"/>
<path style="fill:#fcfcfd; stroke:none;" d="M115.039 102.654C101.374 107.074 108.458 128.292 121.999 124.192C136.303 119.861 129.23 98.0637 115.039 102.654M211.001 102.573C197.297 106.452 203.261 128.486 216.999 124.343C231.31 120.028 225.225 98.547 211.001 102.573z"/>
<path style="fill:#192d7d; stroke:none;" d="M105 126L106 127L105 126z"/>
<path style="fill:#1a50c3; stroke:none;" d="M72 184L74 183L79 192C85.1092 192.944 96.8682 197.6 99.9576 203.286C101.875 206.815 99.8229 212.082 100.287 216C101.87 229.367 111.31 234.597 124 233.96C127.942 233.762 131.313 232.227 135 231C138.863 242.512 144.773 259.167 157 263.895C161.312 265.562 168.661 268.068 172 264C190.338 264.555 187.723 244.687 197.572 236.032C202.674 231.549 211.81 235.483 218 233.957C233.804 230.06 233.858 213.025 231 200C235.362 200.19 238.881 197.897 243 196.59C252.994 193.419 261.432 189.356 265.647 179C274.922 156.214 251.886 136.216 230 141.415C224.256 142.78 221.251 147.419 217 151L218 154C211.421 158.025 210.865 179.044 217 184C216.574 186.525 218.488 190.827 217.034 192.867C210.539 201.978 195.234 199.461 193 214L167 209.129L140 216C137.258 205.859 130.594 197.424 120 195C121.604 178.118 127.643 160.522 114.736 146.239C103.441 133.74 79.5375 141.421 71.8989 154.285C66.7121 163.021 69.0969 175.075 72 184M158.09 141.724C125.949 148.757 139.313 203.684 172 196.544C209.828 188.281 195.907 133.449 158.09 141.724z"/>
<path style="fill:#616ca3; stroke:none;" d="M87.9853 144.714C56.5512 155.154 74.5585 203.656 104.83 193.16C133.66 183.165 117.957 134.759 87.9853 144.714M159.715 144.92C130.125 155.39 143.536 201.965 174 192.251C204.739 182.449 190.023 134.195 159.715 144.92M234 144.529C203.206 151.601 214.928 201.068 246.999 192.649C277.404 184.667 264.644 137.492 234 144.529z"/>
<path style="fill:#1a50c3; stroke:none;" d="M103 145L104 146L103 145z"/>
<path style="fill:#9da3c1; stroke:none;" d="M92 149.468C66.451 154.173 74.7766 193.069 100 188.022C124.226 183.174 116.636 144.931 92 149.468M164 149.44C137.873 153.648 146.094 192.348 172 187.671C196.206 183.3 187.994 145.575 164 149.44M221 175L223 175C222.653 170.439 222.026 166.346 223.97 162C225.467 158.652 228.002 155.747 231.004 153.653C260.18 133.301 268.491 197.032 236 185.89C230.23 183.912 227.144 178.745 222 176C231.22 196.656 263.695 187.946 259.671 165C257.203 150.923 239.157 144.049 228.093 153.394C221.284 159.145 221 166.8 221 175z"/>
<path style="fill:#fcfcfd; stroke:none;" d="M94 150.529C69.9113 152.719 74.3155 189.688 98 186.808C120.998 184.011 116.899 148.447 94 150.529M164.83 150.562C141.227 154.149 146.473 190.52 170 186.667C192.748 182.942 187.738 147.082 164.83 150.562M239 150.479C215.614 153.183 218.616 188.751 242 186.812C265.497 184.863 262.373 147.777 239 150.479z"/>
<path style="fill:#192d7d; stroke:none;" d="M261 183L262 184L261 183z"/>
<path style="fill:#1a50c3; stroke:none;" d="M216 191L217 192L216 191z"/>
<path style="fill:#616ca3; stroke:none;" d="M126 232L125 230C134.603 230.447 137.539 219.749 135.271 212C132.895 203.882 124.37 198.457 116.001 198.471C102.866 198.494 99.0235 216.919 105.546 225.906C110.558 232.812 118.527 231.608 126 232M211.17 199.555C189.145 203.952 193.798 237.059 218 231.606C238.04 227.092 231.976 195.401 211.17 199.555z"/>
<path style="fill:#9da3c1; stroke:none;" d="M205 207L205 208C213.548 204.966 221.4 203.44 225 214C228.082 202.215 211.001 203.518 205 207M113 205L113 206L128 208C123.966 203.635 118.502 203.374 113 205z"/>
<path style="fill:#fcfcfd; stroke:none;" d="M114.015 205.742C100.698 210.987 109.769 232.016 122.985 226.452C136.668 220.691 127.885 200.28 114.015 205.742M210.015 205.703C196.604 210.373 204.589 231.378 217.996 226.721C232.137 221.809 224.246 200.748 210.015 205.703z"/>
<path style="fill:#9da3c1; stroke:none;" d="M111 206L112 207L111 206M110 207L111 208L110 207M109 208L110 209L109 208M108.333 209.667L108.667 210.333L108.333 209.667M128 209L129 210L128 209M204 209L205 210L204 209M129.333 210.667L129.667 211.333L129.333 210.667M203.333 210.667L203.667 211.333L203.333 210.667M107 211L107 214L108 214L107 211M130 212L129 222L130 222L130 212z"/>
<path style="fill:#616ca3; stroke:none;" d="M183 254C187.237 253.086 189.314 247.934 190.637 244C194.349 232.959 191.471 221.84 181 216.055C176.366 213.494 170.335 211.606 165 212.188C160.463 212.683 155.798 214.629 152 217.107C136.615 227.148 139.802 250.823 156 259.001C164.283 263.182 178.192 263.254 183 254z"/>
<path style="fill:#9da3c1; stroke:none;" d="M202 212L204 224L205 224L202 212M106.333 215.667L106.667 216.333L106.333 215.667M164 217.558C138.854 221.912 145.286 260.424 170 256.367C195.243 252.223 189.503 213.142 164 217.558M107 218L107 221L108 221L107 218M225 218L225 221L226 221L225 218z"/>
<path style="fill:#fcfcfd; stroke:none;" d="M162 219.613C139.044 225.804 150.184 261.252 173 254.197C194.896 247.427 184.237 213.616 162 219.613z"/>
<path style="fill:#9da3c1; stroke:none;" d="M108.333 221.667L108.667 222.333L108.333 221.667M224.333 221.667L224.667 222.333L224.333 221.667M128.333 222.667L128.667 223.333L128.333 222.667M109 223L110 224L109 223M223 223L224 224L223 223M110 224L111 225L110 224M125 226L128 224L125 226M205 224L213 228L213 227L205 224M222 224L223 225L222 224M111 225L112 226L111 225M221 225L222 226L221 225M112.667 226.333L113.333 226.667L112.667 226.333M120 227L120 228L125 227L120 227M219.667 226.333L220.333 226.667L219.667 226.333M114 227L114 228L118 228L114 227M215 227L215 228L219 228L215 227z"/>
<path style="fill:#1a50c3; stroke:none;" d="M127 229L128 230L127 229z"/>
<path style="fill:#192d7d; stroke:none;" d="M136 232L137 233L136 232z"/>
<path style="fill:#1a50c3; stroke:none;" d="M0 295L0 335L335 335L335 295L303 295L228 295.821L0 295z"/>
</svg>
