<?xml version="1.0" standalone="yes"?>
<svg xmlns="http://www.w3.org/2000/svg" width="400" height="400">
<path style="fill:#030303; stroke:none;" d="M0 0L0 400L400 400L400 0L0 0z"/>
<path style="fill:#ab62d4; stroke:none;" d="M199 17L199 18L205 18L199 17z"/>
<path style="fill:#c4c19b; stroke:none;" d="M82 87L88 85L83 89L83 90L79 98C76.6038 97.4254 76.513 97.5249 76 100L168 47.5725L192 33.5756L203 28.9236L225 40.9383L265 63.4244L290 75L290 74L286 74C287.696 66.3087 281.925 63.9372 276.424 60.061C263.995 51.3017 250.179 44.1279 237 36.5725C227.918 31.3659 212.641 17.3925 202 17.4267C192.698 17.4566 179.002 29.2819 171 33.8495C151.248 45.1237 131.83 57.0061 112 68.1389C102.491 73.4771 89.0319 78.5688 82 87z"/>
<path style="fill:#ab62d4; stroke:none;" d="M197 18L198 19L197 18M206 18L207 19L206 18M195 19L196 20L195 19z"/>
<path style="fill:#fcbe32; stroke:none;" d="M199 20C200.367 24.7666 203.647 26.9269 208 29L209 26L210 26L209 30L217 29C213.747 23.3414 205.47 18.7952 199 20z"/>
<path style="fill:#ab62d4; stroke:none;" d="M208 19L209 20L208 19M193.667 20.3333L194.333 20.6667L193.667 20.3333M210 20L211 21L210 20M192 21L193 22L192 21M211 21L212 22L211 21M190 22L191 23L190 22M213 22L214 23L213 22M188.667 23.3333L189.333 23.6667L188.667 23.3333z"/>
<path style="fill:#c4c19b; stroke:none;" d="M207 23L208 24L207 23z"/>
<path style="fill:#ab62d4; stroke:none;" d="M214.667 23.3333L215.333 23.6667L214.667 23.3333M187 24L188 25L187 24M216 24L217 25L216 24M185 25L186 26L185 25z"/>
<path style="fill:#fcbe32; stroke:none;" d="M192 26L192 27L200 27L192 26z"/>
<path style="fill:#ab62d4; stroke:none;" d="M218 25L219 26L218 25M183 26L184 27L183 26M220 26L221 27L220 26M182 27L183 28L182 27M221.667 27.3333L222.333 27.6667L221.667 27.3333M180 28L181 29L180 28M200 28L197 30L197 31L201 29L200 28z"/>
<path style="fill:#030303; stroke:none;" d="M201 29.0394C189.917 31.0348 176.754 42.394 167 48C141.29 62.7758 115.818 77.9902 90 92.5756C81.6105 97.3152 73.356 102.197 65 107C61.44 109.046 56.2448 111.007 54.6034 115.093C51.4237 123.01 54 136.498 54 145L54 214L54 264C54 269.467 52.196 278.943 55.0278 283.79C58.4298 289.613 69.2928 293.473 75 296.719C91.0546 305.852 107.025 315.153 123 324.424C141.981 335.44 161.124 346.211 180 357.397C185.594 360.711 196.299 369.675 203 368.795C214.255 367.317 229.273 354.624 239 348.8C264.063 333.793 289.637 319.496 315 305.001C323.351 300.228 331.719 295.501 340 290.603C343.013 288.821 347.906 287.214 349.397 283.787C352.699 276.195 350 262.252 350 254L350 185L350 134C350 128.539 351.99 118.124 348.972 113.39C345.726 108.299 335.192 104.438 330 101.424C314.043 92.1631 298.023 82.9965 282 73.8495C262.289 62.5971 242.712 51.1012 223 39.8495C217.673 36.8091 207.284 27.9079 201 29.0394z"/>
<path style="fill:#ab62d4; stroke:none;" d="M203 28L204 29L203 28M223 28L224 29L223 28M178 29L179 30L178 29M205 29L206 30L205 29M225 29L226 30L225 29M176 30L177 31L176 30M206 30L207 31L206 30M226.667 30.3333L227.333 30.6667L226.667 30.3333M175 31L176 32L175 31M195 31L196 32L195 31M208 31L209 32L208 31z"/>
<path style="fill:#fcbe32; stroke:none;" d="M221.667 31.3333L222.333 31.6667L221.667 31.3333z"/>
<path style="fill:#ab62d4; stroke:none;" d="M228 31L229 32L228 31M173 32L174 33L173 32M193 32L194 33L193 32M210 32L211 33L210 32M230 32L231 33L230 32M171 33L172 34L171 33M192 33L193 34L192 33M211.667 33.3333L212.333 33.6667L211.667 33.3333z"/>
<path style="fill:#fcbe32; stroke:none;" d="M218 33L218 34L224 37L218 33z"/>
<path style="fill:#ab62d4; stroke:none;" d="M231.667 33.3333L232.333 33.6667L231.667 33.3333M169 34L170 35L169 34M190 34L191 35L190 34M213 34L214 35L213 34M233.667 34.3333L234.333 34.6667L233.667 34.3333M168 35L169 36L168 35M188 35L189 36L188 35M215 35L216 36L215 35M235 35L238 37L235 35M166 36L167 37L166 36M186 36L187 37L186 36M217 36L218 37L217 36M164 37L165 38L164 37M185 37L186 38L185 37M218.667 37.3333L219.333 37.6667L218.667 37.3333M238.667 37.3333L239.333 37.6667L238.667 37.3333M162 38L163 39L162 38M183 38L184 39L183 38M220.667 38.3333L221.333 38.6667L220.667 38.3333M240.667 38.3333L241.333 38.6667L240.667 38.3333M161 39L162 40L161 39M181 39L182 40L181 39M222 39L223 40L222 39M242 39L243 40L242 39M159 40L160 41L159 40M180 40L181 41L180 40M224 40L225 41L224 40M244 40L245 41L244 40M157 41L158 42L157 41M178 41L179 42L178 41M225 41L226 42L225 41M245.667 41.3333L246.333 41.6667L245.667 41.3333M156 42L157 43L156 42M176 42L177 43L176 42z"/>
<path style="fill:#2edd91; stroke:none;" d="M197 42.8179C185.329 46.9476 173.783 55.4698 163 61.5756C143.059 72.8665 123.012 83.9754 103 95.1396C95.6427 99.244 88.3268 103.416 81 107.576C78.8512 108.796 74.3465 110.317 73.9213 113.17C73.4548 116.299 77.8756 118.304 80.0008 119.6C87.2692 124.029 94.6387 128.303 102 132.576C126.715 146.92 151.218 161.624 176 175.85C184.175 180.544 194.96 190.599 205 187.031C216.437 182.966 227.601 174.24 238 168C258.277 155.833 278.714 143.947 299 131.8C306.308 127.424 313.7 123.192 321 118.8C323.165 117.498 327.654 115.709 328.079 112.833C328.548 109.657 324.186 107.912 321.999 106.745C314.623 102.811 307.349 98.6755 300 94.6913C275.605 81.4663 251.159 68.2258 227 54.5756C219.22 50.1797 206.37 39.5024 197 42.8179z"/>
<path style="fill:#ab62d4; stroke:none;" d="M227 42L228 43L227 42M247 42L250 44L247 42M154 43L155 44L154 43M174 43L175 44L174 43M206 43L207 44L206 43M229 43L230 44L229 43M152 44L153 45L152 44M173 44L174 45L173 44M231 44L232 45L231 44M250.667 44.3333L251.333 44.6667L250.667 44.3333M171 45L172 46L171 45M232.667 45.3333L233.333 45.6667L232.667 45.3333M252.667 45.3333L253.333 45.6667L252.667 45.3333M149 46L150 47L149 46M169 46L170 47L169 46M190 46L191 47L190 46M234 46L235 47L234 46M254 46L255 47L254 46M147 47L148 48L147 47M236 47L237 48L236 47M255.667 47.3333L256.333 47.6667L255.667 47.3333M145 48L146 49L145 48M166 48L167 49L166 48M237.667 48.3333L238.333 48.6667L237.667 48.3333M257.667 48.3333L258.333 48.6667L257.667 48.3333M143.667 49.3333L144.333 49.6667L143.667 49.3333M164 49L165 50L164 49M239.667 49.3333L240.333 49.6667L239.667 49.3333M259 49L262 51L259 49M142 50L143 51L142 50M162 50L163 51L162 50M241 50L242 51L241 50M140 51L141 52L140 51M160 51L161 52L160 51M181 51L182 52L181 51M243 51L244 52L243 51M262.667 51.3333L263.333 51.6667L262.667 51.3333M159 52L160 53L159 52M244.667 52.3333L245.333 52.6667L244.667 52.3333M264.667 52.3333L265.333 52.6667L264.667 52.3333M137 53L138 54L137 53M157 53L158 54L157 53M246.667 53.3333L247.333 53.6667L246.667 53.3333M266 53L267 54L266 53M135 54L136 55L135 54M155 54L156 55L155 54M248.667 54.3333L249.333 54.6667L248.667 54.3333M267.667 54.3333L268.333 54.6667L267.667 54.3333M133 55L134 56L133 55M154 55L155 56L154 55M250 55L250 56L257 59L257 58L250 55M269 55L269 56L274 58L274 57L269 55M131 56L132 57L131 56M152 56L153 57L152 56M130 57L131 58L130 57M150 57L151 58L150 57M128 58L129 59L128 58M148 58L149 59L148 58M274.667 58.3333L275.333 58.6667L274.667 58.3333M126 59L127 60L126 59M147 59L148 60L147 59M235 59L236 60L235 59M257 59L258 60L257 59M276 59C279.679 65.0149 287.095 65.4644 286 74L290 74L290 75L276 70L276 71C292.547 80.7586 309.3 90.219 326 99.7191C332.481 103.406 343.721 107.583 348.397 113.39C350.834 116.417 350 121.378 350 125L350 152L350 249C350 257.332 353.731 277.984 348.397 284.61C341.545 293.12 324.508 299.041 315 304.424C288.601 319.372 261.874 334.164 236 350L236 351L286 325L286 326L283 327L282 331L288 329L288 330L284 334C269.942 337.224 254.357 350.436 242 358L242 359C271.178 346.427 298.395 326.456 326 310.719C334.604 305.814 353.669 298.961 358.972 290.61C364.004 282.687 360 261.355 360 252L360 149L360 120C360 116.321 361.035 110.639 358.972 107.39C355.185 101.425 343.057 97.0514 337 93.5787C317.853 82.6017 297.001 65.6482 276 59M125 60L126 61L125 60M145 60L146 61L145 60M258.667 60.3333L259.333 60.6667L258.667 60.3333M123 61L124 62L123 61M143 61L144 62L143 61M260.667 61.3333L261.333 61.6667L260.667 61.3333M121 62L122 63L121 62M141 62L142 63L141 62M262.667 62.3333L263.333 62.6667L262.667 62.3333M274 62L275 63L274 62M140 63L141 64L140 63M264 63L267 65L264 63M276 63L277 64L276 63M118 64L119 65L118 64M138 64L139 65L138 64M116 65L117 66L116 65M136 65L137 66L136 65M246 65L247 66L246 65M267.667 65.3333L268.333 65.6667L267.667 65.3333M279 65L280 66L279 65M114 66L115 67L114 66M135 66L136 67L135 66M248 66L249 67L248 66M269.667 66.3333L270.333 66.6667L269.667 66.3333M277 66L278 67L277 66M112.667 67.3333L113.333 67.6667L112.667 67.3333M133 67L134 68L133 67M271 67L274 69L271 67z"/>
<path style="fill:#c4c19b; stroke:none;" d="M288 67L289 68L288 67z"/>
<path style="fill:#ab62d4; stroke:none;" d="M111 68L112 69L111 68M131 68L132 69L131 68M109 69L110 70L109 69M274.667 69.3333L275.333 69.6667L274.667 69.3333z"/>
<path style="fill:#c4c19b; stroke:none;" d="M288 69L288 70L292 70L292 69L288 69z"/>
<path style="fill:#ab62d4; stroke:none;" d="M107 70L108 71L107 70M128 70L129 71L128 70M105 71L106 72L105 71M126 71L127 72L126 71M283.667 71.3333L284.333 71.6667L283.667 71.3333M104 72L105 73L104 72M124 72L125 73L124 72z"/>
<path style="fill:#c4c19b; stroke:none;" d="M288 72L289 73L288 72z"/>
<path style="fill:#ab62d4; stroke:none;" d="M102 73L103 74L102 73M122 73L123 74L122 73M100 74L101 75L100 74M121 74L122 75L121 74M119 75L120 76L119 75M97 76L98 77L97 76M117 76L118 77L117 76M266 76L267 77L266 76M95 77L96 78L95 77M93 78L94 79L93 78M114 78L115 79L114 78M92 79L93 80L92 79M112 79L113 80L112 79M90 80L91 81L90 80M110 80L111 81L110 80M88 81L89 82L88 81z"/>
<path style="fill:#2edd91; stroke:none;" d="M89 81L90 82L89 81z"/>
<path style="fill:#ab62d4; stroke:none;" d="M109 81L110 82L109 81M107 82L108 83L107 82M85 83L86 84L85 83M105 83L106 84L105 83M83 84L84 85L83 84M103 84L104 85L103 84M81 85L82 86L81 85z"/>
<path style="fill:#2edd91; stroke:none;" d="M82 85L83 86L82 85M80 86L77 88L68 93L68 94L71 95L61 97L47 105L48 109C43.2675 111.61 44.0003 116.098 44 121L44 153L44 289L49 294L50 294L49 292L50 292L51 295L57 295L56 298L64 297L63 302L69 300L65 302L65 303L76 306L75 309L80 309C81.3235 313.747 89.577 315.858 94 315L94 314L83 308L83 307L88 304L80 301L83 302L83 301L79 299L79 302L73 295L71 294L67 294L68 292C64.7133 291.402 60.5235 291.147 60 295L57 292L61 288L59 287L54 287L54 282L53 282L53 284L52 284L52 278L53 278L53 280L54 280L54 274L52 275L52 271L54 272L54 159L54 127L54.6026 113.213L60 107L63 108L69 105L68 102L70 104L71 104L73 103L71 101L76 101L76 97L79 98C80.8486 95.783 85.3568 92.7495 83 90L83 89L88 85L80 86z"/>
<path style="fill:#ab62d4; stroke:none;" d="M102 85L103 86L102 85M100 86L101 87L100 86M78 87L79 88L78 87z"/>
<path style="fill:#c4c19b; stroke:none;" d="M79 87L80 88L79 87z"/>
<path style="fill:#2edd91; stroke:none;" d="M88 87L87 89L89 89L88 87z"/>
<path style="fill:#ab62d4; stroke:none;" d="M98 87L99 88L98 87M76 88L77 89L76 88M97 88L98 89L97 88M74 89L72 90L72 91L74 89z"/>
<path style="fill:#2edd91; stroke:none;" d="M75 89L76 90L75 89z"/>
<path style="fill:#c4c19b; stroke:none;" d="M73 91L73 92L78 89L73 91z"/>
<path style="fill:#2edd91; stroke:none;" d="M94 89L95 90L94 89z"/>
<path style="fill:#ab62d4; stroke:none;" d="M95 89L96 90L95 89M113 89L114 90L113 89z"/>
<path style="fill:#2edd91; stroke:none;" d="M88 90L89 91L88 90z"/>
<path style="fill:#ab62d4; stroke:none;" d="M93 90L94 91L93 90z"/>
<path style="fill:#2edd91; stroke:none;" d="M91 91L92 92L91 91z"/>
<path style="fill:#ab62d4; stroke:none;" d="M69 92L70 93L69 92z"/>
<path style="fill:#c4c19b; stroke:none;" d="M77 92L78 93L77 92z"/>
<path style="fill:#ab62d4; stroke:none;" d="M90 92L91 93L90 92M88 93L89 94L88 93M297 93L298 94L297 93M66 94L67 95L66 94z"/>
<path style="fill:#c4c19b; stroke:none;" d="M66 95L66 96L71 95L66 95z"/>
<path style="fill:#ab62d4; stroke:none;" d="M86 94L87 95L86 94M64 95L65 96L64 95z"/>
<path style="fill:#2edd91; stroke:none;" d="M83 95L84 96L83 95z"/>
<path style="fill:#ab62d4; stroke:none;" d="M84 95L85 96L84 95M62 96L63 97L62 96M82 96L83 97L82 96z"/>
<path style="fill:#c4c19b; stroke:none;" d="M62 97L63 98L62 97z"/>
<path style="fill:#ab62d4; stroke:none;" d="M80 97L81 98L80 97M59 98L60 99L59 98z"/>
<path style="fill:#c4c19b; stroke:none;" d="M60.6667 98.3333L61.3333 98.6667L60.6667 98.3333M63 98L64 99L63 98z"/>
<path style="fill:#ab62d4; stroke:none;" d="M57 99L58 100L57 99z"/>
<path style="fill:#c4c19b; stroke:none;" d="M58 99L59 100L58 99M70.6667 99.3333L71.3333 99.6667L70.6667 99.3333z"/>
<path style="fill:#ab62d4; stroke:none;" d="M77 99L78 100L77 99M55 100L56 101L55 100z"/>
<path style="fill:#c4c19b; stroke:none;" d="M71 101L71 102L75 101L71 101z"/>
<path style="fill:#ab62d4; stroke:none;" d="M74 101L75 102L74 101M52 102L53 103L52 102z"/>
<path style="fill:#c4c19b; stroke:none;" d="M68 102L68 104L70 104L70 102L68 102z"/>
<path style="fill:#ab62d4; stroke:none;" d="M50 103L51 104L50 103M71 103L72 104L71 103M88 103L89 104L88 103M48 104L49 105L48 104z"/>
<path style="fill:#c4c19b; stroke:none;" d="M65 104L63 108L67 105L65 104z"/>
<path style="fill:#ab62d4; stroke:none;" d="M69 104L70 105L69 104M317 104L318 105L317 104M67 105L68 106L67 105M45 106L44 108L45 106z"/>
<path style="fill:#c4c19b; stroke:none;" d="M44 111L48 106L44 111z"/>
<path style="fill:#ab62d4; stroke:none;" d="M65 106L66 107L65 106z"/>
<path style="fill:#c4c19b; stroke:none;" d="M53.6667 107.333L54.3333 107.667L53.6667 107.333M60 107L54 113L62 107L60 107z"/>
<path style="fill:#ab62d4; stroke:none;" d="M64 107L65 108L64 107M81 107L82 108L81 107M62 108L63 109L62 108M60 109L61 110L60 109M57 111L58 112L57 111M55 112L56 113L55 112M54 113L55 114L54 113z"/>
<path style="fill:#c4c19b; stroke:none;" d="M51 114L52 115L51 114z"/>
<path style="fill:#ab62d4; stroke:none;" d="M73 115L74 116L73 115M324 116L325 117L324 116z"/>
<path style="fill:#c4c19b; stroke:none;" d="M51 117L51 126L52 126L51 117z"/>
<path style="fill:#ab62d4; stroke:none;" d="M78 118L79 119L78 118M333.956 126.873C323.105 129.903 311.708 139.288 302 144.989C280.775 157.455 259.348 169.596 238 181.85C230.012 186.435 210.679 193.33 208.394 203.015C205.954 213.359 208 226.381 208 237C208 262.99 209 288.957 209 315C209 323.666 208.941 332.334 209.001 341C209.02 343.866 208.734 349.279 213.059 348.688C222.666 347.376 235.662 336.003 244 331L311 290.8C325.072 282.357 336.702 278.652 337.91 261C340.274 226.492 336.526 191.559 338.039 157C338.252 152.142 342.673 124.44 333.956 126.873z"/>
<path style="fill:#c4c19b; stroke:none;" d="M51 127L51 271L52 271L52 170C52 157.794 55.7072 138.218 51 127z"/>
<path style="fill:#ab62d4; stroke:none;" d="M66.6667 128.333L67.3333 128.667L66.6667 128.333z"/>
<path style="fill:#c4c19b; stroke:none;" d="M65 129L65 275L66 275L66 166C66 158.244 62.191 134.414 69 130L65 129z"/>
<path style="fill:#ab62d4; stroke:none;" d="M69 129L70 130L69 129z"/>
<path style="fill:#fcbe32; stroke:none;" d="M66 130L66 235C66 245.872 61.8758 267.327 67.179 276.895C72.1614 285.885 90.3857 291.355 99 296.452C129.503 314.501 162.035 337.007 195 350C197.945 340.037 196 327.369 196 317C196 292.207 195.121 267.698 194.039 243C193.577 232.444 197.958 213.41 192.682 204.104C187.761 195.424 170.386 189.326 162 184.189C141.229 171.465 120.016 159.409 99 147.089C89.1283 141.302 77.5491 131.51 66 130z"/>
<path style="fill:#c4c19b; stroke:none;" d="M70 130L73 132L73 131L70 130z"/>
<path style="fill:#ab62d4; stroke:none;" d="M71 130L72 131L71 130z"/>
<path style="fill:#c4c19b; stroke:none;" d="M73.6667 132.333L74.3333 132.667L73.6667 132.333z"/>
<path style="fill:#ab62d4; stroke:none;" d="M297 132L298 133L297 132z"/>
<path style="fill:#c4c19b; stroke:none;" d="M75 133L76 134L75 133z"/>
<path style="fill:#ab62d4; stroke:none;" d="M76 133L77 134L76 133z"/>
<path style="fill:#c4c19b; stroke:none;" d="M77 134L78 135L77 134M79 135L80 136L79 135z"/>
<path style="fill:#ab62d4; stroke:none;" d="M107 135L108 136L107 135z"/>
<path style="fill:#c4c19b; stroke:none;" d="M81 136L82 137L81 136M82 137L83 138L82 137M84 138L85 139L84 138M86 139L87 140L86 139z"/>
<path style="fill:#ab62d4; stroke:none;" d="M285 139L286 140L285 139M88 140L89 141L88 140z"/>
<path style="fill:#c4c19b; stroke:none;" d="M89 141L90 142L89 141M91 142L92 143L91 142z"/>
<path style="fill:#ab62d4; stroke:none;" d="M119 142L120 143L119 142M280 142L281 143L280 142z"/>
<path style="fill:#c4c19b; stroke:none;" d="M92 143L93 144L92 143z"/>
<path style="fill:#ab62d4; stroke:none;" d="M93 143L94 144L93 143z"/>
<path style="fill:#c4c19b; stroke:none;" d="M96 145L97 146L96 145M97 146L98 147L97 146z"/>
<path style="fill:#ab62d4; stroke:none;" d="M98 146L99 147L98 146z"/>
<path style="fill:#c4c19b; stroke:none;" d="M99 147L100 148L99 147M101 148L102 149L101 148z"/>
<path style="fill:#ab62d4; stroke:none;" d="M270 148L271 149L270 148z"/>
<path style="fill:#c4c19b; stroke:none;" d="M103 149L104 150L103 149z"/>
<path style="fill:#ab62d4; stroke:none;" d="M105 150L106 151L105 150z"/>
<path style="fill:#c4c19b; stroke:none;" d="M106 151L107 152L106 151M108 152L109 153L108 152z"/>
<path style="fill:#ab62d4; stroke:none;" d="M136 152L137 153L136 152z"/>
<path style="fill:#c4c19b; stroke:none;" d="M109 153L110 154L109 153z"/>
<path style="fill:#ab62d4; stroke:none;" d="M110 153L111 154L110 153z"/>
<path style="fill:#c4c19b; stroke:none;" d="M111 154L112 155L111 154M113 155L114 156L113 155z"/>
<path style="fill:#ab62d4; stroke:none;" d="M258 155L259 156L258 155M115 156L116 157L115 156M143 156L144 157L143 156z"/>
<path style="fill:#c4c19b; stroke:none;" d="M116 157L117 158L116 157z"/>
<path style="fill:#ab62d4; stroke:none;" d="M117 157L118 158L117 157z"/>
<path style="fill:#c4c19b; stroke:none;" d="M118 158L119 159L118 158z"/>
<path style="fill:#ab62d4; stroke:none;" d="M253 158L254 159L253 158M120 159L121 160L120 159M122 160L123 161L122 160z"/>
<path style="fill:#c4c19b; stroke:none;" d="M123 161L124 162L123 161M124.667 162.333L125.333 162.667L124.667 162.333M126 163L127 164L126 163z"/>
<path style="fill:#ab62d4; stroke:none;" d="M127 163L128 164L127 163z"/>
<path style="fill:#c4c19b; stroke:none;" d="M128 164L129 165L128 164M130 165L131 166L130 165M131 166L132 167L131 166z"/>
<path style="fill:#ab62d4; stroke:none;" d="M132 166L133 167L132 166z"/>
<path style="fill:#c4c19b; stroke:none;" d="M133 167L134 168L133 167M135 168L136 169L135 168z"/>
<path style="fill:#ab62d4; stroke:none;" d="M137 169L138 170L137 169M165 169L166 170L165 169M139 170L140 171L139 170z"/>
<path style="fill:#c4c19b; stroke:none;" d="M140 171L141 172L140 171M142 172L143 173L142 172M143 173L144 174L143 173z"/>
<path style="fill:#ab62d4; stroke:none;" d="M144 173L145 174L144 173z"/>
<path style="fill:#c4c19b; stroke:none;" d="M145 174L146 175L145 174M147 175L148 176L147 175M148 176L149 177L148 176z"/>
<path style="fill:#ab62d4; stroke:none;" d="M149 176L150 177L149 176M177 176L178 177L177 176z"/>
<path style="fill:#c4c19b; stroke:none;" d="M150 177L151 178L150 177M152 178L153 179L152 178z"/>
<path style="fill:#ab62d4; stroke:none;" d="M154 179L155 180L154 179M182 179L183 180L182 179z"/>
<path style="fill:#c4c19b; stroke:none;" d="M157 181L158 182L157 181M159 182L160 183L159 182M160 183L161 184L160 183z"/>
<path style="fill:#ab62d4; stroke:none;" d="M161 183L162 184L161 183z"/>
<path style="fill:#c4c19b; stroke:none;" d="M162 184L163 185L162 184M164 185L165 186L164 185M165 186L166 187L165 186z"/>
<path style="fill:#ab62d4; stroke:none;" d="M166 186L167 187L166 186z"/>
<path style="fill:#c4c19b; stroke:none;" d="M167 187L168 188L167 187z"/>
<path style="fill:#ab62d4; stroke:none;" d="M204 187L205 188L204 187z"/>
<path style="fill:#c4c19b; stroke:none;" d="M169 188L170 189L169 188z"/>
<path style="fill:#ab62d4; stroke:none;" d="M200 188L201 189L200 188z"/>
<path style="fill:#c4c19b; stroke:none;" d="M170.667 189.333L171.333 189.667L170.667 189.333M172 190L173 191L172 190M173.667 191.333L174.333 191.667L173.667 191.333z"/>
<path style="fill:#ab62d4; stroke:none;" d="M176 192L177 193L176 192z"/>
<path style="fill:#c4c19b; stroke:none;" d="M177 193L178 194L177 193z"/>
<path style="fill:#ab62d4; stroke:none;" d="M178 193L179 194L178 193z"/>
<path style="fill:#c4c19b; stroke:none;" d="M179 194L180 195L179 194M180.667 195.333L181.333 195.667L180.667 195.333M182 196L183 197L182 196z"/>
<path style="fill:#ab62d4; stroke:none;" d="M183 196L184 197L183 196z"/>
<path style="fill:#c4c19b; stroke:none;" d="M184 197L185 198L184 197M186 198L187 199L186 198M187 199L188 200L187 199z"/>
<path style="fill:#ab62d4; stroke:none;" d="M188 199L189 200L188 199z"/>
<path style="fill:#c4c19b; stroke:none;" d="M189 200L190 201L189 200z"/>
<path style="fill:#ab62d4; stroke:none;" d="M190 200L191 201L190 200z"/>
<path style="fill:#c4c19b; stroke:none;" d="M191 201L192 202L191 201M192.333 202.667L192.667 203.333L192.333 202.667M193 204L194 205L193 204M194 206L194 248L195 248C195 236.043 198.611 216.988 194 206z"/>
<path style="fill:#ab62d4; stroke:none;" d="M195 253L195 265L196 265L195 253z"/>
<path style="fill:#c4c19b; stroke:none;" d="M195 265L195 270L196 270L195 265M52 271L52 275L53 275L52 271z"/>
<path style="fill:#ab62d4; stroke:none;" d="M65 275L66 276L65 275z"/>
<path style="fill:#c4c19b; stroke:none;" d="M66 276L67 277L66 276z"/>
<path style="fill:#ab62d4; stroke:none;" d="M66 277L67 278L66 277z"/>
<path style="fill:#c4c19b; stroke:none;" d="M52 278L52 284L53 284L52 278M67 278L68 279L67 278M68 279L69 280L68 279M70 280L71 281L70 280z"/>
<path style="fill:#ab62d4; stroke:none;" d="M71 281L72 282L71 281z"/>
<path style="fill:#c4c19b; stroke:none;" d="M72 281L73 282L72 281z"/>
<path style="fill:#ab62d4; stroke:none;" d="M73 282L74 283L73 282z"/>
<path style="fill:#c4c19b; stroke:none;" d="M74 282L75 283L74 282M75 283L76 284L75 283z"/>
<path style="fill:#ab62d4; stroke:none;" d="M54 284L55 285L54 284z"/>
<path style="fill:#c4c19b; stroke:none;" d="M77 284L78 285L77 284z"/>
<path style="fill:#ab62d4; stroke:none;" d="M55 285L56 286L55 285z"/>
<path style="fill:#c4c19b; stroke:none;" d="M79 285L80 286L79 285M54 286L54 287L58 288L54 286z"/>
<path style="fill:#ab62d4; stroke:none;" d="M57 286L58 287L57 286M80 286L81 287L80 286M59 287L60 288L59 287M82 287L83 288L82 287z"/>
<path style="fill:#c4c19b; stroke:none;" d="M45 288L44 289L48 292L45 288M59 288L60 289L59 288M84 288L85 289L84 288M60 289L57 292L60 295L64 292L60 289z"/>
<path style="fill:#ab62d4; stroke:none;" d="M62 289L63 290L62 289z"/>
<path style="fill:#c4c19b; stroke:none;" d="M86 289L87 290L86 289z"/>
<path style="fill:#ab62d4; stroke:none;" d="M44 290L45 291L44 290M64 290L65 291L64 290M87 290L88 291L87 290z"/>
<path style="fill:#c4c19b; stroke:none;" d="M88 290L89 291L88 290z"/>
<path style="fill:#ab62d4; stroke:none;" d="M45 291L46 292L45 291M89 291L90 292L89 291M47 292L48 293L47 292z"/>
<path style="fill:#c4c19b; stroke:none;" d="M49 292L52 294L49 292z"/>
<path style="fill:#ab62d4; stroke:none;" d="M91 292L92 293L91 292M48 293L49 294L48 293z"/>
<path style="fill:#c4c19b; stroke:none;" d="M67 293L67 294L70 295L67 293z"/>
<path style="fill:#ab62d4; stroke:none;" d="M69 293L70 294L69 293z"/>
<path style="fill:#c4c19b; stroke:none;" d="M93 293L94 294L93 293z"/>
<path style="fill:#ab62d4; stroke:none;" d="M50 294L51 295L50 294M71 294L72 295L71 294z"/>
<path style="fill:#c4c19b; stroke:none;" d="M95 294L96 295L95 294z"/>
<path style="fill:#ab62d4; stroke:none;" d="M52 295L53 296L52 295z"/>
<path style="fill:#c4c19b; stroke:none;" d="M55 295L55 297L57 297L57 295L55 295M71 295L72 296L71 295z"/>
<path style="fill:#ab62d4; stroke:none;" d="M96 295L97 296L96 295z"/>
<path style="fill:#c4c19b; stroke:none;" d="M97 295L98 296L97 295z"/>
<path style="fill:#ab62d4; stroke:none;" d="M54 296L55 297L54 296z"/>
<path style="fill:#c4c19b; stroke:none;" d="M73 296L79 302L73 296z"/>
<path style="fill:#ab62d4; stroke:none;" d="M74 296L75 297L74 296M98 296L99 297L98 296z"/>
<path style="fill:#c4c19b; stroke:none;" d="M99 296L100 297L99 296M60 300L64 301L64 297L60 300z"/>
<path style="fill:#ab62d4; stroke:none;" d="M76 297L77 298L76 297z"/>
<path style="fill:#c4c19b; stroke:none;" d="M100 297L101 298L100 297z"/>
<path style="fill:#ab62d4; stroke:none;" d="M57 298L58 299L57 298z"/>
<path style="fill:#2edd91; stroke:none;" d="M77 298L78 299L77 298z"/>
<path style="fill:#ab62d4; stroke:none;" d="M78 298L79 299L78 298z"/>
<path style="fill:#c4c19b; stroke:none;" d="M102 298L103 299L102 298z"/>
<path style="fill:#ab62d4; stroke:none;" d="M59 299L60 300L59 299M103 299L104 300L103 299z"/>
<path style="fill:#2edd91; stroke:none;" d="M61 300L62 301L61 300z"/>
<path style="fill:#c4c19b; stroke:none;" d="M64 301L64 302L69 300L64 301M105 300L106 301L105 300M80 301L86 304L86 303L80 301z"/>
<path style="fill:#ab62d4; stroke:none;" d="M83 301L84 302L83 301z"/>
<path style="fill:#c4c19b; stroke:none;" d="M107 301L108 302L107 301z"/>
<path style="fill:#ab62d4; stroke:none;" d="M64 302L65 303L64 302M86 303L87 304L86 303M88 304L89 305L88 304M112 304L113 305L112 304z"/>
<path style="fill:#c4c19b; stroke:none;" d="M113 304L114 305L113 304z"/>
<path style="fill:#ab62d4; stroke:none;" d="M69 305L70 306L69 305z"/>
<path style="fill:#c4c19b; stroke:none;" d="M71 305L71 306L76 307L71 305M76 305L77 306L76 305M83 307L83 308L94 314L94 315L83 312L83 313C111.558 330.478 140.953 346.768 170 363.421C177.902 367.951 193.71 381.595 203 380.498C210.504 379.613 219.592 371.845 226 368C244.269 357.039 264.074 341.295 284 334L288 330L288 329L282 331L283 327L286 326C279.447 323.647 269.625 332.232 264 335.22C249.48 342.933 235.267 351.255 221 359.421C216 362.283 207.875 369.003 202 369.003C194.683 369.003 184.256 359.84 178 356.281C156.582 344.097 135.174 331.804 114 319.201C104.58 313.593 94.2587 304.953 83 307z"/>
<path style="fill:#2edd91; stroke:none;" d="M89 305L90 306L89 305z"/>
<path style="fill:#ab62d4; stroke:none;" d="M90 305L91 306L90 305z"/>
<path style="fill:#c4c19b; stroke:none;" d="M114 305L115 306L114 305z"/>
<path style="fill:#ab62d4; stroke:none;" d="M71 306L72 307L71 306z"/>
<path style="fill:#2edd91; stroke:none;" d="M91 306L92 307L91 306z"/>
<path style="fill:#c4c19b; stroke:none;" d="M116 306L117 307L116 306z"/>
<path style="fill:#ab62d4; stroke:none;" d="M73 307L74 308L73 307z"/>
<path style="fill:#2edd91; stroke:none;" d="M89 307L89 310L90 310L89 307z"/>
<path style="fill:#ab62d4; stroke:none;" d="M93 307L94 308L93 307z"/>
<path style="fill:#c4c19b; stroke:none;" d="M118 307L119 308L118 307z"/>
<path style="fill:#ab62d4; stroke:none;" d="M74 308L75 309L74 308z"/>
<path style="fill:#2edd91; stroke:none;" d="M94 308L95 309L94 308z"/>
<path style="fill:#ab62d4; stroke:none;" d="M95 308L96 309L95 308M119 308L120 309L119 308z"/>
<path style="fill:#c4c19b; stroke:none;" d="M120 308L121 309L120 308z"/>
<path style="fill:#ab62d4; stroke:none;" d="M76 309L77 310L76 309z"/>
<path style="fill:#c4c19b; stroke:none;" d="M79.3333 309.667L79.6667 310.333L79.3333 309.667z"/>
<path style="fill:#ab62d4; stroke:none;" d="M97 309L98 310L97 309z"/>
<path style="fill:#c4c19b; stroke:none;" d="M121.667 309.333L122.333 309.667L121.667 309.333z"/>
<path style="fill:#ab62d4; stroke:none;" d="M78 310L79 311L78 310z"/>
<path style="fill:#c4c19b; stroke:none;" d="M123 310L124 311L123 310z"/>
<path style="fill:#2edd91; stroke:none;" d="M94 311L95 312L94 311z"/>
<path style="fill:#ab62d4; stroke:none;" d="M100 311L101 312L100 311z"/>
<path style="fill:#c4c19b; stroke:none;" d="M125 311L126 312L125 311z"/>
<path style="fill:#ab62d4; stroke:none;" d="M102 312L103 313L102 312M126 312L127 313L126 312z"/>
<path style="fill:#c4c19b; stroke:none;" d="M127 312L128 313L127 312z"/>
<path style="fill:#ab62d4; stroke:none;" d="M83 313L84 314L83 313M103.667 313.333L104.333 313.667L103.667 313.333M128 313L129 314L128 313M85 314L86 315L85 314M105 314L106 315L105 314z"/>
<path style="fill:#c4c19b; stroke:none;" d="M130.667 314.333L131.333 314.667L130.667 314.333z"/>
<path style="fill:#ab62d4; stroke:none;" d="M196 314L196 334L197 334L196 314M87 315L88 316L87 315M107 315L108 316L107 315z"/>
<path style="fill:#c4c19b; stroke:none;" d="M132 315L133 316L132 315z"/>
<path style="fill:#ab62d4; stroke:none;" d="M88 316L89 317L88 316M109 316L110 317L109 316M133 316L134 317L133 316z"/>
<path style="fill:#c4c19b; stroke:none;" d="M134 316L135 317L134 316z"/>
<path style="fill:#ab62d4; stroke:none;" d="M90 317L91 318L90 317M111 317L112 318L111 317M135 317L136 318L135 317z"/>
<path style="fill:#c4c19b; stroke:none;" d="M136 317L137 318L136 317z"/>
<path style="fill:#ab62d4; stroke:none;" d="M92 318L93 319L92 318M112 318L113 319L112 318z"/>
<path style="fill:#c4c19b; stroke:none;" d="M137.667 318.333L138.333 318.667L137.667 318.333z"/>
<path style="fill:#ab62d4; stroke:none;" d="M94 319L95 320L94 319M114 319L115 320L114 319z"/>
<path style="fill:#c4c19b; stroke:none;" d="M139 319L140 320L139 319z"/>
<path style="fill:#ab62d4; stroke:none;" d="M95 320L96 321L95 320M116 320L117 321L116 320z"/>
<path style="fill:#c4c19b; stroke:none;" d="M141 320L142 321L141 320z"/>
<path style="fill:#ab62d4; stroke:none;" d="M97 321L98 322L97 321M117 321L118 322L117 321M142 321L143 322L142 321z"/>
<path style="fill:#c4c19b; stroke:none;" d="M143 321L144 322L143 321z"/>
<path style="fill:#ab62d4; stroke:none;" d="M99 322L100 323L99 322M119 322L120 323L119 322M144 322L145 323L144 322z"/>
<path style="fill:#c4c19b; stroke:none;" d="M145 322L146 323L145 322M287 322L288 323L287 322z"/>
<path style="fill:#ab62d4; stroke:none;" d="M100 323L101 324L100 323M121 323L122 324L121 323z"/>
<path style="fill:#c4c19b; stroke:none;" d="M146.667 323.333L147.333 323.667L146.667 323.333M285 323L285 324L289 325L289 324L285 323z"/>
<path style="fill:#ab62d4; stroke:none;" d="M102 324L103 325L102 324M123 324L124 325L123 324z"/>
<path style="fill:#c4c19b; stroke:none;" d="M148 324L149 325L148 324z"/>
<path style="fill:#ab62d4; stroke:none;" d="M104 325L105 326L104 325M124 325L125 326L124 325M149 325L150 326L149 325M106 326L107 327L106 326M126 326L127 327L126 326M151 326L152 327L151 326z"/>
<path style="fill:#c4c19b; stroke:none;" d="M152 326L153 327L152 326z"/>
<path style="fill:#ab62d4; stroke:none;" d="M107 327L108 328L107 327M128 327L129 328L128 327z"/>
<path style="fill:#c4c19b; stroke:none;" d="M153 327L154 328L153 327M285 327L286 328L285 327z"/>
<path style="fill:#ab62d4; stroke:none;" d="M109 328L110 329L109 328M129 328L130 329L129 328z"/>
<path style="fill:#c4c19b; stroke:none;" d="M155 328L156 329L155 328M288 328L289 329L288 328z"/>
<path style="fill:#ab62d4; stroke:none;" d="M111 329L112 330L111 329M131 329L132 330L131 329M156 329L157 330L156 329z"/>
<path style="fill:#c4c19b; stroke:none;" d="M157 329L158 330L157 329z"/>
<path style="fill:#ab62d4; stroke:none;" d="M280 329L281 330L280 329M112.667 330.333L113.333 330.667L112.667 330.333M133 330L134 331L133 330M158 330L159 331L158 330z"/>
<path style="fill:#c4c19b; stroke:none;" d="M159 330L160 331L159 330z"/>
<path style="fill:#ab62d4; stroke:none;" d="M114 331L115 332L114 331M135 331L136 332L135 331z"/>
<path style="fill:#c4c19b; stroke:none;" d="M160 331L161 332L160 331z"/>
<path style="fill:#ab62d4; stroke:none;" d="M116 332L117 333L116 332M136 332L137 333L136 332z"/>
<path style="fill:#c4c19b; stroke:none;" d="M162 332L163 333L162 332z"/>
<path style="fill:#ab62d4; stroke:none;" d="M280 332L281 333L280 332z"/>
<path style="fill:#c4c19b; stroke:none;" d="M285 332L286 333L285 332z"/>
<path style="fill:#ab62d4; stroke:none;" d="M118 333L119 334L118 333M138 333L139 334L138 333z"/>
<path style="fill:#c4c19b; stroke:none;" d="M164 333L165 334L164 333z"/>
<path style="fill:#ab62d4; stroke:none;" d="M119.667 334.333L120.333 334.667L119.667 334.333M140 334L141 335L140 334M165 334L166 335L165 334z"/>
<path style="fill:#c4c19b; stroke:none;" d="M166 334L167 335L166 334M196 334L195 350L196 350L196 334z"/>
<path style="fill:#ab62d4; stroke:none;" d="M121 335L122 336L121 335M142 335L143 336L142 335M167 335L168 336L167 335M123 336L124 337L123 336M143 336L144 337L143 336z"/>
<path style="fill:#c4c19b; stroke:none;" d="M169.667 336.333L170.333 336.667L169.667 336.333z"/>
<path style="fill:#ab62d4; stroke:none;" d="M125 337L126 338L125 337M145 337L146 338L145 337z"/>
<path style="fill:#c4c19b; stroke:none;" d="M171 337L172 338L171 337z"/>
<path style="fill:#ab62d4; stroke:none;" d="M126 338L127 339L126 338M147 338L148 339L147 338M172 338L173 339L172 338z"/>
<path style="fill:#c4c19b; stroke:none;" d="M173 338L174 339L173 338z"/>
<path style="fill:#ab62d4; stroke:none;" d="M128 339L129 340L128 339M149 339L150 340L149 339M174 339L175 340L174 339z"/>
<path style="fill:#c4c19b; stroke:none;" d="M175 339L176 340L175 339z"/>
<path style="fill:#ab62d4; stroke:none;" d="M130 340L131 341L130 340M150 340L151 341L150 340z"/>
<path style="fill:#c4c19b; stroke:none;" d="M176 340L177 341L176 340z"/>
<path style="fill:#ab62d4; stroke:none;" d="M131 341L132 342L131 341M152 341L153 342L152 341z"/>
<path style="fill:#c4c19b; stroke:none;" d="M178 341L179 342L178 341z"/>
<path style="fill:#ab62d4; stroke:none;" d="M133 342L134 343L133 342M154 342L155 343L154 342z"/>
<path style="fill:#c4c19b; stroke:none;" d="M180 342L181 343L180 342z"/>
<path style="fill:#ab62d4; stroke:none;" d="M135 343L136 344L135 343M155 343L156 344L155 343M181 343L182 344L181 343M137 344L138 345L137 344M157 344L158 345L157 344M183 344L184 345L183 344z"/>
<path style="fill:#c4c19b; stroke:none;" d="M184 344L185 345L184 344z"/>
<path style="fill:#ab62d4; stroke:none;" d="M138 345L139 346L138 345M159 345L160 346L159 345z"/>
<path style="fill:#c4c19b; stroke:none;" d="M185 345L186 346L185 345z"/>
<path style="fill:#ab62d4; stroke:none;" d="M140 346L141 347L140 346M161 346L162 347L161 346z"/>
<path style="fill:#c4c19b; stroke:none;" d="M187 346L188 347L187 346z"/>
<path style="fill:#ab62d4; stroke:none;" d="M142 347L143 348L142 347M162 347L163 348L162 347M188 347L189 348L188 347M143.667 348.333L144.333 348.667L143.667 348.333M164 348L165 349L164 348M190 348L191 349L190 348z"/>
<path style="fill:#c4c19b; stroke:none;" d="M191 348L192 349L191 348z"/>
<path style="fill:#ab62d4; stroke:none;" d="M145 349L146 350L145 349M166 349L167 350L166 349z"/>
<path style="fill:#c4c19b; stroke:none;" d="M192.667 349.333L193.333 349.667L192.667 349.333z"/>
<path style="fill:#ab62d4; stroke:none;" d="M196 349L197 350L196 349M147 350L148 351L147 350M194 350L195 351L194 350M149 351L150 352L149 351M169 351L170 352L169 351M234 351L235 352L234 351M150.667 352.333L151.333 352.667L150.667 352.333M171 352L172 353L171 352M232.667 352.333L233.333 352.667L232.667 352.333M152 353L153 354L152 353M173 353L174 354L173 353M154 354L155 355L154 354M174.667 354.333L175.333 354.667L174.667 354.333M229 354L230 355L229 354M156 355L157 356L156 355M176 355L177 356L176 355M227 355L228 356L227 355M158 356L159 357L158 356M178 356L179 357L178 356M225.667 356.333L226.333 356.667L225.667 356.333M159 357L160 358L159 357M180 357L181 358L180 357M224 357L225 358L224 357M161 358L162 359L161 358M181 358L182 359L181 358M222 358L223 359L222 358M163 359L164 360L163 359M183 359L184 360L183 359M220 359L221 360L220 359M240 359L241 360L240 359M164 360L165 361L164 360M185 360L186 361L185 360M218.667 360.333L219.333 360.667L218.667 360.333M238.667 360.333L239.333 360.667L238.667 360.333M166 361L167 362L166 361M187 361L188 362L187 361M216.667 361.333L217.333 361.667L216.667 361.333M236.667 361.333L237.333 361.667L236.667 361.333M168 362L169 363L168 362M188 362L189 363L188 362M215 362L216 363L215 362M235 362L236 363L235 362M169.667 363.333L170.333 363.667L169.667 363.333M190 363L191 364L190 363M213 363L214 364L213 363M233.667 363.333L234.333 363.667L233.667 363.333M171 364L172 365L171 364M192 364L193 365L192 364M211 364L212 365L211 364z"/>
<path style="fill:#fcbe32; stroke:none;" d="M220 364L221 365L220 364z"/>
<path style="fill:#ab62d4; stroke:none;" d="M231.667 364.333L232.333 364.667L231.667 364.333M173 365L174 366L173 365M193.667 365.333L194.333 365.667L193.667 365.333M210 365L211 366L210 365z"/>
<path style="fill:#fcbe32; stroke:none;" d="M207 369L196 372C198.373 385.836 216.794 372.727 219 365L207 369z"/>
<path style="fill:#ab62d4; stroke:none;" d="M230 365L231 366L230 365M175 366L176 367L175 366M195 366L196 367L195 366M208 366L209 367L208 366M228 366L229 367L228 366M176.667 367.333L177.333 367.667L176.667 367.333M197 367L198 368L197 367M206 367L207 368L206 367M226.667 367.333L227.333 367.667L226.667 367.333M178 368L179 369L178 368M199 368L200 369L199 368M204 368L205 369L204 368M225 368L226 369L225 368M180 369L181 370L180 369z"/>
<path style="fill:#fcbe32; stroke:none;" d="M194 369L195 370L194 369z"/>
<path style="fill:#ab62d4; stroke:none;" d="M200.667 369.333L201.333 369.667L200.667 369.333M203 369L204 370L203 369M223 369L224 370L223 369M182 370L183 371L182 370M221.667 370.333L222.333 370.667L221.667 370.333M183 371L184 372L183 371M220 371L221 372L220 371M185 372L186 373L185 372M218 372L219 373L218 372M187 373L188 374L187 373M216 373L217 374L216 373M189 374L190 375L189 374M214.667 374.333L215.333 374.667L214.667 374.333M190 375L191 376L190 375M213 375L214 376L213 375M192 376L193 377L192 376M211 376L212 377L211 376M194 377L195 378L194 377M209 377L210 378L209 377M195.667 378.333L196.333 378.667L195.667 378.333M208 378L209 379L208 378M197 379L198 380L197 379M206 379L207 380L206 379M199 380L200 381L199 380M204 380L205 381L204 380M201 381L201 382L204 382L201 381z"/>
</svg>
