<?xml version="1.0" standalone="yes"?>
<svg xmlns="http://www.w3.org/2000/svg" width="354" height="354">
<path style="fill:#ffffff; stroke:none;" d="M0 0L0 170L1 170C1 81.6732 81.7086 1 170 1C156.879 -4.50571 133.3 0 119 0L0 0z"/>
<path style="fill:#37a99f; stroke:none;" d="M2 154L3 154L6 150L5 153L16 153L24 151L25 151L31 154C36.9064 128.174 46.8719 103.333 64.3002 83C119.954 18.0693 219.779 12.1186 280.83 73.1698C303.58 95.9195 315.134 123.454 323 154L324 154L331 153L330 151L332 153L333 153L334 150L334 153L339 151L347 151L346 154L352 152C336.462 29.6953 195.548 -36.0278 90 22.8619C40.0431 50.7349 11.4931 98.9783 2 154z"/>
<path style="fill:#ffffff; stroke:none;" d="M184 0L184 1C270.115 1 352.99 79.7526 353 167L354 167L354 0L184 0M163 30.4244C138.461 33.6858 115.721 40.7697 95 54.6705C79.1438 65.3076 65.302 79.1521 54.6705 95C44.7071 109.852 37.3371 126.518 33.4252 144C11.0166 244.143 97.6828 337.079 199 322.715C219.163 319.856 238.761 312.328 256 301.575C344.131 246.601 345.639 114.597 261 55.885C246.538 45.853 230.105 38.3047 213 34.1296C197.117 30.2529 179.295 28.2586 163 30.4244z"/>
<path style="fill:#37a99f; stroke:none;" d="M215 90.4676C188.843 95.3704 196.773 135.27 223 130.671C248.783 126.15 240.884 85.6161 215 90.4676M199 185C193.06 175.911 183.082 169.27 175 162.155C164.966 153.323 151.665 136.725 138 134.329C122.595 131.628 107.133 148.863 115.028 163.961C127.653 188.106 153.828 184.849 176.255 184.742C183.344 184.709 192.218 186.547 199 185M213 134C205.915 140.488 200.095 143.385 200 154L239 172C239 158.509 242.008 140.9 226.039 135.184C221.811 133.67 217.358 134.489 213 134z"/>
<path style="fill:#396798; stroke:none;" d="M214 134L214 135L217 135L214 134M222 134L223 135L222 134z"/>
<path style="fill:#818181; stroke:none;" d="M224 134L225 135L224 134z"/>
<path style="fill:#396798; stroke:none;" d="M210 135L210 136L213 136L210 135M208.667 136.333L209.333 136.667L208.667 136.333M207 137L208 138L207 137M230 137L231 138L230 137M206 138L207 139L206 138M204 139L204 141L206 139L204 139M319 139L320 140L319 139M203 141L204 142L203 141M202 142L203 143L202 142M33 143L34 144L33 143M201.333 143.667L201.667 144.333L201.333 143.667M320 143L321 144L320 143M3 144L4 145L3 144M200.333 145.667L200.667 146.333L200.333 145.667z"/>
<path style="fill:#818181; stroke:none;" d="M237 145L238 146L237 145z"/>
<path style="fill:#396798; stroke:none;" d="M199 147C198.135 157.958 194.812 174.718 199 185L155 184.523L139 183.816L114 164L114 214C114 221.593 112.489 231.011 116 237.999C123.325 252.578 145.042 252.305 152.558 238C157.975 227.689 155 211.328 155 200C167.668 211.668 181.118 222.514 194 233.95C202.677 241.653 210.452 249.705 223 247.787C241.685 244.931 239 223.782 239 210C239 200.314 242.552 182.133 238.397 173.394C236.88 170.203 231.896 169.191 229 167.681C220.29 163.138 209.951 154.599 200 154L199 147M321 147L322 148L321 147M32 148L33 149L32 148M2.33333 149.667L2.66667 150.333L2.33333 149.667M5 150C-2.87411 160.111 0.420746 178.107 0.960648 190C2.89689 232.652 23.1802 275.032 54.0895 304.285C122.623 369.148 235.829 370.82 302.91 301.961C319.352 285.083 332.434 264.848 341.2 243C351.702 216.826 360.479 178.642 351 151L346 154L347 151L339 151L334 153L334 150L333 153L332 153L330 151L331 153L330 153C320.052 146.579 324 172.193 324 177C324 215.777 308.248 254.924 279.985 281.91C209.839 348.89 95.3312 332.08 47.8619 247C30.7245 216.284 29.3144 185.03 32 151L31 151L31 154L25 151L24 151L16 153C11.771 151.211 9.11792 150.816 5 153L5 150M26 150L27 151L26 150M29 150L30 151L29 150M22 151L23 152L22 151M322 151L322 154L323 154L322 151M337 151L338 152L337 151M341 151L342 152L341 151M2 152L3 153L2 152z"/>
<path style="fill:#37a99f; stroke:none;" d="M10.6667 152.333L11.3333 152.667L10.6667 152.333M7 153L8 154L7 153M18 153L19 154L18 153M351 153L352 154L351 153z"/>
<path style="fill:#396798; stroke:none;" d="M196 181L197 182L196 181z"/>
<path style="fill:#ffffff; stroke:none;" d="M0 185L0 354L168 354L168 353C102.072 353 40.8476 305.783 14.8619 247C9.40085 234.647 5.3253 221.317 3.08102 208C1.89078 200.938 2.70079 191.436 0 185M353 187C352.991 272.135 272.088 352.991 187 353L187 354L354 354L354 237C354 222.962 358.406 199.883 353 187z"/>
<path style="fill:#01ffff; stroke:none;" d="M117 240L118 241L117 240z"/>
</svg>
