<?xml version="1.0" standalone="yes"?>
<svg xmlns="http://www.w3.org/2000/svg" width="400" height="400">
<path style="fill:#010202; stroke:none;" d="M0 0L0 400L400 400L400 0L0 0z"/>
<path style="fill:#285f65; stroke:none;" d="M103 83L104 84L103 83z"/>
<path style="fill:#5897a0; stroke:none;" d="M104 83L104 84L208 84L176 83L104 83z"/>
<path style="fill:#285f65; stroke:none;" d="M208 83L208 84L224 84L224 263L236 263L236 262L225 262L225 127L225 95L223.397 84.0278L208 83M238 83L238 84L259 85C253.881 81.1216 244.237 83 238 83M272 83L272 84L292 84L272 83z"/>
<path style="fill:#88f7ed; stroke:none;" d="M103 84L103 316L121.397 314.972L122.92 301.83L123 264L123 103L176 103L205 102L205 101L192 101L190 96C192.766 94.0541 190.034 88.6469 187 88L187 87L197 87L197 86L189 86L189 85L201 85L171 84L103 84z"/>
<path style="fill:#5cdff7; stroke:none;" d="M189 85L189 86L197 86L197 87L187 87L187 88L190 88L190 96L192 101L205 101L205 102L203 103C209.115 111.071 204.777 129.295 205.015 139C205.822 171.94 207 205.022 207 238L207 269C207 272.201 206.01 277.545 208.603 279.991C211.97 283.165 218.791 282 223 282L258 282L258 84L239 84L239 263L224 264L224 84L189 85z"/>
<path style="fill:#5897a0; stroke:none;" d="M238 84L238 263L239 263L239 137L239 101L238 84M272 84L272 296L273 296L273 147L273 104L272 84z"/>
<path style="fill:#5cdff7; stroke:none;" d="M273 84L273 242L273 281C273 284.88 274.407 292.386 271.397 295.397C267.655 299.138 255.932 297 251 297C233.488 297 215.914 296.107 199 301L199 302L204 302L204 303L200 303L200 304L205 309L202 310C205.177 315.817 213.941 315.924 220 315.996C236.995 316.198 254.004 316 271 316C275.607 316 290.022 318.445 291.682 312.852C293.649 306.226 292 296.898 292 290L292 242L292 84L273 84z"/>
<path style="fill:#285f65; stroke:none;" d="M258 86L259 87L258 86z"/>
<path style="fill:#88f7ed; stroke:none;" d="M193 97L194 98L193 97M200 97L201 98L200 97M202 99L203 100L202 99M200 100L201 101L200 100z"/>
<path style="fill:#285f65; stroke:none;" d="M123 103L123 104L202 104L177 103L123 103M203 103C207.383 121.412 204 144.082 204 163L204 283L205 283L205 151L205 118L203 103z"/>
<path style="fill:#5897a0; stroke:none;" d="M204 103L205 104L204 103z"/>
<path style="fill:#88f7ed; stroke:none;" d="M206 103L206 106L207 106L206 103z"/>
<path style="fill:#5897a0; stroke:none;" d="M137 117L138 118L137 117z"/>
<path style="fill:#88f7ed; stroke:none;" d="M137 316L156 316L156 137L171 136L171 282L190 282L190 118L153 117.961L138.564 118.052L137 131L137 167L137 316z"/>
<path style="fill:#5cdff7; stroke:none;" d="M142 117L143 118L142 117M148 117L148 118L189 118C178.25 113.489 159.696 117 148 117z"/>
<path style="fill:#5897a0; stroke:none;" d="M189 117C192.116 130.087 190 145.576 190 159L190 242L190 271C190 275.206 190.829 279.518 187 282L187 283C194.897 280.379 191 253.491 191 246L191 152C191 143.003 194.499 124.259 189 117z"/>
<path style="fill:#285f65; stroke:none;" d="M190 117L191 118L190 117z"/>
<path style="fill:#88f7ed; stroke:none;" d="M205 120L205 128L206 128L205 120z"/>
<path style="fill:#5cdff7; stroke:none;" d="M185 121L185 125L186 125L185 121M170 136L171 137L170 136z"/>
<path style="fill:#5897a0; stroke:none;" d="M156 137L157 138L156 137z"/>
<path style="fill:#285f65; stroke:none;" d="M157.667 137.333L158.333 137.667L157.667 137.333M162 137L162 138L167 138L162 137M168 137L168 138C173.947 145.849 170 167.226 170 177L170 283L171 283L171 137L168 137z"/>
<path style="fill:#5cdff7; stroke:none;" d="M156 138L157 139L156 138z"/>
<path style="fill:#5897a0; stroke:none;" d="M156 139L156 316L157 316L157 192L157 156L156 139z"/>
<path style="fill:#5cdff7; stroke:none;" d="M174 142L175 143L174 142z"/>
<path style="fill:#88f7ed; stroke:none;" d="M205 144L205 176L206 176L205 144M205 200L205 282L211 282L211 281C204.513 277.02 207 265.75 207 259C207 244.11 208.03 228.788 206.285 214C205.741 209.383 206.81 204.314 205 200z"/>
<path style="fill:#285f65; stroke:none;" d="M237 262L238 263L237 262z"/>
<path style="fill:#88f7ed; stroke:none;" d="M224 263L225 264L224 263M226 263L227 264L226 263z"/>
<path style="fill:#5897a0; stroke:none;" d="M171 282L172 283L171 282z"/>
<path style="fill:#5cdff7; stroke:none;" d="M172.667 282.333L173.333 282.667L172.667 282.333z"/>
<path style="fill:#5897a0; stroke:none;" d="M174.667 282.333L175.333 282.667L174.667 282.333z"/>
<path style="fill:#5cdff7; stroke:none;" d="M176 282L176 283L179 283L176 282z"/>
<path style="fill:#5897a0; stroke:none;" d="M179 282L179 283L182 283L179 282z"/>
<path style="fill:#5cdff7; stroke:none;" d="M182.667 282.333L183.333 282.667L182.667 282.333z"/>
<path style="fill:#5897a0; stroke:none;" d="M184 282L185 283L184 282z"/>
<path style="fill:#5cdff7; stroke:none;" d="M185.667 282.333L186.333 282.667L185.667 282.333z"/>
<path style="fill:#285f65; stroke:none;" d="M190 282L191 283L190 282z"/>
<path style="fill:#5897a0; stroke:none;" d="M205 282L205 283L258 283L241 282L205 282z"/>
<path style="fill:#285f65; stroke:none;" d="M292 317L292 316L171 316L171 297L272 297C264.6 293.895 253.007 296 245 296L196 296C189.102 296 179.774 294.351 173.148 296.318C168.612 297.665 168.455 312.148 171.028 315.397C174.778 320.132 195.199 317 201 317L292 317z"/>
<path style="fill:#88f7ed; stroke:none;" d="M171 297L171 316L214 316L214 315C208.99 314.781 205.271 313.965 202 310L205 309L202 308L200 304L200 303L204 303L204 302L199 302L199 301L220 298C207.348 292.691 184.788 297 171 297M207 302L208 303L207 302z"/>
<path style="fill:#5cdff7; stroke:none;" d="M122 304L123 305L122 304M122 315L123 316L122 315z"/>
<path style="fill:#5897a0; stroke:none;" d="M291 315L292 316L291 315z"/>
<path style="fill:#285f65; stroke:none;" d="M103 316L103 317L123 317L103 316M137 316L137 317L157 317L137 316z"/>
</svg>
