<?xml version="1.0" standalone="yes"?>
<svg xmlns="http://www.w3.org/2000/svg" width="400" height="400">
<path style="fill:#fefefe; stroke:none;" d="M0 0L0 184L1 184C1.01008 92.6402 92.6475 1.00998 184 1L166 0L129 0L0 0z"/>
<path style="fill:#a2acae; stroke:none;" d="M184 0L184 1L190 1L184 0z"/>
<path style="fill:#5c686a; stroke:none;" d="M190 0L190 1L198 1L190 0z"/>
<path style="fill:#192e31; stroke:none;" d="M198 0.463745C179.611 2.07294 161.906 3.31781 144 8.42749C94.1563 22.6508 50.2896 57.5186 25.3117 103C-36.9636 216.395 26.2025 362.177 152 393.627C172.579 398.771 194.884 400.84 216 398.83C312.829 389.616 389.573 314.211 398.83 217C407.965 121.073 342.095 29.9065 249 6.62656C233.128 2.65756 214.407 -0.972015 198 0.463745z"/>
<path style="fill:#5c686a; stroke:none;" d="M202 0L202 1L210 1L202 0z"/>
<path style="fill:#a2acae; stroke:none;" d="M210 0L210 1L216 1L210 0z"/>
<path style="fill:#fefefe; stroke:none;" d="M216 0L216 1C307.352 1.00998 398.99 92.6472 399 184L400 184L400 0L216 0z"/>
<path style="fill:#a2acae; stroke:none;" d="M173 1L173 2L178 2L173 1z"/>
<path style="fill:#5c686a; stroke:none;" d="M178 1L178 2L182 2L178 1M218 1L218 2L222 2L218 1z"/>
<path style="fill:#a2acae; stroke:none;" d="M222 1L222 2L227 2L222 1M166 2L166 3L170 3L166 2z"/>
<path style="fill:#5c686a; stroke:none;" d="M170 2L170 3L173 3L170 2M227 2L227 3L230 3L227 2z"/>
<path style="fill:#a2acae; stroke:none;" d="M230 2L230 3L234 3L230 2M161.667 3.33334L162.333 3.66666L161.667 3.33334z"/>
<path style="fill:#5c686a; stroke:none;" d="M163 3L163 4L166 4L163 3M234 3L234 4L237 4L234 3z"/>
<path style="fill:#a2acae; stroke:none;" d="M237.667 3.33334L238.333 3.66666L237.667 3.33334M157 4L158 5L157 4z"/>
<path style="fill:#5c686a; stroke:none;" d="M158.667 4.33334L159.333 4.66666L158.667 4.33334M240.667 4.33334L241.333 4.66666L240.667 4.33334z"/>
<path style="fill:#a2acae; stroke:none;" d="M242 4L243 5L242 4M153 5L154 6L153 5z"/>
<path style="fill:#5c686a; stroke:none;" d="M154.667 5.33334L155.333 5.66666L154.667 5.33334M244.667 5.33334L245.333 5.66666L244.667 5.33334z"/>
<path style="fill:#a2acae; stroke:none;" d="M246.667 5.33334L247.333 5.66666L246.667 5.33334M148.667 6.33334L149.333 6.66666L148.667 6.33334z"/>
<path style="fill:#5c686a; stroke:none;" d="M150.667 6.33334L151.333 6.66666L150.667 6.33334M248.667 6.33334L249.333 6.66666L248.667 6.33334z"/>
<path style="fill:#a2acae; stroke:none;" d="M250.667 6.33334L251.333 6.66666L250.667 6.33334M144.667 7.33334L145.333 7.66666L144.667 7.33334z"/>
<path style="fill:#5c686a; stroke:none;" d="M146.667 7.33334L147.333 7.66666L146.667 7.33334M252.667 7.33334L253.333 7.66666L252.667 7.33334z"/>
<path style="fill:#a2acae; stroke:none;" d="M254.667 7.33334L255.333 7.66666L254.667 7.33334M142 8L143 9L142 8z"/>
<path style="fill:#5c686a; stroke:none;" d="M143 8L144 9L143 8M256 8L257 9L256 8z"/>
<path style="fill:#a2acae; stroke:none;" d="M257 8L258 9L257 8M139 9L140 10L139 9z"/>
<path style="fill:#5c686a; stroke:none;" d="M140 9L141 10L140 9M259 9L260 10L259 9z"/>
<path style="fill:#a2acae; stroke:none;" d="M260 9L261 10L260 9M135.667 10.3333L136.333 10.6667L135.667 10.3333z"/>
<path style="fill:#5c686a; stroke:none;" d="M137 10L138 11L137 10M262 10L263 11L262 10z"/>
<path style="fill:#a2acae; stroke:none;" d="M263.667 10.3333L264.333 10.6667L263.667 10.3333M132 11L133 12L132 11z"/>
<path style="fill:#5c686a; stroke:none;" d="M133.667 11.3333L134.333 11.6667L133.667 11.3333M265.667 11.3333L266.333 11.6667L265.667 11.3333z"/>
<path style="fill:#a2acae; stroke:none;" d="M267 11L268 12L267 11M130 12L131 13L130 12z"/>
<path style="fill:#5c686a; stroke:none;" d="M131 12L132 13L131 12M268 12L269 13L268 12z"/>
<path style="fill:#a2acae; stroke:none;" d="M269 12L270 13L269 12M127 13L128 14L127 13z"/>
<path style="fill:#5c686a; stroke:none;" d="M128 13L129 14L128 13M271 13L272 14L271 13z"/>
<path style="fill:#a2acae; stroke:none;" d="M272 13L273 14L272 13M124.667 14.3333L125.333 14.6667L124.667 14.3333z"/>
<path style="fill:#5c686a; stroke:none;" d="M126 14L127 15L126 14M273 14L274 15L273 14z"/>
<path style="fill:#a2acae; stroke:none;" d="M274 14L275 15L274 14M122 15L123 16L122 15z"/>
<path style="fill:#5c686a; stroke:none;" d="M123 15L124 16L123 15M276 15L277 16L276 15z"/>
<path style="fill:#a2acae; stroke:none;" d="M277 15L278 16L277 15M120 16L121 17L120 16z"/>
<path style="fill:#5c686a; stroke:none;" d="M121 16L122 17L121 16M278 16L279 17L278 16z"/>
<path style="fill:#a2acae; stroke:none;" d="M279 16L280 17L279 16M118 17L119 18L118 17M281 17L282 18L281 17M115 18L116 19L115 18z"/>
<path style="fill:#5c686a; stroke:none;" d="M116 18L117 19L116 18M283 18L284 19L283 18z"/>
<path style="fill:#a2acae; stroke:none;" d="M284 18L285 19L284 18M113 19L114 20L113 19z"/>
<path style="fill:#5c686a; stroke:none;" d="M114 19L115 20L114 19M285 19L286 20L285 19z"/>
<path style="fill:#a2acae; stroke:none;" d="M286 19L287 20L286 19M111 20L112 21L111 20z"/>
<path style="fill:#5c686a; stroke:none;" d="M112 20L113 21L112 20M287 20L288 21L287 20z"/>
<path style="fill:#a2acae; stroke:none;" d="M288 20L289 21L288 20M109 21L110 22L109 21z"/>
<path style="fill:#5c686a; stroke:none;" d="M110 21L111 22L110 21M289 21L290 22L289 21z"/>
<path style="fill:#a2acae; stroke:none;" d="M290 21L291 22L290 21M107 22L108 23L107 22z"/>
<path style="fill:#5c686a; stroke:none;" d="M108 22L109 23L108 22M291 22L292 23L291 22z"/>
<path style="fill:#a2acae; stroke:none;" d="M292 22L293 23L292 22M105 23L106 24L105 23z"/>
<path style="fill:#5c686a; stroke:none;" d="M106 23L107 24L106 23M293 23L296 25L296 24L293 23z"/>
<path style="fill:#a2acae; stroke:none;" d="M294 23L295 24L294 23M103 24L104 25L103 24z"/>
<path style="fill:#5c686a; stroke:none;" d="M104.667 24.3333L105.333 24.6667L104.667 24.3333z"/>
<path style="fill:#a2acae; stroke:none;" d="M296 24L297 25L296 24M102 25L103 26L102 25M297 25L298 26L297 25M100 26L101 27L100 26M299 26L300 27L299 26M98 27L99 28L98 27z"/>
<path style="fill:#5c686a; stroke:none;" d="M99 27L100 28L99 27M300 27L301 28L300 27z"/>
<path style="fill:#a2acae; stroke:none;" d="M301 27L302 28L301 27M95 30L98 29L95 30M302 28L302 29L305 30L302 28z"/>
<path style="fill:#5c686a; stroke:none;" d="M96 29L97 30L96 29M303 29L304 30L303 29z"/>
<path style="fill:#a2acae; stroke:none;" d="M93 30L94 31L93 30z"/>
<path style="fill:#5c686a; stroke:none;" d="M94 30L95 31L94 30M305 30L306 31L305 30z"/>
<path style="fill:#a2acae; stroke:none;" d="M306 30L307 31L306 30M92 31L93 32L92 31M307 31L308 32L307 31M90 32L91 33L90 32z"/>
<path style="fill:#5c686a; stroke:none;" d="M91 32L92 33L91 32M308 32L309 33L308 32z"/>
<path style="fill:#a2acae; stroke:none;" d="M309 32L310 33L309 32M89 33L90 34L89 33M310 33L311 34L310 33M87 34L88 35L87 34z"/>
<path style="fill:#5c686a; stroke:none;" d="M88 34L89 35L88 34M311 34L312 35L311 34z"/>
<path style="fill:#a2acae; stroke:none;" d="M312 34L313 35L312 34M86 35L87 36L86 35M313 35L314 36L313 35M84 36L85 37L84 36z"/>
<path style="fill:#5c686a; stroke:none;" d="M85 36L86 37L85 36M314 36L315 37L314 36z"/>
<path style="fill:#a2acae; stroke:none;" d="M315 36L316 37L315 36M83 37L84 38L83 37M316 37L317 38L316 37z"/>
<path style="fill:#5c686a; stroke:none;" d="M82 38L83 39L82 38M317 38L318 39L317 38z"/>
<path style="fill:#a2acae; stroke:none;" d="M80 39L81 40L80 39z"/>
<path style="fill:#5c686a; stroke:none;" d="M81 39L82 40L81 39M318 39L319 40L318 39z"/>
<path style="fill:#a2acae; stroke:none;" d="M319 39L320 40L319 39M79 40L80 41L79 40M320 40L321 41L320 40M77 41L76 43L77 41z"/>
<path style="fill:#5c686a; stroke:none;" d="M78 41L79 42L78 41M321 41L323 43L321 41z"/>
<path style="fill:#a2acae; stroke:none;" d="M322 41L323 42L322 41z"/>
<path style="fill:#5c686a; stroke:none;" d="M77 42L78 43L77 42z"/>
<path style="fill:#a2acae; stroke:none;" d="M323 42L324 43L323 42M75 43L76 44L75 43M324 43L325 44L324 43M74 44L75 45L74 44M325 44L326 45L325 44z"/>
<path style="fill:#5c686a; stroke:none;" d="M73 45L74 46L73 45M326 45L327 46L326 45z"/>
<path style="fill:#a2acae; stroke:none;" d="M71 46L72 47L71 46z"/>
<path style="fill:#5c686a; stroke:none;" d="M72 46L73 47L72 46M327 46L328 47L327 46z"/>
<path style="fill:#a2acae; stroke:none;" d="M328 46L329 47L328 46M70 47L71 48L70 47M329 47L330 48L329 47M69 48L70 49L69 48M330 48L331 49L330 48M68 49L69 50L68 49M331 49L332 50L331 49z"/>
<path style="fill:#5c686a; stroke:none;" d="M67 50L68 51L67 50M332 50L333 51L332 50M66 51L67 52L66 51M333 51L334 52L333 51M65 52L66 53L65 52M334 52L335 53L334 52z"/>
<path style="fill:#a2acae; stroke:none;" d="M63 53L61 56L63 53z"/>
<path style="fill:#5c686a; stroke:none;" d="M64 53L65 54L64 53M335 53L338 56L335 53z"/>
<path style="fill:#a2acae; stroke:none;" d="M336 53L337 54L336 53z"/>
<path style="fill:#5c686a; stroke:none;" d="M63 54L64 55L63 54z"/>
<path style="fill:#a2acae; stroke:none;" d="M337 54L338 55L337 54z"/>
<path style="fill:#5c686a; stroke:none;" d="M62 55L63 56L62 55z"/>
<path style="fill:#a2acae; stroke:none;" d="M338 55L339 56L338 55M60 56L61 57L60 56M339 56L340 57L339 56M59 57L57 60L59 57M340 57L343 60L340 57z"/>
<path style="fill:#5c686a; stroke:none;" d="M59 58L60 59L59 58M340 58L341 59L340 58M58 59L59 60L58 59M341 59L342 60L341 59z"/>
<path style="fill:#a2acae; stroke:none;" d="M56 60L57 61L56 60M343 60L344 61L343 60M55 61L53 64L55 61M344 61L347 64L344 61z"/>
<path style="fill:#5c686a; stroke:none;" d="M55 62L56 63L55 62M344 62L345 63L344 62M54 63L55 64L54 63M345 63L346 64L345 63M53 64L54 65L53 64M346 64L347 65L346 64M52 65L53 66L52 65M347 65L348 66L347 65M51 66L52 67L51 66M348 66L349 67L348 66M50 67L51 68L50 67M349 67L350 68L349 67z"/>
<path style="fill:#a2acae; stroke:none;" d="M49 68L50 69L49 68M350 68L351 69L350 68M48 69L49 70L48 69M351 69L352 70L351 69M47 70L46 72L47 70M352 70L354 72L352 70z"/>
<path style="fill:#5c686a; stroke:none;" d="M47 71L48 72L47 71M352 71L353 72L352 71M46 72L47 73L46 72M353 72L354 73L353 72M45 73L46 74L45 73M354 73L355 74L354 73z"/>
<path style="fill:#a2acae; stroke:none;" d="M44 74L45 75L44 74M355 74L356 75L355 74M43 75L44 76L43 75M356 75L357 76L356 75M42 76L41 78L42 76M357 76L359 78L357 76z"/>
<path style="fill:#5c686a; stroke:none;" d="M42 77L43 78L42 77M357 77L358 78L357 77M41 78L42 79L41 78M358 78L359 79L358 78z"/>
<path style="fill:#a2acae; stroke:none;" d="M40 79L41 80L40 79M359 79L360 80L359 79M39 80L40 81L39 80M360 80L361 81L360 80z"/>
<path style="fill:#5c686a; stroke:none;" d="M39 81L40 82L39 81M360 81L361 82L360 81M38 82L39 83L38 82M361 82L362 83L361 82z"/>
<path style="fill:#a2acae; stroke:none;" d="M37 83L38 84L37 83M362 83L363 84L362 83M36 84L37 85L36 84M363 84L364 85L363 84z"/>
<path style="fill:#5c686a; stroke:none;" d="M36 85L37 86L36 85M363 85L364 86L363 85M35 86L36 87L35 86M364 86L365 87L364 86z"/>
<path style="fill:#a2acae; stroke:none;" d="M34 87L35 88L34 87M365 87L366 88L365 87z"/>
<path style="fill:#5c686a; stroke:none;" d="M34 88L35 89L34 88M365 88L366 89L365 88z"/>
<path style="fill:#a2acae; stroke:none;" d="M33 89L34 90L33 89M366 89L367 90L366 89M32 90L33 91L32 90M367 90L368 91L367 90z"/>
<path style="fill:#5c686a; stroke:none;" d="M32 91L33 92L32 91M367 91L368 92L367 91z"/>
<path style="fill:#a2acae; stroke:none;" d="M31 92L32 93L31 92M368 92L369 93L368 92M30 93L31 94L30 93M369 93L370 94L369 93z"/>
<path style="fill:#5c686a; stroke:none;" d="M30 94L31 95L30 94M369 94L370 95L369 94z"/>
<path style="fill:#a2acae; stroke:none;" d="M29 95L28 98L29 98L29 95M370 95L371 98L372 98L370 95z"/>
<path style="fill:#5c686a; stroke:none;" d="M29 96L30 97L29 96M370 96L371 97L370 96z"/>
<path style="fill:#a2acae; stroke:none;" d="M27 98L28 99L27 98M372 98L373 99L372 98z"/>
<path style="fill:#5c686a; stroke:none;" d="M27 99L28 100L27 99M372 99L373 100L372 99z"/>
<path style="fill:#a2acae; stroke:none;" d="M26 100L27 101L26 100M373 100L374 101L373 100M25 102L26 103L25 102M374 102L375 103L374 102M24 103L25 104L24 103M375 103L376 104L375 103z"/>
<path style="fill:#5c686a; stroke:none;" d="M24 104L25 105L24 104M375 104L376 105L375 104z"/>
<path style="fill:#a2acae; stroke:none;" d="M23 105L24 106L23 105M376 105L377 106L376 105z"/>
<path style="fill:#5c686a; stroke:none;" d="M23 106L24 107L23 106M376 106L377 107L376 106z"/>
<path style="fill:#a2acae; stroke:none;" d="M22 107L23 108L22 107M377 107L378 108L377 107z"/>
<path style="fill:#5c686a; stroke:none;" d="M22 108L23 109L22 108M377 108L378 109L377 108z"/>
<path style="fill:#a2acae; stroke:none;" d="M21 109L22 110L21 109M378 109L379 110L378 109z"/>
<path style="fill:#5c686a; stroke:none;" d="M21 110L22 111L21 110M378 110L379 111L378 110z"/>
<path style="fill:#a2acae; stroke:none;" d="M20 111L21 112L20 111M379 111L380 112L379 111z"/>
<path style="fill:#5c686a; stroke:none;" d="M20 112L21 113L20 112M379 112L380 113L379 112z"/>
<path style="fill:#a2acae; stroke:none;" d="M19 113L20 114L19 113M380 113L381 114L380 113z"/>
<path style="fill:#5c686a; stroke:none;" d="M19 114L20 115L19 114M380 114L381 115L380 114z"/>
<path style="fill:#a2acae; stroke:none;" d="M18 115L19 116L18 115M381 115L382 116L381 115z"/>
<path style="fill:#5c686a; stroke:none;" d="M18 116L19 117L18 116M381 116L382 117L381 116M17 118L18 119L17 118M382 118L383 119L382 118z"/>
<path style="fill:#a2acae; stroke:none;" d="M16 120L17 121L16 120M383 120L384 121L383 120z"/>
<path style="fill:#5c686a; stroke:none;" d="M16 121L17 122L16 121M265 121L265 122L270 122L265 121z"/>
<path style="fill:#30d8a6; stroke:none;" d="M167 192L170 191L176 202L182 202C188.738 194.621 197.471 188.472 205 181.845C226.64 162.797 253.367 136.761 285 142.465C309.634 146.906 321.517 170.535 319.91 194C318.275 217.884 304.387 240.006 283 251.215C231.601 278.154 184.217 218.022 147 191.427C124.482 175.336 94.4957 165.141 72.0401 187.09C43.7829 214.709 68.9585 257.159 105 256.999C116.328 256.949 139.816 248.753 142 236L145 235C143.649 229.93 140.747 227.123 136 225L138 222L133 221C133 223.821 123.843 228.144 121 230C108.035 238.463 80 238.444 80 216C80 211.668 82.4886 207.214 85.1667 204C99.3248 187.01 120.562 198.005 135 208.833C179.382 242.12 231.095 301.465 292 270.167C300.665 265.714 308.108 260.059 315 253.167C324.027 244.14 330.07 233.819 334.667 222C352.41 176.374 328.056 115.55 272 121C241.235 123.991 218.482 142.016 196 162C186.194 170.717 172.904 180.191 167 192z"/>
<path style="fill:#5c686a; stroke:none;" d="M282 121L282 122L288 122L282 121M383 121L384 122L383 121z"/>
<path style="fill:#a2acae; stroke:none;" d="M15 122L16 123L15 122z"/>
<path style="fill:#5c686a; stroke:none;" d="M260.667 122.333L261.333 122.667L260.667 122.333M291 122L292 123L291 122z"/>
<path style="fill:#a2acae; stroke:none;" d="M384 122L385 123L384 122z"/>
<path style="fill:#5c686a; stroke:none;" d="M15 123L16 124L15 123M256.667 123.333L257.333 123.667L256.667 123.333M294.667 123.333L295.333 123.667L294.667 123.333M384 123L385 124L384 123z"/>
<path style="fill:#a2acae; stroke:none;" d="M14.3333 124.667L14.6667 125.333L14.3333 124.667z"/>
<path style="fill:#5c686a; stroke:none;" d="M252.667 124.333L253.333 124.667L252.667 124.333M298 124L299 125L298 124z"/>
<path style="fill:#a2acae; stroke:none;" d="M385.333 124.667L385.667 125.333L385.333 124.667z"/>
<path style="fill:#5c686a; stroke:none;" d="M249.667 125.333L250.333 125.667L249.667 125.333M301 125L302 126L301 125M14 126L15 127L14 126M246 126L247 127L246 126M385 126L386 127L385 126z"/>
<path style="fill:#a2acae; stroke:none;" d="M13 127L14 128L13 127z"/>
<path style="fill:#5c686a; stroke:none;" d="M244 127L245 128L244 127M305.667 127.333L306.333 127.667L305.667 127.333z"/>
<path style="fill:#a2acae; stroke:none;" d="M386 127L387 128L386 127z"/>
<path style="fill:#5c686a; stroke:none;" d="M13 128L14 129L13 128M241.667 128.333L242.333 128.667L241.667 128.333M308 128L309 129L308 128M386 128L387 129L386 128M239 129L240 130L239 129M309.667 129.333L310.333 129.667L309.667 129.333z"/>
<path style="fill:#a2acae; stroke:none;" d="M12 130L13 131L12 130z"/>
<path style="fill:#5c686a; stroke:none;" d="M237 130L238 131L237 130M311 130L312 131L311 130z"/>
<path style="fill:#a2acae; stroke:none;" d="M387 130L388 131L387 130z"/>
<path style="fill:#5c686a; stroke:none;" d="M12 131L13 132L12 131M313 131L314 132L313 131M387 131L388 132L387 131z"/>
<path style="fill:#a2acae; stroke:none;" d="M11 132L12 133L11 132z"/>
<path style="fill:#5c686a; stroke:none;" d="M234 132L235 133L234 132M314 132L315 133L314 132z"/>
<path style="fill:#a2acae; stroke:none;" d="M388 132L389 133L388 132z"/>
<path style="fill:#5c686a; stroke:none;" d="M11.3333 133.667L11.6667 134.333L11.3333 133.667M232 133L233 134L232 133M388.333 133.667L388.667 134.333L388.333 133.667M230.667 134.333L231.333 134.667L230.667 134.333M317 134L318 135L317 134z"/>
<path style="fill:#a2acae; stroke:none;" d="M10.3333 135.667L10.6667 136.333L10.3333 135.667z"/>
<path style="fill:#5c686a; stroke:none;" d="M229 135L230 136L229 135M318 135L319 136L318 135z"/>
<path style="fill:#a2acae; stroke:none;" d="M389.333 135.667L389.667 136.333L389.333 135.667z"/>
<path style="fill:#5c686a; stroke:none;" d="M227 136L228 137L227 136M10 137L11 138L10 137M226 137L227 138L226 137M320 137L321 138L320 137M389 137L390 138L389 137z"/>
<path style="fill:#a2acae; stroke:none;" d="M9.33333 138.667L9.66667 139.333L9.33333 138.667z"/>
<path style="fill:#5c686a; stroke:none;" d="M224.667 138.333L225.333 138.667L224.667 138.333M322 138L323 139L322 138z"/>
<path style="fill:#a2acae; stroke:none;" d="M390.333 138.667L390.667 139.333L390.333 138.667z"/>
<path style="fill:#5c686a; stroke:none;" d="M223 139L224 140L223 139M9 140L10 141L9 140M222 140L223 141L222 140M390 140L391 141L390 140M324 141L325 142L324 141z"/>
<path style="fill:#a2acae; stroke:none;" d="M8 142L9 143L8 142z"/>
<path style="fill:#5c686a; stroke:none;" d="M219 142L220 143L219 142M267 142L267 143L272 143L267 142z"/>
<path style="fill:#192e31; stroke:none;" d="M173 211C182.087 222.873 198.644 233.26 211 241.656C222.245 249.297 234.362 255.413 248 256.95C279.181 260.462 311.588 238.862 317.689 207C320.68 191.379 320.43 171.519 311.011 158.004C298.099 139.477 270.875 139.149 252 147.287C240.401 152.288 230.628 160.223 221 168.247C204.619 181.898 188.14 195.985 173 211z"/>
<path style="fill:#5c686a; stroke:none;" d="M282 142L282 143L286 143L282 142M325 142L326 143L325 142z"/>
<path style="fill:#a2acae; stroke:none;" d="M391 142L392 143L391 142z"/>
<path style="fill:#5c686a; stroke:none;" d="M8 143L9 144L8 143M218 143L219 144L218 143M262 143L262 144L265 144L262 143M288.667 143.333L289.333 143.667L288.667 143.333M326 143L327 144L326 143M391 143L392 144L391 143M258.667 144.333L259.333 144.667L258.667 144.333M292 144L293 145L292 144M327 144L328 145L327 144z"/>
<path style="fill:#a2acae; stroke:none;" d="M7 145L8 146L7 145z"/>
<path style="fill:#5c686a; stroke:none;" d="M256 145L257 146L256 145M294 145L295 146L294 145M328 145L329 146L328 145z"/>
<path style="fill:#a2acae; stroke:none;" d="M392 145L393 146L392 145z"/>
<path style="fill:#5c686a; stroke:none;" d="M7.33333 146.667L7.66667 147.333L7.33333 146.667M214 146L215 147L214 146M253 146L254 147L253 146M297 146L298 147L297 146M392.333 146.667L392.667 147.333L392.333 146.667M213 147L214 148L213 147M251 147L252 148L251 147M299 147L300 148L299 147M329 147L330 148L329 147z"/>
<path style="fill:#a2acae; stroke:none;" d="M6.33333 148.667L6.66667 149.333L6.33333 148.667z"/>
<path style="fill:#5c686a; stroke:none;" d="M248.667 148.333L249.333 148.667L248.667 148.333M300 148L301 149L300 148M330 148L331 149L330 148z"/>
<path style="fill:#a2acae; stroke:none;" d="M393.333 148.667L393.667 149.333L393.333 148.667z"/>
<path style="fill:#5c686a; stroke:none;" d="M210 149L211 150L210 149M246 149L247 150L246 149M302 149L303 150L302 149M6.33333 150.667L6.66667 151.333L6.33333 150.667M209 150L210 151L209 150M245 150L246 151L245 150M303 150L304 151L303 150M331 150L332 151L331 150M393.333 150.667L393.667 151.333L393.333 150.667M208 151L209 152L208 151M243 151L244 152L243 151M304 151L305 152L304 151z"/>
<path style="fill:#a2acae; stroke:none;" d="M5.33333 152.667L5.66667 153.333L5.33333 152.667z"/>
<path style="fill:#5c686a; stroke:none;" d="M241 152L242 153L241 152M306 152L307 153L306 152M332 152L333 153L332 152z"/>
<path style="fill:#a2acae; stroke:none;" d="M394.333 152.667L394.667 153.333L394.333 152.667z"/>
<path style="fill:#5c686a; stroke:none;" d="M205 153L206 154L205 153M240 153L241 154L240 153M307 153L308 154L307 153M5.33333 154.667L5.66667 155.333L5.33333 154.667M204 154L205 155L204 154M308 154L309 155L308 154M333 154L334 155L333 154M394.333 154.667L394.667 155.333L394.333 154.667M203 155L204 156L203 155M237 155L238 156L237 155M202 156L203 157L202 156M334 156L335 157L334 156z"/>
<path style="fill:#a2acae; stroke:none;" d="M4 157L5 158L4 157z"/>
<path style="fill:#5c686a; stroke:none;" d="M201 157L202 158L201 157M234 157L235 158L234 157M310 157L311 158L310 157z"/>
<path style="fill:#a2acae; stroke:none;" d="M395 157L396 158L395 157z"/>
<path style="fill:#5c686a; stroke:none;" d="M4.33333 158.667L4.66667 159.333L4.33333 158.667M233 158L234 159L233 158M311 158L312 159L311 158M335 158L336 159L335 158M395.333 158.667L395.667 159.333L395.333 158.667M198 159L199 160L198 159M197 160L198 161L197 160M230 160L231 161L230 160M336.333 160.667L336.667 161.333L336.333 160.667z"/>
<path style="fill:#a2acae; stroke:none;" d="M3.33333 161.667L3.66667 162.333L3.33333 161.667z"/>
<path style="fill:#5c686a; stroke:none;" d="M196 161L197 162L196 161M229 161L230 162L229 161M313.333 161.667L313.667 162.333L313.333 161.667z"/>
<path style="fill:#a2acae; stroke:none;" d="M396.333 161.667L396.667 162.333L396.333 161.667z"/>
<path style="fill:#5c686a; stroke:none;" d="M195 162L196 163L195 162M3 163L3 166L4 166L3 163M194 163L195 164L194 163M226 163L227 164L226 163M396 163L396 166L397 166L396 163M225 164L226 165L225 164M314 164L315 165L314 164M337 164L338 165L337 164M191 165L192 166L191 165M224 165L225 166L224 165z"/>
<path style="fill:#a2acae; stroke:none;" d="M2 166L2 170L3 170L2 166z"/>
<path style="fill:#5c686a; stroke:none;" d="M190 166L191 167L190 166M223 166L224 167L223 166M315 166L316 167L315 166z"/>
<path style="fill:#a2acae; stroke:none;" d="M397 166L397 170L398 170L397 166z"/>
<path style="fill:#5c686a; stroke:none;" d="M189 167L190 168L189 167M221 167L222 168L221 167M188 168L189 169L188 168M220 168L221 169L220 168M338 168L339 169L338 168M187 169L188 170L187 169M219 169L220 170L219 169M316 169L317 170L316 169M2 170L2 173L3 173L2 170M186 170L187 171L186 170M218 170L219 171L218 170M397 170L397 173L398 173L397 170M185 171L186 172L185 171M217 171L218 172L217 171M184 172L185 173L184 172M317 172L318 173L317 172M339 172L340 173L339 172z"/>
<path style="fill:#a2acae; stroke:none;" d="M1 173L1 178L2 178L1 173z"/>
<path style="fill:#5c686a; stroke:none;" d="M176 180L184 173L176 180M214 173L215 174L214 173z"/>
<path style="fill:#a2acae; stroke:none;" d="M398 173L398 178L399 178L398 173z"/>
<path style="fill:#5c686a; stroke:none;" d="M94.6667 174.333L95.3333 174.667L94.6667 174.333M108 174L108 175L112 175L108 174M213 174L214 175L213 174M91 175L92 176L91 175M114.667 175.333L115.333 175.667L114.667 175.333M212 175L213 176L212 175M88 176L89 177L88 176M118 176L119 177L118 176M211 176L212 177L211 176M318 176L318 180L319 180L318 176M85 177L86 178L85 177M121 177L122 178L121 177M209 177L208 179L210 179L209 177M1 178L1 181L2 181L1 178M83 178L84 179L83 178M124 178L125 179L124 178M340 178L340 197L341 197L340 178M398 178L398 181L399 181L398 178M81 179L82 180L81 179M126 179L127 180L126 179M207 179L208 180L207 179M128.667 180.333L129.333 180.667L128.667 180.333M175 180L176 181L175 180M206 180L207 181L206 180M78 181L79 182L78 181M130.667 181.333L131.333 181.667L130.667 181.333M174 181L172 184L174 181M205 181L206 182L205 181M77 182L78 183L77 182M132 182L133 183L132 182M204 182L205 183L204 182M76 183L77 184L76 183M134 183L135 184L134 183M203 183L204 184L203 183M319 183L319 198L320 198L319 183z"/>
<path style="fill:#a2acae; stroke:none;" d="M0 184L0 190L1 190L0 184z"/>
<path style="fill:#5c686a; stroke:none;" d="M74 184L75 185L74 184M136 184L137 185L136 184M171 184L172 185L171 184M201 184L200 186L202 186L201 184z"/>
<path style="fill:#a2acae; stroke:none;" d="M399 184L399 190L400 190L399 184z"/>
<path style="fill:#5c686a; stroke:none;" d="M73 185L74 186L73 185M138 185L139 186L138 185M170 185L171 186L170 185M72 186L73 187L72 186M139 186L140 187L139 186M169 186L156 199L172 212L173 212L187 198L182 202L176 202L170 191L167 192L169 186M199 186L200 187L199 186M71 187L72 188L71 187M141 187L142 188L141 187M198 187L199 188L198 187M70 188L71 189L70 188M142 188L143 189L142 188M197 188L198 189L197 188M69 189L70 190L69 189M196 189L197 190L196 189M0 190L0 198L1 198L0 190M68 190L69 191L68 190M145 190L146 191L145 190M195 190L196 191L195 190M399 190L399 198L400 198L399 190M147 191L148 192L147 191M172 191L173 192L172 191M192 193L195 191L192 193M67 192L68 193L67 192M148 192L149 193L148 192M66 193L67 194L66 193M149 193L150 194L149 193M191 193L190 195L192 195L191 193M151 194L152 195L151 194M65 195L66 196L65 195M96 195L96 196L99 196L96 195z"/>
<path style="fill:#192e31; stroke:none;" d="M140 214C135.957 208.523 129.881 205.143 124 201.862C118.851 198.989 113.826 196.902 108 195.921C75.1228 190.382 73.0466 238.451 106 235.906C111.129 235.51 115.744 233.036 120 230.302C127.316 225.601 133.324 219.495 140 214z"/>
<path style="fill:#5c686a; stroke:none;" d="M105 195L105 196L109 196L105 195M152 195L153 196L152 195M189 195L190 196L189 195M64 196L65 197L64 196M94 196L95 197L94 196M111.667 196.333L112.333 196.667L111.667 196.333M153 196L154 197L153 196M188 196L189 197L188 196M92 197L93 198L92 197M115 197L116 198L115 197M187 197L188 198L187 197M63 198L64 199L63 198M90 198L91 199L90 198M117 198L118 199L117 198M89 199L90 200L89 199M119 199L120 200L119 199M62 200L63 201L62 200M121 200L122 201L121 200M123 201L124 202L123 201M318 201L318 205L319 205L318 201M0 202L0 210L1 210L0 202M125 202L126 203L125 202M339.333 202.667L339.667 203.333L339.333 202.667M399 202L399 210L400 210L399 202M61 203L62 204L61 203M85 203L86 204L85 203M126.667 203.333L127.333 203.667L126.667 203.333M84 204L85 205L84 204M128 204L129 205L128 204M130 205L131 206L130 205M60 206L61 207L60 206M131 206L132 207L131 206M82 207L83 208L82 207M133 207L134 208L133 207M338 207L339 208L338 207M134 208L135 209L134 208M317.333 208.667L317.667 209.333L317.333 208.667M81.3333 209.667L81.6667 210.333L81.3333 209.667z"/>
<path style="fill:#a2acae; stroke:none;" d="M0 210L0 216L1 216L0 210z"/>
<path style="fill:#5c686a; stroke:none;" d="M59 210L59 221L60 221L59 210M137 210L138 211L137 210z"/>
<path style="fill:#a2acae; stroke:none;" d="M399 210L399 216L400 216L399 210z"/>
<path style="fill:#5c686a; stroke:none;" d="M138 211L139 212L138 211M316 211L317 212L316 211M337.333 211.667L337.667 212.333L337.333 211.667M139 212L140 213L139 212M173 212L174 213L173 212M80 213L80 219L81 219L80 213M140 213L129 224L133 221L138 222L136 225L145 235L142 236L140 241L158 227L158 226L140 213M174 213L175 214L174 213M315 214L316 215L315 214M177 215L178 216L177 215M336.333 215.667L336.667 216.333L336.333 215.667z"/>
<path style="fill:#fefefe; stroke:none;" d="M0 216L0 400L184 400L184 399C115.485 398.992 47.0725 346.465 19.3086 286C12.1969 270.512 7.07153 254.634 3.42438 238C1.91243 231.104 2.66621 222.354 0 216z"/>
<path style="fill:#5c686a; stroke:none;" d="M178 216L179 217L178 216M314.333 216.667L314.667 217.333L314.333 216.667z"/>
<path style="fill:#fefefe; stroke:none;" d="M399 216C398.99 307.353 307.352 398.99 216 399L216 400L400 400L400 271L400 234L399 216z"/>
<path style="fill:#5c686a; stroke:none;" d="M179 217L180 218L179 217M1 219L1 222L2 222L1 219M182 219L183 220L182 219M313 219L314 220L313 219M335 219L336 220L335 219M398 219L398 222L399 222L398 219M183 220L184 221L183 220M81 221L82 222L81 221M184 221L185 222L184 221M312 221L313 222L312 221z"/>
<path style="fill:#a2acae; stroke:none;" d="M1 222L1 227L2 227L1 222z"/>
<path style="fill:#5c686a; stroke:none;" d="M185.667 222.333L186.333 222.667L185.667 222.333M334 222L335 223L334 222z"/>
<path style="fill:#a2acae; stroke:none;" d="M398 222L398 227L399 227L398 222z"/>
<path style="fill:#5c686a; stroke:none;" d="M82 223L83 224L82 223M187 223L188 224L187 223M311 223L312 224L311 223M60.3333 224.667L60.6667 225.333L60.3333 224.667M128 224L129 225L128 224M188 224L189 225L188 224M333 224L334 225L333 224M83 225L84 226L83 225M126.667 225.333L127.333 225.667L126.667 225.333M189 225L190 226L189 225M310 225L311 226L310 225M84 226L85 227L84 226M125 226L126 227L125 226M190.667 226.333L191.333 226.667L190.667 226.333M309 226L310 227L309 226M2 227L2 230L3 230L2 227M61 227L62 228L61 227M85 227L86 228L85 227M124 227L125 228L124 227M158 227L159 228L158 227M192 227L193 228L192 227M332 227L333 228L332 227M397 227L397 230L398 230L397 227M122.667 228.333L123.333 228.667L122.667 228.333z"/>
<path style="fill:#30d8a6; stroke:none;" d="M144 228L146 230L144 228z"/>
<path style="fill:#5c686a; stroke:none;" d="M193 228L194 229L193 228M308 228L309 229L308 228M121 229L122 230L121 229M161 229L162 230L161 229M194 229L195 230L194 229M331 229L332 230L331 229z"/>
<path style="fill:#a2acae; stroke:none;" d="M2 230L2 234L3 234L2 230z"/>
<path style="fill:#5c686a; stroke:none;" d="M62 230L63 231L62 230M88 230L89 231L88 230M119.667 230.333L120.333 230.667L119.667 230.333M162 230L163 231L162 230M196 230L197 231L196 230z"/>
<path style="fill:#a2acae; stroke:none;" d="M397 230L397 234L398 234L397 230z"/>
<path style="fill:#5c686a; stroke:none;" d="M89 231L90 232L89 231M118 231L119 232L118 231M163 231L164 232L163 231M197 231L198 232L197 231M306 231L307 232L306 231M330 231L331 232L330 231M63 232L64 233L63 232M116 232L117 233L116 232z"/>
<path style="fill:#30d8a6; stroke:none;" d="M146 232L147 233L146 232z"/>
<path style="fill:#5c686a; stroke:none;" d="M164 232L165 233L164 232M305 232L306 233L305 232M92 233L93 234L92 233M114.667 233.333L115.333 233.667L114.667 233.333M304 233L305 234L304 233M329 233L330 234L329 233M3 234L3 237L4 237L3 234M64 234L65 235L64 234M94 234L95 235L94 234M112.667 234.333L113.333 234.667L112.667 234.333M167 234L168 235L167 234M201 234L202 235L201 234M303 234L304 235L303 234M396 234L396 237L397 237L396 234M96 235L96 236L99 236L96 235M109 235L109 236L112 236L109 235M168 235L169 236L168 235M202 235L203 236L202 235M328 235L329 236L328 235M65 236L66 237L65 236M102 236L102 237L106 237L102 236M169 236L170 237L169 236z"/>
<path style="fill:#a2acae; stroke:none;" d="M3.33333 237.667L3.66667 238.333L3.33333 237.667z"/>
<path style="fill:#5c686a; stroke:none;" d="M66 237L67 238L66 237M205 237L206 238L205 237M327 237L328 238L327 237z"/>
<path style="fill:#a2acae; stroke:none;" d="M396.333 237.667L396.667 238.333L396.333 237.667z"/>
<path style="fill:#5c686a; stroke:none;" d="M172 238L173 239L172 238M206 238L207 239L206 238M326.333 238.667L326.667 239.333L326.333 238.667M67 239L68 240L67 239M173 239L174 240L173 239M299 239L300 240L299 239M4.33333 240.667L4.66667 241.333L4.33333 240.667M68 240L69 241L68 240M174 240L175 241L174 240M209 240L210 241L209 240M297 240L298 241L297 240M325 240L326 241L325 240M395.333 240.667L395.667 241.333L395.333 240.667M69 241L70 242L69 241M139 241L140 242L139 241M210 241L211 242L210 241M296 241L297 242L296 241z"/>
<path style="fill:#a2acae; stroke:none;" d="M4 242L5 243L4 242z"/>
<path style="fill:#5c686a; stroke:none;" d="M70 242L71 243L70 242M138 242L139 243L138 242M177 242L178 243L177 242M212 242L213 243L212 242M295 242L296 243L295 242M324 242L325 243L324 242z"/>
<path style="fill:#a2acae; stroke:none;" d="M395 242L396 243L395 242z"/>
<path style="fill:#5c686a; stroke:none;" d="M71 243L72 244L71 243M137 243L138 244L137 243M178 243L179 244L178 243M213 243L214 244L213 243M294 243L295 244L294 243M323 243L324 244L323 243M5.33333 244.667L5.66667 245.333L5.33333 244.667M72 244L73 245L72 244M135.667 244.333L136.333 244.667L135.667 244.333M179 244L180 245L179 244M215 244L216 245L215 244M293 244L294 245L293 244M394.333 244.667L394.667 245.333L394.333 244.667M73 245L74 246L73 245M134 245L135 246L134 245M216 245L217 246L216 245M291 245L292 246L291 245z"/>
<path style="fill:#a2acae; stroke:none;" d="M5.33333 246.667L5.66667 247.333L5.33333 246.667z"/>
<path style="fill:#5c686a; stroke:none;" d="M74 246L75 247L74 246M133 246L134 247L133 246M182 246L183 247L182 246M218 246L219 247L218 246M290 246L291 247L290 246M321 246L322 247L321 246z"/>
<path style="fill:#a2acae; stroke:none;" d="M394.333 246.667L394.667 247.333L394.333 246.667z"/>
<path style="fill:#5c686a; stroke:none;" d="M75 247L76 248L75 247M131.667 247.333L132.333 247.667L131.667 247.333M183 247L184 248L183 247M220 247L221 248L220 247M289 247L290 248L289 247M320 247L321 248L320 247M6.33333 248.667L6.66667 249.333L6.33333 248.667M130 248L131 249L130 248M222 248L223 249L222 248M287 248L288 249L287 248M319 248L320 249L319 248M393.333 248.667L393.667 249.333L393.333 248.667M78 249L79 250L78 249M128.667 249.333L129.333 249.667L128.667 249.333M186 249L187 250L186 249M285.667 249.333L286.333 249.667L285.667 249.333M318 249L319 250L318 249z"/>
<path style="fill:#a2acae; stroke:none;" d="M6.33333 250.667L6.66667 251.333L6.33333 250.667z"/>
<path style="fill:#5c686a; stroke:none;" d="M127 250L128 251L127 250M187 250L188 251L187 250M284 250L285 251L284 250M317 250L318 251L317 250z"/>
<path style="fill:#a2acae; stroke:none;" d="M393.333 250.667L393.667 251.333L393.333 250.667z"/>
<path style="fill:#5c686a; stroke:none;" d="M81 251L82 252L81 251M125 251L126 252L125 251M228 251L229 252L228 251M282 251L283 252L282 251M7.33333 252.667L7.66667 253.333L7.33333 252.667M83 252L84 253L83 252M123.667 252.333L124.333 252.667L123.667 252.333M190 252L191 253L190 252M230 252L231 253L230 252M280 252L281 253L280 252M315 252L316 253L315 252M392.333 252.667L392.667 253.333L392.333 252.667M85 253L86 254L85 253M121 253L122 254L121 253M191 253L192 254L191 253M232.667 253.333L233.333 253.667L232.667 253.333M277.667 253.333L278.333 253.667L277.667 253.333M314 253L315 254L314 253z"/>
<path style="fill:#a2acae; stroke:none;" d="M7 254L8 255L7 254z"/>
<path style="fill:#5c686a; stroke:none;" d="M88 254L89 255L88 254M118.667 254.333L119.333 254.667L118.667 254.333M235 254L236 255L235 254M275 254L276 255L275 254M313 254L314 255L313 254z"/>
<path style="fill:#a2acae; stroke:none;" d="M392 254L393 255L392 254z"/>
<path style="fill:#5c686a; stroke:none;" d="M90 255L91 256L90 255M116 255L117 256L116 255M194 255L195 256L194 255M238 255L239 256L238 255M272.667 255.333L273.333 255.667L272.667 255.333M8 256L9 257L8 256M93 256L93 257L96 257L93 256M112.667 256.333L113.333 256.667L112.667 256.333M195 256L196 257L195 256M242 256L242 257L245 257L242 256M268.667 256.333L269.333 256.667L268.667 256.333M311 256L312 257L311 256M391 256L392 257L391 256z"/>
<path style="fill:#a2acae; stroke:none;" d="M8 257L9 258L8 257z"/>
<path style="fill:#5c686a; stroke:none;" d="M99 257L99 258L109 258L99 257M247 257L247 258L253 258L247 257M260 257L260 258L266 258L260 257M310 257L311 258L310 257z"/>
<path style="fill:#a2acae; stroke:none;" d="M391 257L392 258L391 257z"/>
<path style="fill:#5c686a; stroke:none;" d="M198 258L199 259L198 258M309 258L310 259L309 258M9 259L10 260L9 259M390 259L391 260L390 259z"/>
<path style="fill:#a2acae; stroke:none;" d="M9.33333 260.667L9.66667 261.333L9.33333 260.667z"/>
<path style="fill:#5c686a; stroke:none;" d="M201 260L202 261L201 260z"/>
<path style="fill:#a2acae; stroke:none;" d="M390.333 260.667L390.667 261.333L390.333 260.667z"/>
<path style="fill:#5c686a; stroke:none;" d="M202 261L203 262L202 261M305 261L306 262L305 261M10 262L11 263L10 262M204 262L205 263L204 262M304 262L305 263L304 262M389 262L390 263L389 262z"/>
<path style="fill:#a2acae; stroke:none;" d="M10.3333 263.667L10.6667 264.333L10.3333 263.667M389.333 263.667L389.667 264.333L389.333 263.667z"/>
<path style="fill:#5c686a; stroke:none;" d="M207 264L208 265L207 264M301 264L302 265L301 264M11.3333 265.667L11.6667 266.333L11.3333 265.667M209 265L210 266L209 265M388.333 265.667L388.667 266.333L388.333 265.667M211 266L212 267L211 266M298 266L299 267L298 266z"/>
<path style="fill:#a2acae; stroke:none;" d="M11 267L12 268L11 267z"/>
<path style="fill:#5c686a; stroke:none;" d="M296 267L297 268L296 267z"/>
<path style="fill:#a2acae; stroke:none;" d="M388 267L389 268L388 267z"/>
<path style="fill:#5c686a; stroke:none;" d="M12 268L13 269L12 268M214 268L215 269L214 268M295 268L296 269L295 268M387 268L388 269L387 268z"/>
<path style="fill:#a2acae; stroke:none;" d="M12 269L13 270L12 269z"/>
<path style="fill:#5c686a; stroke:none;" d="M216.667 269.333L217.333 269.667L216.667 269.333M293 269L294 270L293 269z"/>
<path style="fill:#a2acae; stroke:none;" d="M387 269L388 270L387 269z"/>
<path style="fill:#5c686a; stroke:none;" d="M218.667 270.333L219.333 270.667L218.667 270.333M291 270L292 271L291 270M13 271L14 272L13 271M221 271L222 272L221 271M289 271L290 272L289 271M386 271L387 272L386 271z"/>
<path style="fill:#a2acae; stroke:none;" d="M13 272L14 273L13 272z"/>
<path style="fill:#5c686a; stroke:none;" d="M223 272L224 273L223 272M287 272L288 273L287 272z"/>
<path style="fill:#a2acae; stroke:none;" d="M386 272L387 273L386 272z"/>
<path style="fill:#5c686a; stroke:none;" d="M14 273L15 274L14 273M225.667 273.333L226.333 273.667L225.667 273.333M284 273L285 274L284 273M385 273L386 274L385 273z"/>
<path style="fill:#a2acae; stroke:none;" d="M14.3333 274.667L14.6667 275.333L14.3333 274.667z"/>
<path style="fill:#5c686a; stroke:none;" d="M228.667 274.333L229.333 274.667L228.667 274.333M281.667 274.333L282.333 274.667L281.667 274.333z"/>
<path style="fill:#a2acae; stroke:none;" d="M385.333 274.667L385.667 275.333L385.333 274.667z"/>
<path style="fill:#5c686a; stroke:none;" d="M232 275L233 276L232 275M278.667 275.333L279.333 275.667L278.667 275.333M15 276L16 277L15 276M235.667 276.333L236.333 276.667L235.667 276.333M274.667 276.333L275.333 276.667L274.667 276.333M384 276L385 277L384 276z"/>
<path style="fill:#a2acae; stroke:none;" d="M15 277L16 278L15 277z"/>
<path style="fill:#5c686a; stroke:none;" d="M240 277L241 278L240 277M270.667 277.333L271.333 277.667L270.667 277.333z"/>
<path style="fill:#a2acae; stroke:none;" d="M384 277L385 278L384 277z"/>
<path style="fill:#5c686a; stroke:none;" d="M16 278L17 279L16 278M245 278L245 279L250 279L245 278M262 278L262 279L267 279L262 278M383 278L384 279L383 278z"/>
<path style="fill:#a2acae; stroke:none;" d="M16 279L17 280L16 279M383 279L384 280L383 279z"/>
<path style="fill:#5c686a; stroke:none;" d="M17 281L18 282L17 281M382 281L383 282L382 281M18 283L19 284L18 283M381 283L382 284L381 283z"/>
<path style="fill:#a2acae; stroke:none;" d="M18 284L19 285L18 284M381 284L382 285L381 284z"/>
<path style="fill:#5c686a; stroke:none;" d="M19 285L20 286L19 285M380 285L381 286L380 285z"/>
<path style="fill:#a2acae; stroke:none;" d="M19 286L20 287L19 286M380 286L381 287L380 286z"/>
<path style="fill:#5c686a; stroke:none;" d="M20 287L21 288L20 287M379 287L380 288L379 287z"/>
<path style="fill:#a2acae; stroke:none;" d="M20 288L21 289L20 288M379 288L380 289L379 288z"/>
<path style="fill:#5c686a; stroke:none;" d="M21 289L22 290L21 289M378 289L379 290L378 289z"/>
<path style="fill:#a2acae; stroke:none;" d="M21 290L22 291L21 290M378 290L379 291L378 290z"/>
<path style="fill:#5c686a; stroke:none;" d="M22 291L23 292L22 291M377 291L378 292L377 291z"/>
<path style="fill:#a2acae; stroke:none;" d="M22 292L23 293L22 292M377 292L378 293L377 292z"/>
<path style="fill:#5c686a; stroke:none;" d="M23 293L24 294L23 293M376 293L377 294L376 293z"/>
<path style="fill:#a2acae; stroke:none;" d="M23 294L24 295L23 294M376 294L377 295L376 294z"/>
<path style="fill:#5c686a; stroke:none;" d="M24 295L25 296L24 295M375 295L376 296L375 295z"/>
<path style="fill:#a2acae; stroke:none;" d="M24 296L25 297L24 296M375 296L376 297L375 296M25 297L26 298L25 297M374 297L375 298L374 297M26 299L27 300L26 299M373 299L374 300L373 299z"/>
<path style="fill:#5c686a; stroke:none;" d="M27 300L28 301L27 300M372 300L373 301L372 300z"/>
<path style="fill:#a2acae; stroke:none;" d="M27 301L28 302L27 301M372 301L373 302L372 301M28 302L30 305L28 302M371 302L370 305L371 302z"/>
<path style="fill:#5c686a; stroke:none;" d="M29 303L30 304L29 303M370 303L371 304L370 303M30 305L31 306L30 305M369 305L370 306L369 305z"/>
<path style="fill:#a2acae; stroke:none;" d="M30 306L31 307L30 306M369 306L370 307L369 306M31 307L32 308L31 307M368 307L369 308L368 307z"/>
<path style="fill:#5c686a; stroke:none;" d="M32 308L33 309L32 308M367 308L368 309L367 308z"/>
<path style="fill:#a2acae; stroke:none;" d="M32 309L33 310L32 309M367 309L368 310L367 309M33 310L34 311L33 310M366 310L367 311L366 310z"/>
<path style="fill:#5c686a; stroke:none;" d="M34 311L35 312L34 311M365 311L366 312L365 311z"/>
<path style="fill:#a2acae; stroke:none;" d="M34 312L35 313L34 312M365 312L366 313L365 312z"/>
<path style="fill:#5c686a; stroke:none;" d="M35 313L36 314L35 313M364 313L365 314L364 313M36 314L37 315L36 314M363 314L364 315L363 314z"/>
<path style="fill:#a2acae; stroke:none;" d="M36 315L37 316L36 315M363 315L364 316L363 315M37 316L38 317L37 316M362 316L363 317L362 316z"/>
<path style="fill:#5c686a; stroke:none;" d="M38 317L39 318L38 317M361 317L362 318L361 317M39 318L40 319L39 318M360 318L361 319L360 318z"/>
<path style="fill:#a2acae; stroke:none;" d="M39 319L40 320L39 319M360 319L361 320L360 319M40 320L41 321L40 320M359 320L360 321L359 320z"/>
<path style="fill:#5c686a; stroke:none;" d="M41 321L43 323L41 321M358 321L357 323L358 321z"/>
<path style="fill:#a2acae; stroke:none;" d="M41 322L42 323L41 322M358 322L359 323L358 322M42 323L43 324L42 323M357 323L358 324L357 323M43 324L44 325L43 324M356 324L357 325L356 324M44 325L45 326L44 325M355 325L356 326L355 325z"/>
<path style="fill:#5c686a; stroke:none;" d="M45 326L46 327L45 326M354 326L355 327L354 326M46 327L48 329L46 327M353 327L352 329L353 327z"/>
<path style="fill:#a2acae; stroke:none;" d="M46 328L47 329L46 328M353 328L354 329L353 328M47 329L48 330L47 329M352 329L353 330L352 329M48 330L49 331L48 330M351 330L352 331L351 330M49 331L50 332L49 331M350 331L351 332L350 331z"/>
<path style="fill:#5c686a; stroke:none;" d="M50 332L51 333L50 332M349 332L350 333L349 332M51 333L52 334L51 333M348 333L349 334L348 333M52 334L53 335L52 334M347 334L348 335L347 334M53 335L56 338L53 335M346 335L344 338L346 335z"/>
<path style="fill:#a2acae; stroke:none;" d="M53 336L54 337L53 336M346 336L347 337L346 336M54 337L55 338L54 337M345 337L346 338L345 337M55 338L56 339L55 338M344 338L345 339L344 338M56 339L57 340L56 339M343 339L344 340L343 339M57 340L60 343L57 340z"/>
<path style="fill:#5c686a; stroke:none;" d="M58 340L59 341L58 340M341 340L340 342L341 340z"/>
<path style="fill:#a2acae; stroke:none;" d="M342 340L343 341L342 340z"/>
<path style="fill:#5c686a; stroke:none;" d="M59 341L60 342L59 341z"/>
<path style="fill:#a2acae; stroke:none;" d="M341 341L342 342L341 341M340 342L341 343L340 342M60 343L61 344L60 343M339 343L340 344L339 343M61 344L64 347L61 344z"/>
<path style="fill:#5c686a; stroke:none;" d="M62 344L63 345L62 344M337 344L335 347L337 344z"/>
<path style="fill:#a2acae; stroke:none;" d="M338 344L339 345L338 344z"/>
<path style="fill:#5c686a; stroke:none;" d="M63 345L64 346L63 345z"/>
<path style="fill:#a2acae; stroke:none;" d="M337 345L338 346L337 345z"/>
<path style="fill:#5c686a; stroke:none;" d="M64 346L65 347L64 346z"/>
<path style="fill:#a2acae; stroke:none;" d="M336 346L337 347L336 346z"/>
<path style="fill:#5c686a; stroke:none;" d="M65 347L66 348L65 347M334 347L335 348L334 347M66 348L67 349L66 348M333 348L334 349L333 348M67 349L68 350L67 349M332 349L333 350L332 349z"/>
<path style="fill:#a2acae; stroke:none;" d="M68 350L69 351L68 350M331 350L332 351L331 350M69 351L70 352L69 351M330 351L331 352L330 351M70 352L71 353L70 352M329 352L330 353L329 352M71 353L72 354L71 353z"/>
<path style="fill:#5c686a; stroke:none;" d="M72 353L73 354L72 353M327 353L328 354L327 353z"/>
<path style="fill:#a2acae; stroke:none;" d="M328 353L329 354L328 353z"/>
<path style="fill:#5c686a; stroke:none;" d="M73 354L74 355L73 354M326 354L327 355L326 354z"/>
<path style="fill:#a2acae; stroke:none;" d="M74 355L75 356L74 355M325 355L326 356L325 355M75 356L76 357L75 356M324 356L325 357L324 356M76 357L78 359L76 357z"/>
<path style="fill:#5c686a; stroke:none;" d="M77 357L78 358L77 357M322 357L321 359L322 357z"/>
<path style="fill:#a2acae; stroke:none;" d="M323 357L324 358L323 357z"/>
<path style="fill:#5c686a; stroke:none;" d="M78 358L79 359L78 358z"/>
<path style="fill:#a2acae; stroke:none;" d="M322 358L323 359L322 358M79 359L80 360L79 359M320 359L321 360L320 359M80 360L81 361L80 360z"/>
<path style="fill:#5c686a; stroke:none;" d="M81 360L82 361L81 360M318 360L319 361L318 360z"/>
<path style="fill:#a2acae; stroke:none;" d="M319 360L320 361L319 360z"/>
<path style="fill:#5c686a; stroke:none;" d="M82 361L83 362L82 361M317 361L318 362L317 361z"/>
<path style="fill:#a2acae; stroke:none;" d="M83 362L84 363L83 362M316 362L317 363L316 362M84 363L85 364L84 363z"/>
<path style="fill:#5c686a; stroke:none;" d="M85 363L86 364L85 363M314 363L315 364L314 363z"/>
<path style="fill:#a2acae; stroke:none;" d="M315 363L316 364L315 363M86 364L87 365L86 364M313 364L314 365L313 364M87 365L88 366L87 365z"/>
<path style="fill:#5c686a; stroke:none;" d="M88 365L89 366L88 365M311 365L312 366L311 365z"/>
<path style="fill:#a2acae; stroke:none;" d="M312 365L313 366L312 365M89 366L90 367L89 366M310 366L311 367L310 366M90 367L91 368L90 367z"/>
<path style="fill:#5c686a; stroke:none;" d="M91 367L92 368L91 367M308 367L309 368L308 367z"/>
<path style="fill:#a2acae; stroke:none;" d="M309 367L310 368L309 367M92 368L93 369L92 368M307 368L308 369L307 368M93 369L94 370L93 369z"/>
<path style="fill:#5c686a; stroke:none;" d="M94 369L95 370L94 369M305 369L306 370L305 369z"/>
<path style="fill:#a2acae; stroke:none;" d="M306 369L307 370L306 369M95 370L98 372L98 371L95 370z"/>
<path style="fill:#5c686a; stroke:none;" d="M96 370L97 371L96 370M303 370L304 371L303 370z"/>
<path style="fill:#a2acae; stroke:none;" d="M304 370L305 371L304 370M302.667 371.333L303.333 371.667L302.667 371.333M98 372L99 373L98 372z"/>
<path style="fill:#5c686a; stroke:none;" d="M99 372L100 373L99 372M300 372L301 373L300 372z"/>
<path style="fill:#a2acae; stroke:none;" d="M301 372L302 373L301 372M100 373L101 374L100 373M299 373L300 374L299 373M102 374L103 375L102 374M297 374L298 375L297 374M103 375L104 376L103 375z"/>
<path style="fill:#5c686a; stroke:none;" d="M104 375L104 376L107 377L104 375M293 377L296 376L293 377z"/>
<path style="fill:#a2acae; stroke:none;" d="M296 375L297 376L296 375M105 376L106 377L105 376M294 376L295 377L294 376M107 377L108 378L107 377z"/>
<path style="fill:#5c686a; stroke:none;" d="M108 377L109 378L108 377M291 377L292 378L291 377z"/>
<path style="fill:#a2acae; stroke:none;" d="M292 377L293 378L292 377M109 378L110 379L109 378z"/>
<path style="fill:#5c686a; stroke:none;" d="M110 378L111 379L110 378M289 378L290 379L289 378z"/>
<path style="fill:#a2acae; stroke:none;" d="M290 378L291 379L290 378M111 379L112 380L111 379z"/>
<path style="fill:#5c686a; stroke:none;" d="M112 379L113 380L112 379M287 379L288 380L287 379z"/>
<path style="fill:#a2acae; stroke:none;" d="M288 379L289 380L288 379M113 380L114 381L113 380z"/>
<path style="fill:#5c686a; stroke:none;" d="M114 380L115 381L114 380M285 380L286 381L285 380z"/>
<path style="fill:#a2acae; stroke:none;" d="M286 380L287 381L286 380M115 381L116 382L115 381z"/>
<path style="fill:#5c686a; stroke:none;" d="M116 381L117 382L116 381M283 381L284 382L283 381z"/>
<path style="fill:#a2acae; stroke:none;" d="M284 381L285 382L284 381z"/>
<path style="fill:#5c686a; stroke:none;" d="M118 382L119 383L118 382M281 382L282 383L281 382z"/>
<path style="fill:#a2acae; stroke:none;" d="M120 383L121 384L120 383z"/>
<path style="fill:#5c686a; stroke:none;" d="M121 383L122 384L121 383M278 383L279 384L278 383z"/>
<path style="fill:#a2acae; stroke:none;" d="M279 383L280 384L279 383M122 384L123 385L122 384z"/>
<path style="fill:#5c686a; stroke:none;" d="M123 384L124 385L123 384M276 384L277 385L276 384z"/>
<path style="fill:#a2acae; stroke:none;" d="M277 384L278 385L277 384M124.667 385.333L125.333 385.667L124.667 385.333z"/>
<path style="fill:#5c686a; stroke:none;" d="M126 385L127 386L126 385M273 385L274 386L273 385z"/>
<path style="fill:#a2acae; stroke:none;" d="M274 385L275 386L274 385M127 386L128 387L127 386z"/>
<path style="fill:#5c686a; stroke:none;" d="M128 386L129 387L128 386M271 386L272 387L271 386z"/>
<path style="fill:#a2acae; stroke:none;" d="M272 386L273 387L272 386M130 387L131 388L130 387z"/>
<path style="fill:#5c686a; stroke:none;" d="M131 387L132 388L131 387M268 387L269 388L268 387z"/>
<path style="fill:#a2acae; stroke:none;" d="M269 387L270 388L269 387M132 388L133 389L132 388z"/>
<path style="fill:#5c686a; stroke:none;" d="M133.667 388.333L134.333 388.667L133.667 388.333M265.667 388.333L266.333 388.667L265.667 388.333z"/>
<path style="fill:#a2acae; stroke:none;" d="M267 388L268 389L267 388M135.667 389.333L136.333 389.667L135.667 389.333z"/>
<path style="fill:#5c686a; stroke:none;" d="M137 389L138 390L137 389M262 389L263 390L262 389z"/>
<path style="fill:#a2acae; stroke:none;" d="M263.667 389.333L264.333 389.667L263.667 389.333M139 390L140 391L139 390z"/>
<path style="fill:#5c686a; stroke:none;" d="M140 390L141 391L140 390M259 390L260 391L259 390z"/>
<path style="fill:#a2acae; stroke:none;" d="M260 390L261 391L260 390M142 391L143 392L142 391z"/>
<path style="fill:#5c686a; stroke:none;" d="M143 391L144 392L143 391M256 391L257 392L256 391z"/>
<path style="fill:#a2acae; stroke:none;" d="M257 391L258 392L257 391M144.667 392.333L145.333 392.667L144.667 392.333z"/>
<path style="fill:#5c686a; stroke:none;" d="M146.667 392.333L147.333 392.667L146.667 392.333M252.667 392.333L253.333 392.667L252.667 392.333z"/>
<path style="fill:#a2acae; stroke:none;" d="M254.667 392.333L255.333 392.667L254.667 392.333M148.667 393.333L149.333 393.667L148.667 393.333z"/>
<path style="fill:#5c686a; stroke:none;" d="M150.667 393.333L151.333 393.667L150.667 393.333M248.667 393.333L249.333 393.667L248.667 393.333z"/>
<path style="fill:#a2acae; stroke:none;" d="M250.667 393.333L251.333 393.667L250.667 393.333M153 394L154 395L153 394z"/>
<path style="fill:#5c686a; stroke:none;" d="M154.667 394.333L155.333 394.667L154.667 394.333M244.667 394.333L245.333 394.667L244.667 394.333z"/>
<path style="fill:#a2acae; stroke:none;" d="M246.667 394.333L247.333 394.667L246.667 394.333M157 395L158 396L157 395z"/>
<path style="fill:#5c686a; stroke:none;" d="M158.667 395.333L159.333 395.667L158.667 395.333M240.667 395.333L241.333 395.667L240.667 395.333z"/>
<path style="fill:#a2acae; stroke:none;" d="M242 395L243 396L242 395M161.667 396.333L162.333 396.667L161.667 396.333z"/>
<path style="fill:#5c686a; stroke:none;" d="M163 396L163 397L166 397L163 396M234 396L234 397L237 397L234 396z"/>
<path style="fill:#a2acae; stroke:none;" d="M237.667 396.333L238.333 396.667L237.667 396.333M166 397L166 398L170 398L166 397z"/>
<path style="fill:#5c686a; stroke:none;" d="M170 397L170 398L173 398L170 397M227 397L227 398L230 398L227 397z"/>
<path style="fill:#a2acae; stroke:none;" d="M230 397L230 398L234 398L230 397M173 398L173 399L178 399L173 398z"/>
<path style="fill:#5c686a; stroke:none;" d="M178 398L178 399L182 399L178 398M218 398L218 399L222 399L218 398z"/>
<path style="fill:#a2acae; stroke:none;" d="M222 398L222 399L227 399L222 398M184 399L184 400L190 400L184 399z"/>
<path style="fill:#5c686a; stroke:none;" d="M190 399L190 400L198 400L190 399M202 399L202 400L210 400L202 399z"/>
<path style="fill:#a2acae; stroke:none;" d="M210 399L210 400L216 400L210 399z"/>
</svg>
