<?xml version="1.0" standalone="yes"?>
<svg xmlns="http://www.w3.org/2000/svg" width="400" height="400">
<path style="fill:#fbfeff; stroke:none;" d="M0 0L0 400L400 400L400 0L0 0z"/>
<path style="fill:#aceffe; stroke:none;" d="M294 86L295 87L294 86M11 250C19.525 248.356 27.5307 241.71 35 237.427C50.6926 228.431 66.2818 219.237 82 210.281C88.1776 206.761 102.601 201.761 105.397 194.896C108.797 186.546 106 171.993 106 163L106 87C98.5149 89.3695 91.8685 94.6031 85 98.3712C68.1553 107.612 51.6903 117.623 35 127.15C29.0488 130.548 14.4656 135.927 11.6034 142.329C8.0629 150.248 11 165.343 11 174L11 250z"/>
<path style="fill:#5d7d97; stroke:none;" d="M106 87L106 196L201 142L201 141L151.17 112.891L130 102C125.696 95.2957 113.234 90.117 106 87z"/>
<path style="fill:#aceffe; stroke:none;" d="M107 87L108 88L107 87z"/>
<path style="fill:#456080; stroke:none;" d="M12 250L12 252L54 276.281L74 286L87 295.281L106 305.003L122 296.85L160 274.989L390 142C384.577 135.669 375.143 132.184 368 127.989C352.059 118.627 335.885 109.656 320 100.201C313.961 96.6063 302.208 86.861 295 87.7114C286.916 88.6653 276.933 97.2879 270 101.397C252.125 111.989 233.971 122.145 216 132.576C171.713 158.278 127.284 183.723 83 209.424C59.8683 222.849 36.5491 239.422 12 250z"/>
<path style="fill:#a8bac8; stroke:none;" d="M297 87L298 88L297 87z"/>
<path style="fill:#5d7d97; stroke:none;" d="M292 88L293 89L292 88z"/>
<path style="fill:#aceffe; stroke:none;" d="M299 88L300 89L299 88z"/>
<path style="fill:#a8bac8; stroke:none;" d="M112 90L113 91L112 90M304 91L305 92L304 91M285 92L286 93L285 92M119 94L120 95L119 94z"/>
<path style="fill:#5d7d97; stroke:none;" d="M309 94L310 95L309 94z"/>
<path style="fill:#aceffe; stroke:none;" d="M121 95L122 96L121 95z"/>
<path style="fill:#5d7d97; stroke:none;" d="M280 95L281 96L280 95z"/>
<path style="fill:#a8bac8; stroke:none;" d="M311 95L312 96L311 95M278 96L279 97L278 96z"/>
<path style="fill:#456080; stroke:none;" d="M121 97L122 98L121 97z"/>
<path style="fill:#a8bac8; stroke:none;" d="M126 98L127 99L126 98z"/>
<path style="fill:#5d7d97; stroke:none;" d="M273 99L274 100L273 99z"/>
<path style="fill:#a8bac8; stroke:none;" d="M318 99L319 100L318 99z"/>
<path style="fill:#456080; stroke:none;" d="M126 100L127 101L126 100z"/>
<path style="fill:#aceffe; stroke:none;" d="M271 100L272 101L271 100z"/>
<path style="fill:#456080; stroke:none;" d="M122 101L123 102L122 101M130 101L131 102L130 101z"/>
<path style="fill:#aceffe; stroke:none;" d="M133 102L134 103L133 102z"/>
<path style="fill:#5d7d97; stroke:none;" d="M268 102L269 103L268 102M323 102L324 103L323 102z"/>
<path style="fill:#a8bac8; stroke:none;" d="M266 103L267 104L266 103M325 103L326 104L325 103z"/>
<path style="fill:#aceffe; stroke:none;" d="M264 104L265 105L264 104z"/>
<path style="fill:#a8bac8; stroke:none;" d="M138 105L139 106L138 105z"/>
<path style="fill:#aceffe; stroke:none;" d="M140 106L141 107L140 106z"/>
<path style="fill:#5d7d97; stroke:none;" d="M261 106L262 107L261 106z"/>
<path style="fill:#a8bac8; stroke:none;" d="M330 106L331 107L330 106z"/>
<path style="fill:#456080; stroke:none;" d="M138 107L139 108L138 107M141 107L142 108L141 107z"/>
<path style="fill:#a8bac8; stroke:none;" d="M259 107L260 108L259 107M145 109L146 110L145 109z"/>
<path style="fill:#5d7d97; stroke:none;" d="M254 110L255 111L254 110z"/>
<path style="fill:#a8bac8; stroke:none;" d="M337 110L338 111L337 110M252 111L253 112L252 111z"/>
<path style="fill:#456080; stroke:none;" d="M149 112L150 113L149 112z"/>
<path style="fill:#a8bac8; stroke:none;" d="M150 112L151 113L150 112M152 113L153 114L152 113z"/>
<path style="fill:#5d7d97; stroke:none;" d="M342 113L343 114L342 113z"/>
<path style="fill:#a8bac8; stroke:none;" d="M247 114L248 115L247 114M344 114L345 115L344 114z"/>
<path style="fill:#aceffe; stroke:none;" d="M159 117L160 118L159 117z"/>
<path style="fill:#5d7d97; stroke:none;" d="M349 117L350 118L349 117z"/>
<path style="fill:#456080; stroke:none;" d="M156 118L157 119L156 118z"/>
<path style="fill:#a8bac8; stroke:none;" d="M240 118L241 119L240 118z"/>
<path style="fill:#aceffe; stroke:none;" d="M351 118L352 119L351 118M238 119L239 120L238 119z"/>
<path style="fill:#a8bac8; stroke:none;" d="M164 120L165 121L164 120M166 121L167 122L166 121z"/>
<path style="fill:#5d7d97; stroke:none;" d="M235 121L236 122L235 121z"/>
<path style="fill:#a8bac8; stroke:none;" d="M356 121L357 122L356 121M233 122L234 123L233 122M171 124L172 125L171 124z"/>
<path style="fill:#5d7d97; stroke:none;" d="M228 125L229 126L228 125z"/>
<path style="fill:#a8bac8; stroke:none;" d="M363 125L364 126L363 125z"/>
<path style="fill:#aceffe; stroke:none;" d="M226 126L227 127L226 126z"/>
<path style="fill:#456080; stroke:none;" d="M174 127L175 128L174 127z"/>
<path style="fill:#a8bac8; stroke:none;" d="M178 128L179 129L178 128z"/>
<path style="fill:#5d7d97; stroke:none;" d="M368 128L369 129L368 128z"/>
<path style="fill:#a8bac8; stroke:none;" d="M221 129L222 130L221 129M370 129L371 130L370 129z"/>
<path style="fill:#aceffe; stroke:none;" d="M185 132L186 133L185 132z"/>
<path style="fill:#5d7d97; stroke:none;" d="M216 132L217 133L216 132M375 132L376 133L375 132z"/>
<path style="fill:#456080; stroke:none;" d="M186 133L187 134L186 133z"/>
<path style="fill:#a8bac8; stroke:none;" d="M214 133L215 134L214 133z"/>
<path style="fill:#456080; stroke:none;" d="M178 134L179 135L178 134M181 134L182 135L181 134z"/>
<path style="fill:#a8bac8; stroke:none;" d="M190 135L191 136L190 135z"/>
<path style="fill:#aceffe; stroke:none;" d="M192 136L193 137L192 136z"/>
<path style="fill:#5d7d97; stroke:none;" d="M209 136L210 137L209 136z"/>
<path style="fill:#a8bac8; stroke:none;" d="M382 136L383 137L382 136M207 137L208 138L207 137z"/>
<path style="fill:#aceffe; stroke:none;" d="M384 137L385 138L384 137z"/>
<path style="fill:#a8bac8; stroke:none;" d="M197 139L198 140L197 139z"/>
<path style="fill:#5d7d97; stroke:none;" d="M202 140L203 141L202 140z"/>
<path style="fill:#a8bac8; stroke:none;" d="M389 140L390 141L389 140z"/>
<path style="fill:#5d7d97; stroke:none;" d="M390 141L391 142L390 141z"/>
<path style="fill:#aceffe; stroke:none;" d="M390 142L391 143L390 142M387 143L388 144L387 143z"/>
<path style="fill:#a8bac8; stroke:none;" d="M385 144L386 145L385 144z"/>
<path style="fill:#5d7d97; stroke:none;" d="M383 145L384 146L383 145z"/>
<path style="fill:#aceffe; stroke:none;" d="M384 145L385 146L384 145M387 145L388 146L387 145M382 146L383 148L380 147L381 150L377 152L387 146L382 146z"/>
<path style="fill:#fbfeff; stroke:none;" d="M381.667 147.333L382.333 147.667L381.667 147.333z"/>
<path style="fill:#aceffe; stroke:none;" d="M389 147L390 148L389 147z"/>
<path style="fill:#a8bac8; stroke:none;" d="M378 148L379 149L378 148z"/>
<path style="fill:#fbfeff; stroke:none;" d="M377 149L377 150L381 148L377 149z"/>
<path style="fill:#aceffe; stroke:none;" d="M383 150C387.109 159.698 385 172.604 385 183L385 250L386 250L390 249L390 248L388 243L386 244L386 175C386 167.962 383.256 155.137 390 151L383 150z"/>
<path style="fill:#fbfeff; stroke:none;" d="M384 150L386 152L386 150L384 150z"/>
<path style="fill:#aceffe; stroke:none;" d="M373 151L373 156L372 156L371 153L370 153L369 154L368 154L369 157L376 157L376 151L375 151L373 151z"/>
<path style="fill:#fbfeff; stroke:none;" d="M374.333 151.667L374.667 152.333L374.333 151.667z"/>
<path style="fill:#a8bac8; stroke:none;" d="M371 152L372 153L371 152z"/>
<path style="fill:#fbfeff; stroke:none;" d="M372 152L372 156L373 156L372 152M369 154L369 156L371 154L369 154z"/>
<path style="fill:#aceffe; stroke:none;" d="M375 154L376 155L375 154z"/>
<path style="fill:#a8bac8; stroke:none;" d="M366 155L367 156L366 155M364 156L365 157L364 156z"/>
<path style="fill:#fbfeff; stroke:none;" d="M365 156L366 157L365 156z"/>
<path style="fill:#aceffe; stroke:none;" d="M366 156L367 157L366 156M365 157L366 158L365 157M368 157L367 159L369 159L368 157M364 158L365 159L364 158M371 158L372 159L371 158M374.667 158.333L375.333 158.667L374.667 158.333z"/>
<path style="fill:#a8bac8; stroke:none;" d="M359 159L360 160L359 159z"/>
<path style="fill:#aceffe; stroke:none;" d="M362 159L363 160L362 159M366 159L367 160L366 159M370 159L371 160L370 159M372.667 159.333L373.333 159.667L372.667 159.333z"/>
<path style="fill:#5d7d97; stroke:none;" d="M357 160L358 161L357 160z"/>
<path style="fill:#aceffe; stroke:none;" d="M358 160L359 161L358 160z"/>
<path style="fill:#fbfeff; stroke:none;" d="M356 161L353 164L353 165L356 164L357 167L358 167L356 161z"/>
<path style="fill:#aceffe; stroke:none;" d="M357 161L358 162L357 161M354 162L351 166L354 162M358 162L358 165L359 165L360 162L358 162z"/>
<path style="fill:#a8bac8; stroke:none;" d="M352 163L353 164L352 163z"/>
<path style="fill:#aceffe; stroke:none;" d="M356 163L357 164L356 163z"/>
<path style="fill:#fbfeff; stroke:none;" d="M351 164L352 165L351 164z"/>
<path style="fill:#aceffe; stroke:none;" d="M355 164L353 167L355 164M357 165L358 166L357 165M347.333 166.667L347.667 167.333L347.333 166.667M349.333 166.667L349.667 167.333L349.333 166.667M356 166L357 167L356 166M358 166L359 167L358 166z"/>
<path style="fill:#5d7d97; stroke:none;" d="M345 167L346 168L345 167z"/>
<path style="fill:#aceffe; stroke:none;" d="M352 167L353 168L352 167M354 167L355 168L354 167M357 167L358 168L357 167M359 167L360 168L359 167z"/>
<path style="fill:#fbfeff; stroke:none;" d="M342 169L343 170L342 169z"/>
<path style="fill:#aceffe; stroke:none;" d="M343 169L344 170L343 169z"/>
<path style="fill:#a8bac8; stroke:none;" d="M340 170L341 171L340 170z"/>
<path style="fill:#aceffe; stroke:none;" d="M341 170L341 175L343 175L343 170L341 170z"/>
<path style="fill:#5d7d97; stroke:none;" d="M338 171L339 172L338 171z"/>
<path style="fill:#fbfeff; stroke:none;" d="M341 172L341 174L343 172L341 172z"/>
<path style="fill:#aceffe; stroke:none;" d="M335 173L336 174L335 173M337 173L338 174L337 173z"/>
<path style="fill:#a8bac8; stroke:none;" d="M333 174L334 175L333 174z"/>
<path style="fill:#aceffe; stroke:none;" d="M334 174L335 175L334 174M339 174L340 175L339 174M332 175L333 176L332 175M336 175L337 176L336 175M338 175L339 176L338 175M343 175L344 176L343 175z"/>
<path style="fill:#fbfeff; stroke:none;" d="M330 176L325 179L327 182L328 182L330 176z"/>
<path style="fill:#aceffe; stroke:none;" d="M331.333 176.667L331.667 177.333L331.333 176.667M334 176L334 181L335 181L334 176M328.667 177.333L329.333 177.667L328.667 177.333z"/>
<path style="fill:#fbfeff; stroke:none;" d="M334.333 177.667L334.667 178.333L334.333 177.667z"/>
<path style="fill:#5d7d97; stroke:none;" d="M326 178L327 179L326 178z"/>
<path style="fill:#aceffe; stroke:none;" d="M330 178L333 180L330 178M328 179L327 181L328 179M323 180L324 181L323 180M325 180L325 182L327 182L325 180M329 180L328 182L330 182L329 180z"/>
<path style="fill:#a8bac8; stroke:none;" d="M321 181L322 182L321 181z"/>
<path style="fill:#aceffe; stroke:none;" d="M333 181L331 184L333 181M335 181L336 182L335 181z"/>
<path style="fill:#5d7d97; stroke:none;" d="M318.667 182.333L319.333 182.667L318.667 182.333z"/>
<path style="fill:#aceffe; stroke:none;" d="M321 183L321 184L326 184L321 183M327 182L328 183L327 182M318 183L319 185L316 184L319 187L318 183M328 183L329 184L328 183M334 183L335 184L334 183z"/>
<path style="fill:#fbfeff; stroke:none;" d="M317.667 184.333L318.333 184.667L317.667 184.333z"/>
<path style="fill:#a8bac8; stroke:none;" d="M314 185L315 186L314 185z"/>
<path style="fill:#5d7d97; stroke:none;" d="M312 186L313 187L312 186z"/>
<path style="fill:#fbfeff; stroke:none;" d="M313 186L315 189L313 186z"/>
<path style="fill:#aceffe; stroke:none;" d="M315 186L316 187L315 186M313.333 187.667L313.667 188.333L313.333 187.667M316 187L317 188L316 187M309 188L310 189L309 188M315 188L316 189L315 188M319 188L320 189L319 188z"/>
<path style="fill:#a8bac8; stroke:none;" d="M307 189L308 190L307 189z"/>
<path style="fill:#aceffe; stroke:none;" d="M308 189L309 190L308 189M312.333 189.667L312.667 190.333L312.333 189.667M314 189L315 190L314 189M317 189L317 192L318 192L317 189M310 190L311 191L310 190M315 190L314 192L316 192L315 190M304 191L305 192L304 191M309 191L310 192L309 191M311 191L312 192L311 191M302 192L302 199L301 194L300 194L298 200L302 200L304 192L302 192z"/>
<path style="fill:#5d7d97; stroke:none;" d="M300 193L301 194L300 193z"/>
<path style="fill:#fbfeff; stroke:none;" d="M301 193L302 199L301 193z"/>
<path style="fill:#a8bac8; stroke:none;" d="M105 196L106 197L105 196z"/>
<path style="fill:#5d7d97; stroke:none;" d="M295 196C266.473 216.372 232.943 233.531 202 250L202 252L219 260L235 271L273 292.988L292 302L296 306L296 229L295 196z"/>
<path style="fill:#aceffe; stroke:none;" d="M296 198L297 199L296 198z"/>
<path style="fill:#5d7d97; stroke:none;" d="M100 199L101 200L100 199z"/>
<path style="fill:#aceffe; stroke:none;" d="M303 199L304 200L303 199z"/>
<path style="fill:#a8bac8; stroke:none;" d="M93 203L94 204L93 203z"/>
<path style="fill:#5d7d97; stroke:none;" d="M88 206L89 207L88 206z"/>
<path style="fill:#a8bac8; stroke:none;" d="M86 207L87 208L86 207z"/>
<path style="fill:#5d7d97; stroke:none;" d="M81 210L82 211L81 210z"/>
<path style="fill:#a8bac8; stroke:none;" d="M79 211L80 212L79 211z"/>
<path style="fill:#5d7d97; stroke:none;" d="M76 213L77 214L76 213M74 214L75 215L74 214z"/>
<path style="fill:#a8bac8; stroke:none;" d="M67 218L68 219L67 218z"/>
<path style="fill:#5d7d97; stroke:none;" d="M62 221L63 222L62 221z"/>
<path style="fill:#a8bac8; stroke:none;" d="M60 222L61 223L60 222z"/>
<path style="fill:#5d7d97; stroke:none;" d="M55 225L56 226L55 225z"/>
<path style="fill:#a8bac8; stroke:none;" d="M48 229L49 230L48 229z"/>
<path style="fill:#5d7d97; stroke:none;" d="M36 236L37 237L36 236z"/>
<path style="fill:#a8bac8; stroke:none;" d="M34 237L35 238L34 237z"/>
<path style="fill:#5d7d97; stroke:none;" d="M31 239L32 240L31 239z"/>
<path style="fill:#a8bac8; stroke:none;" d="M29 240L30 241L29 240z"/>
<path style="fill:#5d7d97; stroke:none;" d="M24 243L25 244L24 243z"/>
<path style="fill:#a8bac8; stroke:none;" d="M22 244L23 245L22 244z"/>
<path style="fill:#5d7d97; stroke:none;" d="M17 247L18 248L17 247z"/>
<path style="fill:#aceffe; stroke:none;" d="M378.667 248.333L379.333 248.667L378.667 248.333z"/>
<path style="fill:#5d7d97; stroke:none;" d="M11 251L12 252L11 251z"/>
<path style="fill:#a8bac8; stroke:none;" d="M201 251L202 252L201 251z"/>
<path style="fill:#5d7d97; stroke:none;" d="M198 252L199 253L198 252z"/>
<path style="fill:#aceffe; stroke:none;" d="M381 253L382 254L381 253z"/>
<path style="fill:#a8bac8; stroke:none;" d="M16 254L17 255L16 254z"/>
<path style="fill:#5d7d97; stroke:none;" d="M18 255L19 256L18 255z"/>
<path style="fill:#a8bac8; stroke:none;" d="M193 255L194 256L193 255M208 255L209 256L208 255z"/>
<path style="fill:#5d7d97; stroke:none;" d="M191 256L192 257L191 256z"/>
<path style="fill:#aceffe; stroke:none;" d="M368 257L369 258L368 257M376 257L377 258L376 257z"/>
<path style="fill:#a8bac8; stroke:none;" d="M23 258L24 259L23 258z"/>
<path style="fill:#456080; stroke:none;" d="M217 258L218 259L217 258z"/>
<path style="fill:#a8bac8; stroke:none;" d="M186 259L187 260L186 259M215 259L216 260L215 259z"/>
<path style="fill:#5d7d97; stroke:none;" d="M184 260L185 261L184 260z"/>
<path style="fill:#456080; stroke:none;" d="M218 260L219 261L218 260z"/>
<path style="fill:#aceffe; stroke:none;" d="M28 261L29 262L28 261z"/>
<path style="fill:#5d7d97; stroke:none;" d="M30 262L31 263L30 262z"/>
<path style="fill:#aceffe; stroke:none;" d="M220 262L221 263L220 262z"/>
<path style="fill:#a8bac8; stroke:none;" d="M179 263L180 264L179 263M222 263L223 264L222 263z"/>
<path style="fill:#aceffe; stroke:none;" d="M352 264L352 265L354 266L354 267L352 267L352 269L356 265L352 264M358 264L359 265L358 264M35 265L36 266L35 265z"/>
<path style="fill:#456080; stroke:none;" d="M226 265L227 266L226 265z"/>
<path style="fill:#5d7d97; stroke:none;" d="M37 266L38 267L37 266z"/>
<path style="fill:#a8bac8; stroke:none;" d="M227 266L228 267L227 266z"/>
<path style="fill:#5d7d97; stroke:none;" d="M172 267L173 268L172 267z"/>
<path style="fill:#a8bac8; stroke:none;" d="M42 269L43 270L42 269z"/>
<path style="fill:#456080; stroke:none;" d="M237 269L238 270L237 269z"/>
<path style="fill:#aceffe; stroke:none;" d="M356 269L357 270L356 269z"/>
<path style="fill:#5d7d97; stroke:none;" d="M44 270L45 271L44 270z"/>
<path style="fill:#a8bac8; stroke:none;" d="M167 270L168 271L167 270M234 270L235 271L234 270z"/>
<path style="fill:#5d7d97; stroke:none;" d="M165 271L166 272L165 271z"/>
<path style="fill:#aceffe; stroke:none;" d="M320 272L320 274L325 273L320 272M336 278L346 274C342.044 271.86 337.458 273.808 336 278M347 272L347 273L350 273L347 272z"/>
<path style="fill:#a8bac8; stroke:none;" d="M49 273L50 274L49 273M160 274L161 275L160 274M241 274L242 275L241 274z"/>
<path style="fill:#5d7d97; stroke:none;" d="M56 277L57 278L56 277z"/>
<path style="fill:#aceffe; stroke:none;" d="M155 277L156 278L155 277M246 277L247 278L246 277z"/>
<path style="fill:#456080; stroke:none;" d="M249 277L250 278L249 277z"/>
<path style="fill:#5d7d97; stroke:none;" d="M153 278L154 279L153 278z"/>
<path style="fill:#aceffe; stroke:none;" d="M321 282L321 284L332 281L321 282z"/>
<path style="fill:#a8bac8; stroke:none;" d="M61 280L62 281L61 280z"/>
<path style="fill:#5d7d97; stroke:none;" d="M63 281L64 282L63 281z"/>
<path style="fill:#a8bac8; stroke:none;" d="M148 281L149 282L148 281M253 281L254 282L253 281z"/>
<path style="fill:#456080; stroke:none;" d="M257 281L258 282L257 281z"/>
<path style="fill:#5d7d97; stroke:none;" d="M146 282L147 283L146 282z"/>
<path style="fill:#456080; stroke:none;" d="M262 283L263 284L262 283z"/>
<path style="fill:#aceffe; stroke:none;" d="M330.667 283.333L331.333 283.667L330.667 283.333z"/>
<path style="fill:#a8bac8; stroke:none;" d="M68 284L69 285L68 284z"/>
<path style="fill:#5d7d97; stroke:none;" d="M70 285L71 286L70 285z"/>
<path style="fill:#a8bac8; stroke:none;" d="M141 285L142 286L141 285M260 285L261 286L260 285z"/>
<path style="fill:#aceffe; stroke:none;" d="M328 285L329 286L328 285z"/>
<path style="fill:#5d7d97; stroke:none;" d="M73 286L74 287L73 286M139 286L140 287L139 286z"/>
<path style="fill:#aceffe; stroke:none;" d="M73 287L74 288L73 287z"/>
<path style="fill:#a8bac8; stroke:none;" d="M75 288L76 289L75 288z"/>
<path style="fill:#aceffe; stroke:none;" d="M296 291L299 288L296 291M315 288L315 289L318 289L315 288z"/>
<path style="fill:#a8bac8; stroke:none;" d="M134 289L135 290L134 289M267 289L268 290L267 289z"/>
<path style="fill:#456080; stroke:none;" d="M272 289L273 290L272 289z"/>
<path style="fill:#aceffe; stroke:none;" d="M312 289L312 291L314 291L314 289L312 289M80 291L81 292L80 291z"/>
<path style="fill:#5d7d97; stroke:none;" d="M82 292L83 293L82 292z"/>
<path style="fill:#aceffe; stroke:none;" d="M129 292L130 293L129 292M272 292L273 293L272 292z"/>
<path style="fill:#5d7d97; stroke:none;" d="M127 293L128 294L127 293z"/>
<path style="fill:#aceffe; stroke:none;" d="M300 297L300 298L309 297L308 293L300 297z"/>
<path style="fill:#a8bac8; stroke:none;" d="M87 295L88 296L87 295z"/>
<path style="fill:#5d7d97; stroke:none;" d="M89 296L90 297L89 296z"/>
<path style="fill:#a8bac8; stroke:none;" d="M122 296L123 297L122 296z"/>
<path style="fill:#aceffe; stroke:none;" d="M279 296L280 297L279 296z"/>
<path style="fill:#5d7d97; stroke:none;" d="M120 297L121 298L120 297z"/>
<path style="fill:#a8bac8; stroke:none;" d="M281 297L282 298L281 297z"/>
<path style="fill:#aceffe; stroke:none;" d="M296 297L296 303L297 303L299 297L296 297M94 299L95 300L94 299z"/>
<path style="fill:#5d7d97; stroke:none;" d="M96 300L97 301L96 300z"/>
<path style="fill:#a8bac8; stroke:none;" d="M115 300L116 301L115 300M286 300L287 301L286 300z"/>
<path style="fill:#456080; stroke:none;" d="M291 302L292 303L291 302z"/>
<path style="fill:#a8bac8; stroke:none;" d="M101 303L102 304L101 303M110 303L111 304L110 303z"/>
<path style="fill:#5d7d97; stroke:none;" d="M103 304L104 305L103 304M108 304L109 305L108 304z"/>
<path style="fill:#a8bac8; stroke:none;" d="M293 304L294 305L293 304z"/>
</svg>
