<?xml version="1.0" standalone="yes"?>
<svg xmlns="http://www.w3.org/2000/svg" width="400" height="400">
<path style="fill:#f7f7f7; stroke:none;" d="M0 0L0 91C0 97.8837 -3.26365 117.401 2 122C1.47022 119.351 1.5722 118.393 4 119L3 114L15 96L13 94C16.7355 92.0651 18.0828 89.1303 18 85L22 84L29 74L42 57L49 51L59 41C58.8791 37.6152 67.106 33.1486 70 31C78.1609 24.9412 96.36 7.81778 107 9L117 4L116 2L125 1C114.973 -3.2077 97.8961 0 87 0L0 0z"/>
<path style="fill:#b9b7b8; stroke:none;" d="M125.667 0.333344L126.333 0.666656L125.667 0.333344z"/>
<path style="fill:#929292; stroke:none;" d="M127 0L128 1L127 0z"/>
<path style="fill:#030303; stroke:none;" d="M89 21L87 19C77.7774 28.5562 65.123 35.224 55.294 44.3549C32.3245 65.6932 11.0205 94.8225 1.66512 125.09C-2.21493 137.642 0 152.975 0 166L0 247C0 277.351 11.6332 300.468 29.2145 325C33.3461 330.765 41.7804 345.166 49 346C52.5404 356.124 72.7717 372.344 83 375L82 377C99.3556 380.568 113.668 396.457 132.134 399.806C144.924 402.125 159.992 400 173 400L256 400C273.918 400 287.071 392.718 302.593 384.481C306.385 382.469 315.346 379.439 316 375C326.113 373.563 347.603 355.774 351 346L353 347L362 337L361 335C368.439 332.212 372.146 322.256 376.569 316.116C386.171 302.785 397.003 284.467 399.675 268C401.234 258.395 400 247.722 400 238L400 166C400 154.485 401.77 141.301 399.486 130C395.091 108.255 380.432 86.8074 367.417 69.3349C358.995 58.0281 348.301 46.7412 337.42 37.76C331.164 32.5966 322.9 28.5153 318 22C313.754 21.693 311.497 18.6677 307.845 16.8349C296.999 11.3927 285.874 4.10385 274 1.13425C256.833 -3.15924 235.66 0 218 0C189.221 0 157.463 -3.81226 129 0.30014C118.601 1.80264 109.026 8.146 99.8657 12.8657C95.6102 15.0583 90.8402 16.3047 89 21z"/>
<path style="fill:#616161; stroke:none;" d="M271 0L272 1L271 0z"/>
<path style="fill:#929292; stroke:none;" d="M272 0L273 1L272 0z"/>
<path style="fill:#b9b7b8; stroke:none;" d="M273.667 0.333344L274.333 0.666656L273.667 0.333344z"/>
<path style="fill:#f7f7f7; stroke:none;" d="M275 0L275 1C283.967 2.39252 296.334 7.74603 303 14L336 34L335 36L342 39L341 41L353 49L363 64L368 70L370 69L373 77L378 84C381.67 87.0338 384.906 91.0653 385 96L391 107L397 114L398 122C403.264 117.401 400 97.8837 400 91L400 0L275 0z"/>
<path style="fill:#929292; stroke:none;" d="M122 1L123 2L122 1z"/>
<path style="fill:#616161; stroke:none;" d="M123 1L124 2L123 1M275 1L276 2L275 1z"/>
<path style="fill:#929292; stroke:none;" d="M276.667 1.33334L277.333 1.66666L276.667 1.33334z"/>
<path style="fill:#b9b7b8; stroke:none;" d="M278 1L279 2L278 1M116 2L118 4L118 2L116 2z"/>
<path style="fill:#929292; stroke:none;" d="M118 2L118 4L120 2L118 2z"/>
<path style="fill:#616161; stroke:none;" d="M120 2L121 3L120 2M279 2L281 4L279 2z"/>
<path style="fill:#929292; stroke:none;" d="M280 2L282 4L280 2z"/>
<path style="fill:#b9b7b8; stroke:none;" d="M281 2L282 3L281 2z"/>
<path style="fill:#616161; stroke:none;" d="M119 3L120 4L119 3z"/>
<path style="fill:#b9b7b8; stroke:none;" d="M282 3L283 4L282 3M113 4L110 5L110 6L114 5L113 4z"/>
<path style="fill:#929292; stroke:none;" d="M114 4L113 6L114 4z"/>
<path style="fill:#616161; stroke:none;" d="M115.667 4.33334L116.333 4.66666L115.667 4.33334M283 4L286 6L283 4z"/>
<path style="fill:#929292; stroke:none;" d="M285 4L285 5L290 7L290 6L285 4z"/>
<path style="fill:#b9b7b8; stroke:none;" d="M286 4L287 5L286 4z"/>
<path style="fill:#616161; stroke:none;" d="M114 5L115 6L114 5M186 5L186 6L213 6L186 5z"/>
<path style="fill:#b9b7b8; stroke:none;" d="M288.667 5.33334L289.333 5.66666L288.667 5.33334z"/>
<path style="fill:#929292; stroke:none;" d="M110.667 6.33334L111.333 6.66666L110.667 6.33334z"/>
<path style="fill:#616161; stroke:none;" d="M178 6L178 7L184 7L178 6z"/>
<path style="fill:#929292; stroke:none;" d="M175 7L175 8L192 7L175 7z"/>
<path style="fill:#b9b7b8; stroke:none;" d="M27 116L25 115L12 159L10 158L7 221L9 220L10 241L14 241C4.21242 217.934 12.8033 191.764 13 168L14 168L14 170L15 170C14.5038 161.236 17.782 143.43 24 137L23 133L25 128L26 128L26 130L27 130L32 119L30 116L40 105L39 102L48 94L50 87L55 81C67.7078 78.9834 75.5126 57.4814 89 54L92 51L91 49L109 41L109 40L107 40L107 39L112 39L112 38L110 38L110 37L149 24L148 22L176 19L176 18L170 18L170 17C196.177 17 220.248 15.3056 246 21.7037C260.581 25.3262 275.298 35.7862 290 37L290 38L287 38L287 39C306.964 41.6017 327.844 66.2882 340.827 79.9105C345.28 84.5821 351.628 97.0407 358 98L372.472 127.222L378 135L376 139L379 140L386 178L387 178L387 176L388 176L388 190L389 190L389 187L390 187L389.961 219L389 234L386 238L390 240L392.981 184.015L388 151L386 152C385.902 140.1 379.886 128.13 374.59 117.704C366.94 102.647 359.642 87.7627 348.204 75.0108C337.396 62.9604 323.84 53.7086 313 42L311 43C306.842 35.5111 286.585 23.5911 278 24C274.424 19.2694 265.606 17.4928 260.089 15.9113C245.25 11.6581 231.218 9.68726 216 7.71063C158.351 0.222931 101.025 25.2119 60.7539 65.5864C48.348 78.024 29.4577 97.8336 27 116z"/>
<path style="fill:#929292; stroke:none;" d="M209 6L209 7L226 8L209 6z"/>
<path style="fill:#616161; stroke:none;" d="M216 6L216 7L222 7L216 6z"/>
<path style="fill:#b9b7b8; stroke:none;" d="M107 7L108 8L107 7z"/>
<path style="fill:#929292; stroke:none;" d="M108 7L107 9L109 9L108 7z"/>
<path style="fill:#616161; stroke:none;" d="M109 7L110 8L109 7M166 8L166 9L175 8L166 8M226 7L226 8L233 9L226 7M288 7L288 8L291 8L288 7z"/>
<path style="fill:#b9b7b8; stroke:none;" d="M291.667 7.33334L292.333 7.66666L291.667 7.33334M105 8L106 9L105 8z"/>
<path style="fill:#929292; stroke:none;" d="M170 8L170 9L173 9L170 8M227 8L227 9L230 9L227 8M291.667 8.33334L292.333 8.66666L291.667 8.33334z"/>
<path style="fill:#b9b7b8; stroke:none;" d="M103 9L102 11L104 11L103 9z"/>
<path style="fill:#929292; stroke:none;" d="M104 9L105 10L104 9z"/>
<path style="fill:#616161; stroke:none;" d="M157 11L160 9L157 11z"/>
<path style="fill:#929292; stroke:none;" d="M160 11L163 9L160 11M236 9L236 10L240 11L240 10L236 9z"/>
<path style="fill:#616161; stroke:none;" d="M239 9L239 10L243 11L239 9z"/>
<path style="fill:#929292; stroke:none;" d="M295 9L296 10L295 9z"/>
<path style="fill:#b9b7b8; stroke:none;" d="M296 9L296 11L298 11L298 9L296 9z"/>
<path style="fill:#616161; stroke:none;" d="M104 10L105 11L104 10M295 10L296 11L295 10z"/>
<path style="fill:#929292; stroke:none;" d="M99 13L102 12L99 13z"/>
<path style="fill:#616161; stroke:none;" d="M145 13L145 14L153 12L145 13z"/>
<path style="fill:#929292; stroke:none;" d="M152 13L155 11L152 13M245 11L248 13L245 11z"/>
<path style="fill:#616161; stroke:none;" d="M247 11L248 12L247 11z"/>
<path style="fill:#929292; stroke:none;" d="M298 11L298 12L301 13L298 11z"/>
<path style="fill:#b9b7b8; stroke:none;" d="M93 16L99 13L93 16z"/>
<path style="fill:#616161; stroke:none;" d="M100.667 12.3333L101.333 12.6667L100.667 12.3333M248 12L248 13L255 14L248 12M298.667 12.3333L299.333 12.6667L298.667 12.3333z"/>
<path style="fill:#b9b7b8; stroke:none;" d="M301.667 12.3333L302.333 12.6667L301.667 12.3333z"/>
<path style="fill:#929292; stroke:none;" d="M97 13L98 14L97 13z"/>
<path style="fill:#616161; stroke:none;" d="M98 13L99 14L98 13z"/>
<path style="fill:#929292; stroke:none;" d="M147 13L148 14L147 13M251.667 13.3333L252.333 13.6667L251.667 13.3333z"/>
<path style="fill:#616161; stroke:none;" d="M301 13L302 14L301 13z"/>
<path style="fill:#929292; stroke:none;" d="M302 13L303 14L302 13z"/>
<path style="fill:#b9b7b8; stroke:none;" d="M304 13L305 14L304 13z"/>
<path style="fill:#616161; stroke:none;" d="M95.3333 14.6667L95.6667 15.3333L95.3333 14.6667M140 14L140 16L142 16L142 14L140 14z"/>
<path style="fill:#929292; stroke:none;" d="M142 14L142 16L144 14L142 14M257.333 14.6667L257.667 15.3333L257.333 14.6667z"/>
<path style="fill:#616161; stroke:none;" d="M258 14L258 16L260 16L260 14L258 14M303 14L303 16L305 16L305 14L303 14z"/>
<path style="fill:#929292; stroke:none;" d="M305 14L306 15L305 14z"/>
<path style="fill:#b9b7b8; stroke:none;" d="M306 14L305 16L307 16L306 14M90.6667 16.3333L91.3333 16.6667L90.6667 16.3333z"/>
<path style="fill:#616161; stroke:none;" d="M92 16L93 17L92 16M135 16L136 17L135 16z"/>
<path style="fill:#929292; stroke:none;" d="M136.667 16.3333L137.333 16.6667L136.667 16.3333z"/>
<path style="fill:#f7f7f7; stroke:none;" d="M170 17L170 18L176 18L176 19L148 22L149 24L110 37L110 38L112 38L112 39L107 39L107 40L109 40L109 41L91 49L92 51L89 54C80.7172 54 67.6653 69.0428 62 74C59.0273 76.6011 58.3934 81.8484 55 81L50 87L48 94L39 102L40 105L30 116L32 119L27 130L26 130L26 128L25 128L23 133L24 137C17.6271 141.546 13.8158 162.539 15 170L14 170L14 168L13 168L9.87346 217L12 241L12 242L14 242L14 243L13 247L16 246L16 249L14 251L14 252L18 258L17 262L20 263L22 275L30 287C29.8295 290.791 30.7346 292.989 34 295C34.202 300.612 39.1965 307.175 44 310L47 318L50 318C50.362 325.629 69.1376 345.313 77 346C82.0554 356.128 97.3929 363.113 107 368.211C136.945 384.099 167.99 392 202 392C211.454 392 236.399 393.567 243 386C266.884 388.428 284.588 366.213 306 362L323 346L325 347C332.371 338.838 348.149 329.44 350 318L361 306L360 303L363 299L366 299L365 295C373.428 292.203 373.78 277.172 379 271L379 270L377 270L377 269L381 267L383 262L384 258L386 238L389 234L390 187L389 187L389 190L388 190L388 176L387 176L387 178L386 178L379 140L376 139L378 135L373 127.167L358 98C351.78 96.4144 346.041 84.6439 341.7 79.9105C331.93 69.2586 321.668 61.2018 310.665 52.0656C304.074 46.5928 295.894 39.597 287 39L287 38L290 38C251.221 17.1755 212.551 17 170 17z"/>
<path style="fill:#929292; stroke:none;" d="M262.667 16.3333L263.333 16.6667L262.667 16.3333z"/>
<path style="fill:#616161; stroke:none;" d="M264 16L265 17L264 16M307 16L308 17L307 16z"/>
<path style="fill:#b9b7b8; stroke:none;" d="M308.667 16.3333L309.333 16.6667L308.667 16.3333z"/>
<path style="fill:#929292; stroke:none;" d="M89.3333 17.6667L89.6667 18.3333L89.3333 17.6667z"/>
<path style="fill:#616161; stroke:none;" d="M130 17L130 19L132 19L132 17L130 17z"/>
<path style="fill:#929292; stroke:none;" d="M132.333 17.6667L132.667 18.3333L132.333 17.6667M267.333 17.6667L267.667 18.3333L267.333 17.6667z"/>
<path style="fill:#616161; stroke:none;" d="M268 17L268 19L270 19L270 17L268 17z"/>
<path style="fill:#929292; stroke:none;" d="M310.333 17.6667L310.667 18.3333L310.333 17.6667z"/>
<path style="fill:#b9b7b8; stroke:none;" d="M85 19L85 21L87 21L87 19L85 19z"/>
<path style="fill:#616161; stroke:none;" d="M88.3333 19.6667L88.6667 20.3333L88.3333 19.6667z"/>
<path style="fill:#929292; stroke:none;" d="M127.333 19.6667L127.667 20.3333L127.333 19.6667M271.333 19.6667L271.667 20.3333L271.333 19.6667z"/>
<path style="fill:#616161; stroke:none;" d="M272.333 19.6667L272.667 20.3333L272.333 19.6667M311 19L313 21L313 19L311 19z"/>
<path style="fill:#b9b7b8; stroke:none;" d="M313 19L313 21L315 21L315 19L313 19M80 24L84 22L80 24z"/>
<path style="fill:#616161; stroke:none;" d="M84 21L85 22L84 21M122.667 21.3333L123.333 21.6667L122.667 21.3333z"/>
<path style="fill:#929292; stroke:none;" d="M124 21L125 22L124 21M275 21L276 22L275 21z"/>
<path style="fill:#616161; stroke:none;" d="M276.667 21.3333L277.333 21.6667L276.667 21.3333M314 21L314 22L317 23L314 21z"/>
<path style="fill:#b9b7b8; stroke:none;" d="M316 21L317 22L316 21z"/>
<path style="fill:#616161; stroke:none;" d="M82 22L83 23L82 22M118 22L118 24L120 24L120 22L118 22z"/>
<path style="fill:#929292; stroke:none;" d="M120.333 22.6667L120.667 23.3333L120.333 22.6667M278 22L278 24L280 22L278 22z"/>
<path style="fill:#616161; stroke:none;" d="M280.333 22.6667L280.667 23.3333L280.333 22.6667z"/>
<path style="fill:#b9b7b8; stroke:none;" d="M318 22L318 24L320 24L320 22L318 22z"/>
<path style="fill:#929292; stroke:none;" d="M78 24L77 26L79 26L78 24z"/>
<path style="fill:#616161; stroke:none;" d="M79.3333 24.6667L79.6667 25.3333L79.3333 24.6667M115 24L112 26L112 27L116 25L115 24z"/>
<path style="fill:#929292; stroke:none;" d="M116 24L115 26L117 26L116 24z"/>
<path style="fill:#616161; stroke:none;" d="M283 24L283 25L289 28L283 24M320.333 24.6667L320.667 25.3333L320.333 24.6667z"/>
<path style="fill:#b9b7b8; stroke:none;" d="M321 24L322 25L321 24M75 25L73 29L77 25L75 25z"/>
<path style="fill:#929292; stroke:none;" d="M283.667 25.3333L284.333 25.6667L283.667 25.3333M321.667 25.3333L322.333 25.6667L321.667 25.3333M113 26L114 27L113 26M286 26L287 27L286 26z"/>
<path style="fill:#616161; stroke:none;" d="M322 26L325 28L325 27L322 26z"/>
<path style="fill:#b9b7b8; stroke:none;" d="M323.667 26.3333L324.333 26.6667L323.667 26.3333z"/>
<path style="fill:#616161; stroke:none;" d="M75.6667 27.3333L76.3333 27.6667L75.6667 27.3333M109.333 27.6667L109.667 28.3333L109.333 27.6667z"/>
<path style="fill:#929292; stroke:none;" d="M110.667 27.3333L111.333 27.6667L110.667 27.3333M287 27L288 28L287 27M289 27L290 28L289 27z"/>
<path style="fill:#616161; stroke:none;" d="M290.333 27.6667L290.667 28.3333L290.333 27.6667z"/>
<path style="fill:#b9b7b8; stroke:none;" d="M325 27L327 29L327 27L325 27z"/>
<path style="fill:#929292; stroke:none;" d="M74 28L75 29L74 28M325 28L326 29L325 28z"/>
<path style="fill:#616161; stroke:none;" d="M72.3333 29.6667L72.6667 30.3333L72.3333 29.6667M105 29L105 31L107 31L107 29L105 29M293 29L293 31L295 31L295 29L293 29M327.333 29.6667L327.667 30.3333L327.333 29.6667z"/>
<path style="fill:#b9b7b8; stroke:none;" d="M67 32L67 33L72 31L67 32M328 30L328 31L333 33L333 32L328 30z"/>
<path style="fill:#616161; stroke:none;" d="M70 31L71 32L70 31M103 31L104 32L103 31z"/>
<path style="fill:#929292; stroke:none;" d="M104 31L105 32L104 31M295 31L297 33L295 31z"/>
<path style="fill:#616161; stroke:none;" d="M296 31L297 32L296 31M329 31L330 32L329 31M69 32L70 33L69 32M100 32L100 34L102 32L100 32z"/>
<path style="fill:#929292; stroke:none;" d="M102.667 32.3333L103.333 32.6667L102.667 32.3333z"/>
<path style="fill:#616161; stroke:none;" d="M297 32L297 33L300 34L297 32M330 32L331 33L330 32z"/>
<path style="fill:#929292; stroke:none;" d="M67.6667 33.3333L68.3333 33.6667L67.6667 33.3333M101 33L102 34L101 33M298 33L299 34L298 33M331.667 33.3333L332.333 33.6667L331.667 33.3333z"/>
<path style="fill:#616161; stroke:none;" d="M65 34L65 36L67 36L67 34L65 34M97.3333 34.6667L97.6667 35.3333L97.3333 34.6667z"/>
<path style="fill:#929292; stroke:none;" d="M98.3333 34.6667L98.6667 35.3333L98.3333 34.6667M301.333 34.6667L301.667 35.3333L301.333 34.6667z"/>
<path style="fill:#616161; stroke:none;" d="M302.333 34.6667L302.667 35.3333L302.333 34.6667z"/>
<path style="fill:#929292; stroke:none;" d="M333.333 34.6667L333.667 35.3333L333.333 34.6667z"/>
<path style="fill:#b9b7b8; stroke:none;" d="M334 34L334 36L336 34L334 34M63 36L64 37L63 36z"/>
<path style="fill:#616161; stroke:none;" d="M64 36L65 37L64 36z"/>
<path style="fill:#929292; stroke:none;" d="M95 36L96 37L95 36M303.667 36.3333L304.333 36.6667L303.667 36.3333z"/>
<path style="fill:#616161; stroke:none;" d="M335 36L336 37L335 36z"/>
<path style="fill:#b9b7b8; stroke:none;" d="M336.667 36.3333L337.333 36.6667L336.667 36.3333M60 37L58 40L59 41L62 37L60 37z"/>
<path style="fill:#616161; stroke:none;" d="M62 37L63 38L62 37M92.3333 37.6667L92.6667 38.3333L92.3333 37.6667M307.333 37.6667L307.667 38.3333L307.333 37.6667z"/>
<path style="fill:#b9b7b8; stroke:none;" d="M338 37L341 41L342 40L338 37z"/>
<path style="fill:#616161; stroke:none;" d="M60.3333 39.6667L60.6667 40.3333L60.3333 39.6667z"/>
<path style="fill:#929292; stroke:none;" d="M90 39L90 41L92 41L92 39L90 39M308 39L310 41L310 39L308 39z"/>
<path style="fill:#616161; stroke:none;" d="M339.333 39.6667L339.667 40.3333L339.333 39.6667M310 40L311 41L310 40z"/>
<path style="fill:#b9b7b8; stroke:none;" d="M57 41L58 42L57 41z"/>
<path style="fill:#616161; stroke:none;" d="M58 41L59 42L58 41M87.6667 41.3333L88.3333 41.6667L87.6667 41.3333z"/>
<path style="fill:#929292; stroke:none;" d="M89 41L90 42L89 41z"/>
<path style="fill:#616161; stroke:none;" d="M311.667 41.3333L312.333 41.6667L311.667 41.3333M341 41L342 42L341 41z"/>
<path style="fill:#b9b7b8; stroke:none;" d="M342 41L343 42L342 41M55.6667 42.3333L56.3333 42.6667L55.6667 42.3333z"/>
<path style="fill:#929292; stroke:none;" d="M85 42L85 44L87 44L87 42L85 42M311 42L312 43L311 42M313.333 42.6667L313.667 43.3333L313.333 42.6667z"/>
<path style="fill:#616161; stroke:none;" d="M314.333 42.6667L314.667 43.3333L314.333 42.6667z"/>
<path style="fill:#b9b7b8; stroke:none;" d="M343.667 42.3333L344.333 42.6667L343.667 42.3333z"/>
<path style="fill:#929292; stroke:none;" d="M55.6667 43.3333L56.3333 43.6667L55.6667 43.3333M343.667 43.3333L344.333 43.6667L343.667 43.3333z"/>
<path style="fill:#b9b7b8; stroke:none;" d="M53 44L52 46L53 44z"/>
<path style="fill:#929292; stroke:none;" d="M54 44L55 45L54 44z"/>
<path style="fill:#616161; stroke:none;" d="M78 49L84 44L78 49M316 44L318 46L316 44z"/>
<path style="fill:#929292; stroke:none;" d="M345 44L346 45L345 44z"/>
<path style="fill:#b9b7b8; stroke:none;" d="M346 44L348 46L346 44z"/>
<path style="fill:#616161; stroke:none;" d="M53.6667 45.3333L54.3333 45.6667L53.6667 45.3333z"/>
<path style="fill:#929292; stroke:none;" d="M83 45L84 46L83 45M316 45L317 46L316 45z"/>
<path style="fill:#616161; stroke:none;" d="M345.667 45.3333L346.333 45.6667L345.667 45.3333M52 46L53 47L52 46z"/>
<path style="fill:#f7f7f7; stroke:none;" d="M95 46L96 47L95 46M305 46L306 47L305 46M308 46L309 47L308 46z"/>
<path style="fill:#616161; stroke:none;" d="M318 46L318 47L322 49L318 46z"/>
<path style="fill:#929292; stroke:none;" d="M347 46L348 47L347 46M50 47L52 49L52 47L50 47M80 47L81 48L80 47z"/>
<path style="fill:#f7f7f7; stroke:none;" d="M93 47L94 48L93 47z"/>
<path style="fill:#929292; stroke:none;" d="M318.667 47.3333L319.333 47.6667L318.667 47.3333M348 47L348 49L350 49L348 47z"/>
<path style="fill:#b9b7b8; stroke:none;" d="M349 47L350 48L349 47z"/>
<path style="fill:#616161; stroke:none;" d="M50 48L51 49L50 48z"/>
<path style="fill:#929292; stroke:none;" d="M79 48L80 49L79 48M320 48L321 49L320 48M49 49L50 50L49 49z"/>
<path style="fill:#616161; stroke:none;" d="M76 49L75 51L77 51L76 49z"/>
<path style="fill:#929292; stroke:none;" d="M322.333 49.6667L322.667 50.3333L322.333 49.6667M350 49L351 50L350 49z"/>
<path style="fill:#b9b7b8; stroke:none;" d="M352 49L351 51L353 51L352 49M47 50L48 51L47 50z"/>
<path style="fill:#616161; stroke:none;" d="M49 50L50 51L49 50M323.667 50.3333L324.333 50.6667L323.667 50.3333M350 50L351 51L350 50z"/>
<path style="fill:#929292; stroke:none;" d="M47.6667 51.3333L48.3333 51.6667L47.6667 51.3333M351.667 51.3333L352.333 51.6667L351.667 51.3333z"/>
<path style="fill:#b9b7b8; stroke:none;" d="M45.6667 52.3333L46.3333 52.6667L45.6667 52.3333z"/>
<path style="fill:#616161; stroke:none;" d="M47.6667 52.3333L48.3333 52.6667L47.6667 52.3333M73 52L72 54L73 52z"/>
<path style="fill:#929292; stroke:none;" d="M74 52L75 53L74 52z"/>
<path style="fill:#616161; stroke:none;" d="M325 52L325 53L328 54L325 52M351.667 52.3333L352.333 52.6667L351.667 52.3333z"/>
<path style="fill:#b9b7b8; stroke:none;" d="M353 52L355 54L355 52L353 52z"/>
<path style="fill:#929292; stroke:none;" d="M45.6667 53.3333L46.3333 53.6667L45.6667 53.3333M73 53L74 54L73 53M326 53L327 54L326 53M353 53L354 54L353 53z"/>
<path style="fill:#b9b7b8; stroke:none;" d="M43.3333 54.6667L43.6667 55.3333L43.3333 54.6667z"/>
<path style="fill:#929292; stroke:none;" d="M44.3333 54.6667L44.6667 55.3333L44.3333 54.6667z"/>
<path style="fill:#616161; stroke:none;" d="M70 54L70 56L72 56L72 54L70 54M328 54L328 56L330 56L330 54L328 54M354.333 54.6667L354.667 55.3333L354.333 54.6667z"/>
<path style="fill:#929292; stroke:none;" d="M355.333 54.6667L355.667 55.3333L355.333 54.6667M42.6667 56.3333L43.3333 56.6667L42.6667 56.3333z"/>
<path style="fill:#616161; stroke:none;" d="M69 56L70 57L69 56M330 56L331 57L330 56z"/>
<path style="fill:#929292; stroke:none;" d="M356.667 56.3333L357.333 56.6667L356.667 56.3333z"/>
<path style="fill:#b9b7b8; stroke:none;" d="M40 57L39 61L40 61L42 57L40 57z"/>
<path style="fill:#929292; stroke:none;" d="M67 57L67 59L69 59L67 57z"/>
<path style="fill:#616161; stroke:none;" d="M68 57L69 58L68 57z"/>
<path style="fill:#929292; stroke:none;" d="M331.333 57.6667L331.667 58.3333L331.333 57.6667z"/>
<path style="fill:#616161; stroke:none;" d="M332.333 57.6667L332.667 58.3333L332.333 57.6667z"/>
<path style="fill:#b9b7b8; stroke:none;" d="M358 57L362 61L358 57z"/>
<path style="fill:#616161; stroke:none;" d="M40.3333 59.6667L40.6667 60.3333L40.3333 59.6667z"/>
<path style="fill:#929292; stroke:none;" d="M65 59L65 61L67 61L67 59L65 59M333.333 59.6667L333.667 60.3333L333.333 59.6667z"/>
<path style="fill:#616161; stroke:none;" d="M334.333 59.6667L334.667 60.3333L334.333 59.6667M359.333 59.6667L359.667 60.3333L359.333 59.6667z"/>
<path style="fill:#b9b7b8; stroke:none;" d="M37 61L38 62L37 61z"/>
<path style="fill:#929292; stroke:none;" d="M38 61L39 62L38 61M64 61L65 62L64 61M335 61L336 62L335 61M361 61L362 62L361 61z"/>
<path style="fill:#b9b7b8; stroke:none;" d="M34 62L35 63L34 62z"/>
<path style="fill:#616161; stroke:none;" d="M37.3333 62.6667L37.6667 63.3333L37.3333 62.6667z"/>
<path style="fill:#929292; stroke:none;" d="M62 62L62 64L64 62L62 62M336 62L336 64L338 64L338 62L336 62z"/>
<path style="fill:#616161; stroke:none;" d="M362.333 62.6667L362.667 63.3333L362.333 62.6667z"/>
<path style="fill:#b9b7b8; stroke:none;" d="M363 62L364 63L363 62M364 63L365 64L364 63z"/>
<path style="fill:#616161; stroke:none;" d="M35 64L35 66L37 64L35 64M60 64L57 68L60 64z"/>
<path style="fill:#929292; stroke:none;" d="M61 64L60 66L62 66L61 64M338 64L341 69L342 69L338 64z"/>
<path style="fill:#616161; stroke:none;" d="M339 64L340 65L339 64M363 64L365 66L363 64z"/>
<path style="fill:#929292; stroke:none;" d="M364 64L365 65L364 64z"/>
<path style="fill:#b9b7b8; stroke:none;" d="M33 65L32 69L33 69L35 65L33 65z"/>
<path style="fill:#616161; stroke:none;" d="M340 65L341 66L340 65z"/>
<path style="fill:#b9b7b8; stroke:none;" d="M365 65L366 66L365 65z"/>
<path style="fill:#929292; stroke:none;" d="M34 66L35 67L34 66M59 66L60 67L59 66z"/>
<path style="fill:#616161; stroke:none;" d="M341 66L342 67L341 66z"/>
<path style="fill:#929292; stroke:none;" d="M365 66L366 67L365 66z"/>
<path style="fill:#616161; stroke:none;" d="M33.3333 67.6667L33.6667 68.3333L33.3333 67.6667z"/>
<path style="fill:#929292; stroke:none;" d="M58 67L59 68L58 67z"/>
<path style="fill:#616161; stroke:none;" d="M342.333 67.6667L342.667 68.3333L342.333 67.6667z"/>
<path style="fill:#b9b7b8; stroke:none;" d="M366 67L366 69L368 69L368 67L366 67z"/>
<path style="fill:#929292; stroke:none;" d="M57 68L58 69L57 68z"/>
<path style="fill:#b9b7b8; stroke:none;" d="M30 69L32 71L32 69L30 69z"/>
<path style="fill:#616161; stroke:none;" d="M55.6667 69.3333L56.3333 69.6667L55.6667 69.3333M343 69L343 71L345 69L343 69z"/>
<path style="fill:#b9b7b8; stroke:none;" d="M369 69L368 71L370 71L369 69z"/>
<path style="fill:#929292; stroke:none;" d="M30 70L31 71L30 70M55.6667 70.3333L56.3333 70.6667L55.6667 70.3333M344 70L345 71L344 70z"/>
<path style="fill:#616161; stroke:none;" d="M30.6667 71.3333L31.3333 71.6667L30.6667 71.3333M52 74L55 71L52 74M345 71L348 74L345 71M368.667 71.3333L369.333 71.6667L368.667 71.3333z"/>
<path style="fill:#b9b7b8; stroke:none;" d="M29 72L30 73L29 72z"/>
<path style="fill:#929292; stroke:none;" d="M54 72L55 73L54 72M345 72L346 73L345 72M370.333 72.6667L370.667 73.3333L370.333 72.6667z"/>
<path style="fill:#616161; stroke:none;" d="M29 73L30 74L29 73z"/>
<path style="fill:#929292; stroke:none;" d="M53 73L54 74L53 73M346 73L347 74L346 73z"/>
<path style="fill:#b9b7b8; stroke:none;" d="M27 74L27 76L29 74L27 74M371 74L374 76L371 74z"/>
<path style="fill:#929292; stroke:none;" d="M28 75L29 76L28 75z"/>
<path style="fill:#616161; stroke:none;" d="M349 75L350 76L349 75z"/>
<path style="fill:#b9b7b8; stroke:none;" d="M25.6667 76.3333L26.3333 76.6667L25.6667 76.3333M374.333 76.6667L374.667 77.3333L374.333 76.6667z"/>
<path style="fill:#616161; stroke:none;" d="M25 77L25 79L27 79L27 77L25 77z"/>
<path style="fill:#929292; stroke:none;" d="M49.3333 77.6667L49.6667 78.3333L49.3333 77.6667M350.333 77.6667L350.667 78.3333L350.333 77.6667z"/>
<path style="fill:#616161; stroke:none;" d="M373 77L375 80L373 77z"/>
<path style="fill:#929292; stroke:none;" d="M374 78L375 79L374 78M24 79L25 80L24 79z"/>
<path style="fill:#616161; stroke:none;" d="M47.6667 79.3333L48.3333 79.6667L47.6667 79.3333M351.667 79.3333L352.333 79.6667L351.667 79.3333z"/>
<path style="fill:#929292; stroke:none;" d="M375 79L376 80L375 79z"/>
<path style="fill:#b9b7b8; stroke:none;" d="M22 80L22 82L24 82L24 80L22 80z"/>
<path style="fill:#616161; stroke:none;" d="M45 80L45 82L47 82L47 80L45 80M353.333 80.6667L353.667 81.3333L353.333 80.6667z"/>
<path style="fill:#b9b7b8; stroke:none;" d="M376 80L379 83L376 80M19 82L20 83L19 82z"/>
<path style="fill:#616161; stroke:none;" d="M22 82L22 84L24 84L24 82L22 82M354.333 82.6667L354.667 83.3333L354.333 82.6667M376 82L376 84L378 84L378 82L376 82z"/>
<path style="fill:#b9b7b8; stroke:none;" d="M20 83L18 85L17 90L18 90L20 83z"/>
<path style="fill:#929292; stroke:none;" d="M21 84L20 86L21 84M44 84L45 85L44 84z"/>
<path style="fill:#b9b7b8; stroke:none;" d="M378 84L378 85L385 93L378 84z"/>
<path style="fill:#616161; stroke:none;" d="M21 85L22 86L21 85M42 85L42 87L44 85L42 85M356 85L358 87L358 85L356 85M378 85L380 87L378 85z"/>
<path style="fill:#929292; stroke:none;" d="M379 85L380 86L379 85z"/>
<path style="fill:#616161; stroke:none;" d="M20 86L21 87L20 86z"/>
<path style="fill:#929292; stroke:none;" d="M43 86L44 87L43 86M356 86L357 87L356 86z"/>
<path style="fill:#b9b7b8; stroke:none;" d="M382 86L383 87L382 86z"/>
<path style="fill:#616161; stroke:none;" d="M19.3333 87.6667L19.6667 88.3333L19.3333 87.6667M41.3333 87.6667L41.6667 88.3333L41.3333 87.6667M380.333 87.6667L380.667 88.3333L380.333 87.6667M358 88L359 89L358 88M18 89L17 92L18 89z"/>
<path style="fill:#929292; stroke:none;" d="M40 89L39 92L40 89M358 89L361 92L358 89z"/>
<path style="fill:#616161; stroke:none;" d="M381 89L383 92L381 89z"/>
<path style="fill:#929292; stroke:none;" d="M17 90L18 91L17 90z"/>
<path style="fill:#616161; stroke:none;" d="M39 90L40 91L39 90z"/>
<path style="fill:#b9b7b8; stroke:none;" d="M192 91L192 92L232 91L290 92L290 91L262 90L216 90L192 91z"/>
<path style="fill:#929292; stroke:none;" d="M382 90L383 91L382 90z"/>
<path style="fill:#616161; stroke:none;" d="M38 91L37 94L38 91z"/>
<path style="fill:#929292; stroke:none;" d="M193 91L193 92L288 92L259 91L193 91z"/>
<path style="fill:#616161; stroke:none;" d="M361 91L363 94L361 91z"/>
<path style="fill:#b9b7b8; stroke:none;" d="M15.6667 92.3333L16.3333 92.6667L15.6667 92.3333z"/>
<path style="fill:#616161; stroke:none;" d="M190 94L225 93L291 93C284.322 90.1979 274.216 92 267 92L214 92C208.167 92 193.981 89.4444 190 94z"/>
<path style="fill:#b9b7b8; stroke:none;" d="M291 92L295 96L291 92z"/>
<path style="fill:#929292; stroke:none;" d="M15.6667 93.3333L16.3333 93.6667L15.6667 93.3333M38 93L39 94L38 93z"/>
<path style="fill:#b9b7b8; stroke:none;" d="M188.667 93.3333L189.333 93.6667L188.667 93.3333z"/>
<path style="fill:#030303; stroke:none;" d="M188 94C187.041 117.871 188 142.061 188 166C188 175.365 189.388 188.023 181.482 194.871C174.896 200.576 166.123 200 158 200L113 200C106.945 200 90.9221 196.969 90.1991 206.051C89.5287 214.472 103.562 222.786 108.706 228.154C121.782 241.798 135.502 254.808 148.566 268.444C154.776 274.927 163.848 281.025 168 289C174.558 288.766 181.524 304.833 189 306.833C197.73 309.17 209.936 307 219 307C239.509 307 263.375 310.164 283 305L285 300L285 299L187 199C203.934 199 224.322 196.119 238 187C241.965 184.357 252.248 175.312 255 176C269.979 155.57 285.416 142.085 291.22 116.09C292.313 111.192 296.332 101.292 293.847 96.6805C290.258 90.0185 274.387 93 268 93C242.276 93 213.293 89.3044 188 94z"/>
<path style="fill:#929292; stroke:none;" d="M291 93L292 94L291 93M383.667 93.3333L384.333 93.6667L383.667 93.3333z"/>
<path style="fill:#b9b7b8; stroke:none;" d="M13.6667 94.3333L14.3333 94.6667L13.6667 94.3333z"/>
<path style="fill:#616161; stroke:none;" d="M384 94L385 95L384 94z"/>
<path style="fill:#b9b7b8; stroke:none;" d="M385 94L386 95L385 94M46 95L47 96L46 95M13 96L12 99L13 99L13 96z"/>
<path style="fill:#616161; stroke:none;" d="M14 96L15 97L14 96M35 96L36 97L35 96z"/>
<path style="fill:#929292; stroke:none;" d="M36 96L37 97L36 96z"/>
<path style="fill:#616161; stroke:none;" d="M187 96L187 100L188 100L187 96M293.667 96.3333L294.333 96.6667L293.667 96.3333M363.667 96.3333L364.333 96.6667L363.667 96.3333M385 96L386 97L385 96z"/>
<path style="fill:#b9b7b8; stroke:none;" d="M389 96L390 97L389 96z"/>
<path style="fill:#616161; stroke:none;" d="M13.3333 97.6667L13.6667 98.3333L13.3333 97.6667M34.3333 97.6667L34.6667 98.3333L34.3333 97.6667z"/>
<path style="fill:#b9b7b8; stroke:none;" d="M386 97L386 99L388 99L388 97L386 97z"/>
<path style="fill:#616161; stroke:none;" d="M12 99L13 100L12 99M33 99L32 102L33 102L33 99M386.667 99.3333L387.333 99.6667L386.667 99.3333z"/>
<path style="fill:#b9b7b8; stroke:none;" d="M10 100L10 102L12 102L12 100L10 100z"/>
<path style="fill:#929292; stroke:none;" d="M33.3333 100.667L33.6667 101.333L33.3333 100.667z"/>
<path style="fill:#616161; stroke:none;" d="M366 100L366 102L368 102L368 100L366 100z"/>
<path style="fill:#b9b7b8; stroke:none;" d="M388 100L391 103L388 100z"/>
<path style="fill:#616161; stroke:none;" d="M10 102L10 104L12 104L12 102L10 102z"/>
<path style="fill:#b9b7b8; stroke:none;" d="M186 102L183 120C186.49 124.631 184 133.313 184 139C184 157.075 185.645 176.443 181 194L182 194L184 188L187 187L185 184L185 183C189.014 179.492 187 169.06 187 164L187 122C187 115.846 188.395 107.707 186 102z"/>
<path style="fill:#616161; stroke:none;" d="M187 102L187 182L188 182L188 127L187 102M293 102L293 106L295 106L295 102L293 102M388 102L388 104L390 104L390 102L388 102z"/>
<path style="fill:#b9b7b8; stroke:none;" d="M295 103L296 104L295 103M9 104L10 105L9 104z"/>
<path style="fill:#929292; stroke:none;" d="M30 104L30 106L32 104L30 104z"/>
<path style="fill:#616161; stroke:none;" d="M368 104L369 105L368 104z"/>
<path style="fill:#929292; stroke:none;" d="M369 104L368 106L370 106L369 104z"/>
<path style="fill:#b9b7b8; stroke:none;" d="M390 104L392 106L390 104z"/>
<path style="fill:#616161; stroke:none;" d="M9.33333 105.667L9.66667 106.333L9.33333 105.667z"/>
<path style="fill:#b9b7b8; stroke:none;" d="M295 105L288 127L288 135L279.421 147.715L267 166L265 165C262.33 170.119 256.615 175.474 251 177C251 179.835 243.778 183.474 241 185C230.348 190.851 219.387 197 207 197L208 199L189 200L189 201L201 211L201 214L204 213L205 219L207 220L208 220L204 215L204 214C206.609 213.541 207.628 213.345 206 211L231 202L235 197L246 194C246 190.925 252.997 187.316 256 187L265 179L273 167L276 167L291 133L292 133L292 136L293 136L293 128L294 128L294 131L295 131C295.072 121.734 299.873 113.686 295 105z"/>
<path style="fill:#929292; stroke:none;" d="M390 105L391 106L390 105M293 106L293 108L295 108L295 106L293 106z"/>
<path style="fill:#616161; stroke:none;" d="M390 106L391 107L390 106z"/>
<path style="fill:#b9b7b8; stroke:none;" d="M7 107L9 109L9 107L7 107z"/>
<path style="fill:#929292; stroke:none;" d="M29.3333 107.667L29.6667 108.333L29.3333 107.667M370.333 107.667L370.667 108.333L370.333 107.667z"/>
<path style="fill:#b9b7b8; stroke:none;" d="M391 107L391 109L393 109L393 107L391 107z"/>
<path style="fill:#929292; stroke:none;" d="M7 108L8 109L7 108z"/>
<path style="fill:#616161; stroke:none;" d="M7 109L7 111L9 109L7 109M27 109L27 111L29 111L27 109M391 109L391 111L393 111L393 109L391 109z"/>
<path style="fill:#b9b7b8; stroke:none;" d="M6 110L3 115L4 116L6 110z"/>
<path style="fill:#616161; stroke:none;" d="M371.667 110.333L372.333 110.667L371.667 110.333z"/>
<path style="fill:#b9b7b8; stroke:none;" d="M393 110L396 116L397 115L393 110z"/>
<path style="fill:#929292; stroke:none;" d="M27.6667 111.333L28.3333 111.667L27.6667 111.333z"/>
<path style="fill:#f7f7f7; stroke:none;" d="M293 111L294 112L293 111z"/>
<path style="fill:#929292; stroke:none;" d="M371.667 111.333L372.333 111.667L371.667 111.333M6 112L7 113L6 112M393 112L394 113L393 112z"/>
<path style="fill:#616161; stroke:none;" d="M6 113L7 114L6 113M25.6667 113.333L26.3333 113.667L25.6667 113.333M291 113L291 116L293 116L293 113L291 113z"/>
<path style="fill:#f7f7f7; stroke:none;" d="M295 113L296 114L295 113z"/>
<path style="fill:#616161; stroke:none;" d="M373 113L374 117L375 117L373 113M393 113L394 114L393 113z"/>
<path style="fill:#929292; stroke:none;" d="M5.33333 114.667L5.66667 115.333L5.33333 114.667M25 114L27 116L27 114L25 114M373.333 114.667L373.667 115.333L373.333 114.667M394 114L396 117L394 114z"/>
<path style="fill:#616161; stroke:none;" d="M4.66667 116.333L5.33333 116.667L4.66667 116.333z"/>
<path style="fill:#929292; stroke:none;" d="M291.667 116.333L292.333 116.667L291.667 116.333z"/>
<path style="fill:#616161; stroke:none;" d="M394 116L395 117L394 116z"/>
<path style="fill:#b9b7b8; stroke:none;" d="M397 116L398 117L397 116M3 117L4 118L3 117z"/>
<path style="fill:#929292; stroke:none;" d="M24.3333 117.667L24.6667 118.333L24.3333 117.667M374 117L374 119L376 119L376 117L374 117z"/>
<path style="fill:#616161; stroke:none;" d="M395 117L396 118L395 117z"/>
<path style="fill:#b9b7b8; stroke:none;" d="M396 117L399 121L396 117M2 118L4 120L2 118z"/>
<path style="fill:#929292; stroke:none;" d="M2 119L3 120L2 119z"/>
<path style="fill:#f7f7f7; stroke:none;" d="M370 119L371 120L370 119z"/>
<path style="fill:#b9b7b8; stroke:none;" d="M1 120L2 121L1 120z"/>
<path style="fill:#616161; stroke:none;" d="M2 120L2 122L4 122L4 120L2 120M22.6667 120.333L23.3333 120.667L22.6667 120.333M290 120L291 121L290 120M376 120L376 122L378 120L376 120M396 120L396 122L398 122L398 120L396 120z"/>
<path style="fill:#929292; stroke:none;" d="M22.6667 121.333L23.3333 121.667L22.6667 121.333M290 121L291 122L290 121M377 121L378 122L377 121z"/>
<path style="fill:#b9b7b8; stroke:none;" d="M0 122L2 124L2 122L0 122M398 122L398 124L400 122L398 122z"/>
<path style="fill:#f7f7f7; stroke:none;" d="M0 123L1 124L0 123M399 123L400 124L399 123z"/>
<path style="fill:#929292; stroke:none;" d="M0 124L0 126L2 124L0 124z"/>
<path style="fill:#616161; stroke:none;" d="M20 124L19 129L20 129L22 124L20 124M378 124L379 127L380 127L380 124L378 124z"/>
<path style="fill:#929292; stroke:none;" d="M398 124L399 127L400 127L400 124L398 124z"/>
<path style="fill:#616161; stroke:none;" d="M1 125L2 126L1 125z"/>
<path style="fill:#929292; stroke:none;" d="M21 125L22 126L21 125z"/>
<path style="fill:#616161; stroke:none;" d="M288 125L288 127L290 127L290 125L288 125z"/>
<path style="fill:#f7f7f7; stroke:none;" d="M290 125L291 126L290 125z"/>
<path style="fill:#929292; stroke:none;" d="M378.333 125.667L378.667 126.333L378.333 125.667z"/>
<path style="fill:#616161; stroke:none;" d="M398.333 125.667L398.667 126.333L398.333 125.667M0 126L0 130L1 130L0 126z"/>
<path style="fill:#929292; stroke:none;" d="M20.3333 127.667L20.6667 128.333L20.3333 127.667M289 127L290 128L289 127M379 127L380 131L381 131L379 127z"/>
<path style="fill:#616161; stroke:none;" d="M399 127L399 130L400 130L399 127M380 128L381 129L380 128z"/>
<path style="fill:#929292; stroke:none;" d="M19.3333 129.667L19.6667 130.333L19.3333 129.667z"/>
<path style="fill:#616161; stroke:none;" d="M18 130L17 134L18 134L18 130M287 130L288 131L287 130M381 130L383 134L381 130z"/>
<path style="fill:#929292; stroke:none;" d="M287 131L288 132L287 131z"/>
<path style="fill:#f7f7f7; stroke:none;" d="M376 131L377 132L376 131z"/>
<path style="fill:#929292; stroke:none;" d="M18.3333 132.667L18.6667 133.333L18.3333 132.667z"/>
<path style="fill:#f7f7f7; stroke:none;" d="M377 133L378 134L377 133z"/>
<path style="fill:#616161; stroke:none;" d="M285 134L285 136L287 134L285 134z"/>
<path style="fill:#f7f7f7; stroke:none;" d="M287 134L288 135L287 134z"/>
<path style="fill:#929292; stroke:none;" d="M382.333 134.667L382.667 135.333L382.333 134.667M286 135L287 136L286 135z"/>
<path style="fill:#616161; stroke:none;" d="M15 137L15 139L17 139L17 137L15 137M283 137L283 139L285 139L285 137L283 137z"/>
<path style="fill:#f7f7f7; stroke:none;" d="M382 137L383 138L382 137z"/>
<path style="fill:#616161; stroke:none;" d="M383 137L383 139L385 139L385 137L383 137z"/>
<path style="fill:#b9b7b8; stroke:none;" d="M23 138L24 139L23 138z"/>
<path style="fill:#929292; stroke:none;" d="M15.6667 139.333L16.3333 139.667L15.6667 139.333M383.667 139.333L384.333 139.667L383.667 139.333z"/>
<path style="fill:#616161; stroke:none;" d="M282.333 140.667L282.667 141.333L282.333 140.667z"/>
<path style="fill:#f7f7f7; stroke:none;" d="M284 141L285 142L284 141z"/>
<path style="fill:#616161; stroke:none;" d="M13 142L12 149L13 149L15 142L13 142M281 142L280 145L281 142M385.333 142.667L385.667 143.333L385.333 142.667z"/>
<path style="fill:#929292; stroke:none;" d="M14 144L15 145L14 144M281 144L282 145L281 144M385 144L386 145L385 144M280 145L281 146L280 145M13.3333 147.667L13.6667 148.333L13.3333 147.667M278 147L278 149L280 149L280 147L278 147z"/>
<path style="fill:#616161; stroke:none;" d="M386 147L388 150L386 147z"/>
<path style="fill:#929292; stroke:none;" d="M12.3333 149.667L12.6667 150.333L12.3333 149.667z"/>
<path style="fill:#616161; stroke:none;" d="M276.667 150.333L277.333 150.667L276.667 150.333z"/>
<path style="fill:#929292; stroke:none;" d="M386 150L386 152L388 150L386 150M276 151L277 152L276 151M275.333 152.667L275.667 153.333L275.333 152.667z"/>
<path style="fill:#616161; stroke:none;" d="M10 154L10 157L12 157L12 154L10 154M273 154L273 156L275 156L275 154L273 154M388 154L388 157L390 157L390 154L388 154z"/>
<path style="fill:#f7f7f7; stroke:none;" d="M278 156L280 158L278 156z"/>
<path style="fill:#929292; stroke:none;" d="M10 157L12 159L12 157L10 157z"/>
<path style="fill:#f7f7f7; stroke:none;" d="M15 157L16 158L15 157z"/>
<path style="fill:#929292; stroke:none;" d="M271.333 157.667L271.667 158.333L271.333 157.667z"/>
<path style="fill:#f7f7f7; stroke:none;" d="M273 157L274 158L273 157M384 157L385 158L384 157z"/>
<path style="fill:#929292; stroke:none;" d="M388 157L388 159L390 159L390 157L388 157M270 159L271 160L270 159z"/>
<path style="fill:#616161; stroke:none;" d="M268 160L268 162L270 162L270 160L268 160M9 162L9 165L10 165L9 162M267.333 162.667L267.667 163.333L267.333 162.667M390 162L390 165L391 165L390 162M265.667 164.333L266.333 164.667L265.667 164.333z"/>
<path style="fill:#929292; stroke:none;" d="M9.33333 165.667L9.66667 166.333L9.33333 165.667M266 165L267 166L266 165M390.333 165.667L390.667 166.333L390.333 165.667z"/>
<path style="fill:#616161; stroke:none;" d="M262.333 167.667L262.667 168.333L262.333 167.667z"/>
<path style="fill:#929292; stroke:none;" d="M263.333 167.667L263.667 168.333L263.333 167.667z"/>
<path style="fill:#616161; stroke:none;" d="M261 169L262 170L261 169z"/>
<path style="fill:#929292; stroke:none;" d="M260.667 170.333L261.333 170.667L260.667 170.333z"/>
<path style="fill:#616161; stroke:none;" d="M7 171L7 176L9 176L9 171L7 171M258.667 171.333L259.333 171.667L258.667 171.333M257 172L256 174L258 174L257 172M391 172L391 176L393 176L393 172L391 172M255 174L256 175L255 174M253 175L254 176L253 175z"/>
<path style="fill:#929292; stroke:none;" d="M255 175L256 176L255 175M7 176L7 179L9 176L7 176M253.667 176.333L254.333 176.667L253.667 176.333M391 176L391 179L393 179L393 176L391 176z"/>
<path style="fill:#616161; stroke:none;" d="M250 178L251 179L250 178z"/>
<path style="fill:#929292; stroke:none;" d="M251 178L252 179L251 178z"/>
<path style="fill:#616161; stroke:none;" d="M248.667 179.333L249.333 179.667L248.667 179.333M243 182L240 184L240 185L243 182z"/>
<path style="fill:#929292; stroke:none;" d="M244 182L243 184L245 184L244 182z"/>
<path style="fill:#f7f7f7; stroke:none;" d="M10 183L11 184L10 183M185.667 183.333L186.333 183.667L185.667 183.333z"/>
<path style="fill:#616161; stroke:none;" d="M238 185L239 186L238 185z"/>
<path style="fill:#929292; stroke:none;" d="M239.667 185.333L240.333 185.667L239.667 185.333M238 186L239 187L238 186z"/>
<path style="fill:#616161; stroke:none;" d="M6 187L6 211L7 211L6 187z"/>
<path style="fill:#b9b7b8; stroke:none;" d="M181.333 187.667L181.667 188.333L181.333 187.667z"/>
<path style="fill:#616161; stroke:none;" d="M185 187L185 189L187 189L187 187L185 187z"/>
<path style="fill:#929292; stroke:none;" d="M235.333 187.667L235.667 188.333L235.333 187.667z"/>
<path style="fill:#f7f7f7; stroke:none;" d="M184 188L185 189L184 188z"/>
<path style="fill:#616161; stroke:none;" d="M233.667 188.333L234.333 188.667L233.667 188.333z"/>
<path style="fill:#929292; stroke:none;" d="M230 191L233 189L230 191z"/>
<path style="fill:#616161; stroke:none;" d="M393 189L393 210L394 210L393 189z"/>
<path style="fill:#b9b7b8; stroke:none;" d="M180.333 190.667L180.667 191.333L180.333 190.667z"/>
<path style="fill:#616161; stroke:none;" d="M184 190L182 194L184 190M227 192L230 191L227 192z"/>
<path style="fill:#929292; stroke:none;" d="M183 191L184 192L183 191M228 191L229 192L228 191z"/>
<path style="fill:#616161; stroke:none;" d="M223 192L222 194L224 194L223 192z"/>
<path style="fill:#929292; stroke:none;" d="M224.333 192.667L224.667 193.333L224.333 192.667z"/>
<path style="fill:#b9b7b8; stroke:none;" d="M176 194L177 195L176 194M179 194L177 197L179 194z"/>
<path style="fill:#929292; stroke:none;" d="M180 194L181 195L180 194z"/>
<path style="fill:#616161; stroke:none;" d="M181 194L180 196L182 196L181 194M215 195L215 196L219 195L215 195z"/>
<path style="fill:#929292; stroke:none;" d="M219 194L218 196L220 196L219 194z"/>
<path style="fill:#616161; stroke:none;" d="M178.667 196.333L179.333 196.667L178.667 196.333M211.667 196.333L212.333 196.667L211.667 196.333z"/>
<path style="fill:#929292; stroke:none;" d="M213.667 196.333L214.333 196.667L213.667 196.333z"/>
<path style="fill:#b9b7b8; stroke:none;" d="M173 197L173 199L175 199L175 197L173 197z"/>
<path style="fill:#616161; stroke:none;" d="M175 197L175 199L177 199L177 197L175 197M202 197L202 199L205 199L205 197L202 197z"/>
<path style="fill:#929292; stroke:none;" d="M205 197L208 199L205 197z"/>
<path style="fill:#b9b7b8; stroke:none;" d="M93.6667 199.333L94.3333 199.667L93.6667 199.333z"/>
<path style="fill:#929292; stroke:none;" d="M95 199L96 200L95 199z"/>
<path style="fill:#616161; stroke:none;" d="M96 199L96 200L172 200L148 199L96 199M187 199L188 200L187 199z"/>
<path style="fill:#929292; stroke:none;" d="M190 202L195 200C192.655 198.649 185.495 199.47 190 202z"/>
<path style="fill:#f7f7f7; stroke:none;" d="M228 199L229 200L228 199z"/>
<path style="fill:#616161; stroke:none;" d="M92.3333 200.667L92.6667 201.333L92.3333 200.667M90.6667 202.333L91.3333 202.667L90.6667 202.333z"/>
<path style="fill:#929292; stroke:none;" d="M190.667 202.333L191.333 202.667L190.667 202.333z"/>
<path style="fill:#b9b7b8; stroke:none;" d="M89 203L89 206L90 206L89 203z"/>
<path style="fill:#616161; stroke:none;" d="M190.667 203.333L191.333 203.667L190.667 203.333z"/>
<path style="fill:#929292; stroke:none;" d="M192 204L193 205L192 204M193.333 205.667L193.667 206.333L193.333 205.667z"/>
<path style="fill:#f7f7f7; stroke:none;" d="M215 205L216 206L215 205z"/>
<path style="fill:#929292; stroke:none;" d="M89.3333 206.667L89.6667 207.333L89.3333 206.667M195 207L196 208L195 207z"/>
<path style="fill:#b9b7b8; stroke:none;" d="M89.3333 208.667L89.6667 209.333L89.3333 208.667z"/>
<path style="fill:#616161; stroke:none;" d="M195 208L196 209L195 208M196 209L197 210L196 209z"/>
<path style="fill:#f7f7f7; stroke:none;" d="M207 209L208 210L207 209z"/>
<path style="fill:#616161; stroke:none;" d="M90 210L90 212L92 210L90 210M197 210L198 211L197 210z"/>
<path style="fill:#929292; stroke:none;" d="M198 210L198 212L200 212L198 210z"/>
<path style="fill:#b9b7b8; stroke:none;" d="M89 211C88.6901 214.094 88.4318 219.484 92 220L91 223L93 227L100 230L108 242L121 251L121 255L124 254L133 267L140 273L160 294C166.225 293.778 176.413 315.587 182 310C184.65 316.776 194.509 317.707 201 317.96C220.513 318.721 240.374 317.133 260 317.961C266.136 318.219 279.548 318.436 281 311L283 307L284 307L284 309L285 309L282 305L281 308L223 308L190 309L176 299C175.487 294.56 170.482 291.236 167.424 288.14C158.897 279.508 147.465 262.975 136 259C135.56 255.194 131.806 251.44 128 251C126.127 245.611 121.388 240.881 116 239C115.287 232.831 99.2302 217.244 93 217L92 213L89 214L89 211z"/>
<path style="fill:#929292; stroke:none;" d="M91 211L92 212L91 211z"/>
<path style="fill:#f7f7f7; stroke:none;" d="M200 211L201 212L200 211M89 214L92 212L89 214z"/>
<path style="fill:#616161; stroke:none;" d="M92.3333 212.667L92.6667 213.333L92.3333 212.667z"/>
<path style="fill:#929292; stroke:none;" d="M200 213L201 214L200 213z"/>
<path style="fill:#f7f7f7; stroke:none;" d="M202.667 213.333L203.333 213.667L202.667 213.333z"/>
<path style="fill:#929292; stroke:none;" d="M93 214L93 216L95 216L93 214z"/>
<path style="fill:#616161; stroke:none;" d="M94 214L95 215L94 214z"/>
<path style="fill:#929292; stroke:none;" d="M202 214L204 216L202 214z"/>
<path style="fill:#b9b7b8; stroke:none;" d="M207 214L208 215L207 214z"/>
<path style="fill:#f7f7f7; stroke:none;" d="M91 215L91 218L92 218L91 215z"/>
<path style="fill:#616161; stroke:none;" d="M202 215L203 216L202 215z"/>
<path style="fill:#b9b7b8; stroke:none;" d="M11 216L12 217L11 216z"/>
<path style="fill:#f7f7f7; stroke:none;" d="M93 216L94 217L93 216z"/>
<path style="fill:#616161; stroke:none;" d="M95.6667 216.333L96.3333 216.667L95.6667 216.333M203 216L204 217L203 216z"/>
<path style="fill:#f7f7f7; stroke:none;" d="M205 216L206 217L205 216z"/>
<path style="fill:#616161; stroke:none;" d="M97.3333 217.667L97.6667 218.333L97.3333 217.667z"/>
<path style="fill:#f7f7f7; stroke:none;" d="M95 218L96 219L95 218z"/>
<path style="fill:#929292; stroke:none;" d="M206 218L207 219L206 218M98 219L99 220L98 219z"/>
<path style="fill:#616161; stroke:none;" d="M99 219L100 220L99 219z"/>
<path style="fill:#929292; stroke:none;" d="M8 220L7 224L8 220z"/>
<path style="fill:#616161; stroke:none;" d="M100 220L100 222L102 222L102 220L100 220z"/>
<path style="fill:#b9b7b8; stroke:none;" d="M208 220L208 222L210 220L208 220z"/>
<path style="fill:#929292; stroke:none;" d="M391 220L391 223L393 223L393 220L391 220z"/>
<path style="fill:#b9b7b8; stroke:none;" d="M89 221L90 222L89 221z"/>
<path style="fill:#929292; stroke:none;" d="M209 221L210 222L209 221z"/>
<path style="fill:#616161; stroke:none;" d="M102 222L104 224L104 222L102 222z"/>
<path style="fill:#929292; stroke:none;" d="M210 222L211 223L210 222z"/>
<path style="fill:#b9b7b8; stroke:none;" d="M211 222L212 225L213 225L211 222z"/>
<path style="fill:#929292; stroke:none;" d="M102 223L103 224L102 223z"/>
<path style="fill:#616161; stroke:none;" d="M210.667 223.333L211.333 223.667L210.667 223.333M391 223L391 227L393 227L393 223L391 223M7 224L7 228L9 228L9 224L7 224M104 224L105 225L104 224M105 225L105 227L107 227L107 225L105 225z"/>
<path style="fill:#b9b7b8; stroke:none;" d="M213 225L213 227L215 227L215 225L213 225z"/>
<path style="fill:#f7f7f7; stroke:none;" d="M390.333 226.667L390.667 227.333L390.333 226.667M10 227L10 230L11 230L10 227z"/>
<path style="fill:#616161; stroke:none;" d="M107 227L109 229L109 227L107 227z"/>
<path style="fill:#b9b7b8; stroke:none;" d="M215 227L215 228L218 229L215 227z"/>
<path style="fill:#929292; stroke:none;" d="M107 228L108 229L107 228z"/>
<path style="fill:#616161; stroke:none;" d="M215 228L218 231L215 228z"/>
<path style="fill:#929292; stroke:none;" d="M216 228L217 229L216 228z"/>
<path style="fill:#616161; stroke:none;" d="M109 229L112 232L109 229z"/>
<path style="fill:#929292; stroke:none;" d="M217 229L218 230L217 229M109 230L110 231L109 230z"/>
<path style="fill:#b9b7b8; stroke:none;" d="M218 230L220 232L220 230L218 230z"/>
<path style="fill:#929292; stroke:none;" d="M218 231L219 232L218 231M9.33333 232.667L9.66667 233.333L9.33333 232.667z"/>
<path style="fill:#616161; stroke:none;" d="M112.333 232.667L112.667 233.333L112.333 232.667z"/>
<path style="fill:#b9b7b8; stroke:none;" d="M220 232L224 237L225 237L220 232z"/>
<path style="fill:#929292; stroke:none;" d="M390.333 232.667L390.667 233.333L390.333 232.667z"/>
<path style="fill:#f7f7f7; stroke:none;" d="M10 233L11 234L10 233z"/>
<path style="fill:#929292; stroke:none;" d="M220 233L221 234L220 233z"/>
<path style="fill:#616161; stroke:none;" d="M9 234L9 237L10 237L9 234M113.667 234.333L114.333 234.667L113.667 234.333M221 234L222 235L221 234M390 234L390 237L391 237L390 234M115 235L115 237L117 237L117 235L115 235M223.333 235.667L223.667 236.333L223.333 235.667z"/>
<path style="fill:#f7f7f7; stroke:none;" d="M388.333 235.667L388.667 236.333L388.333 235.667z"/>
<path style="fill:#616161; stroke:none;" d="M117.333 237.667L117.667 238.333L117.333 237.667z"/>
<path style="fill:#b9b7b8; stroke:none;" d="M225 237L225 239L227 239L227 237L225 237z"/>
<path style="fill:#f7f7f7; stroke:none;" d="M10 238L11 239L10 238z"/>
<path style="fill:#929292; stroke:none;" d="M116 238L117 239L116 238M118 239L119 240L118 239z"/>
<path style="fill:#616161; stroke:none;" d="M119 239L120 240L119 239z"/>
<path style="fill:#b9b7b8; stroke:none;" d="M227 239L228 240L227 239z"/>
<path style="fill:#616161; stroke:none;" d="M120 240L120 242L122 242L122 240L120 240z"/>
<path style="fill:#b9b7b8; stroke:none;" d="M228 240L228 242L230 242L230 240L228 240M385.667 240.333L386.333 240.667L385.667 240.333z"/>
<path style="fill:#929292; stroke:none;" d="M388 240L388 242L390 242L390 240L388 240M10.6667 241.333L11.3333 241.667L10.6667 241.333z"/>
<path style="fill:#616161; stroke:none;" d="M10 242L10 245L12 245L12 242L10 242z"/>
<path style="fill:#b9b7b8; stroke:none;" d="M12.6667 242.333L13.3333 242.667L12.6667 242.333z"/>
<path style="fill:#616161; stroke:none;" d="M122 242L122 243L124 245L125 245L122 242z"/>
<path style="fill:#b9b7b8; stroke:none;" d="M230 242L233 245L230 242M386 242L387 248L388 248L388 242L386 242z"/>
<path style="fill:#616161; stroke:none;" d="M388 242L390 245L390 242L388 242z"/>
<path style="fill:#b9b7b8; stroke:none;" d="M14.3333 243.667L14.6667 244.333L14.3333 243.667z"/>
<path style="fill:#929292; stroke:none;" d="M122.667 243.333L123.333 243.667L122.667 243.333z"/>
<path style="fill:#616161; stroke:none;" d="M230 243L231 244L230 243z"/>
<path style="fill:#b9b7b8; stroke:none;" d="M12 244L16 250L16 249L16 246L13 247L12 244z"/>
<path style="fill:#929292; stroke:none;" d="M231 244L232 245L231 244z"/>
<path style="fill:#616161; stroke:none;" d="M125 245L125 247L127 247L127 245L125 245z"/>
<path style="fill:#b9b7b8; stroke:none;" d="M233 245L233 247L235 247L235 245L233 245M384 246L385 247L384 246z"/>
<path style="fill:#616161; stroke:none;" d="M127 247L128 248L127 247z"/>
<path style="fill:#b9b7b8; stroke:none;" d="M235 247L240 252L235 247z"/>
<path style="fill:#929292; stroke:none;" d="M386 247L386 249L388 249L386 247M12 248L13 252L14 252L12 248M127 248L128 249L127 248z"/>
<path style="fill:#616161; stroke:none;" d="M235 248L236 249L235 248M128.667 249.333L129.333 249.667L128.667 249.333M236 249L237 250L236 249z"/>
<path style="fill:#b9b7b8; stroke:none;" d="M385 249C384.135 252.662 381.763 256.287 385 259L385 249z"/>
<path style="fill:#616161; stroke:none;" d="M386 249L386 251L388 251L388 249L386 249M12.3333 250.667L12.6667 251.333L12.3333 250.667z"/>
<path style="fill:#929292; stroke:none;" d="M128 250L129 251L128 250z"/>
<path style="fill:#616161; stroke:none;" d="M130 250L130 252L132 252L132 250L130 250M237 250L238 251L237 250z"/>
<path style="fill:#929292; stroke:none;" d="M238 251L239 252L238 251z"/>
<path style="fill:#616161; stroke:none;" d="M13 252L15 257L13 252z"/>
<path style="fill:#b9b7b8; stroke:none;" d="M14 252L15 259L18 258L14 252z"/>
<path style="fill:#616161; stroke:none;" d="M132 252L133 253L132 252z"/>
<path style="fill:#b9b7b8; stroke:none;" d="M240 252L243 255L240 252z"/>
<path style="fill:#929292; stroke:none;" d="M132 253L133 254L132 253M240 253L241 254L240 253z"/>
<path style="fill:#b9b7b8; stroke:none;" d="M243 253L244 254L243 253z"/>
<path style="fill:#929292; stroke:none;" d="M14 254L15 255L14 254z"/>
<path style="fill:#616161; stroke:none;" d="M133.667 254.333L134.333 254.667L133.667 254.333M241 254L242 255L241 254z"/>
<path style="fill:#929292; stroke:none;" d="M385 254L386 255L385 254z"/>
<path style="fill:#616161; stroke:none;" d="M135 255L135 257L137 257L137 255L135 255M243.333 255.667L243.667 256.333L243.333 255.667z"/>
<path style="fill:#b9b7b8; stroke:none;" d="M244.333 255.667L244.667 256.333L244.333 255.667z"/>
<path style="fill:#616161; stroke:none;" d="M385.333 255.667L385.667 256.333L385.333 255.667M137.333 257.667L137.667 258.333L137.333 257.667z"/>
<path style="fill:#b9b7b8; stroke:none;" d="M245 257L245 259L247 259L247 257L245 257z"/>
<path style="fill:#929292; stroke:none;" d="M136 258L137 259L136 258M15.6667 259.333L16.3333 259.667L15.6667 259.333M138 259L139 260L138 259z"/>
<path style="fill:#616161; stroke:none;" d="M139 259L140 260L139 259z"/>
<path style="fill:#b9b7b8; stroke:none;" d="M247 259L248 260L247 259M382.333 259.667L382.667 260.333L382.333 259.667z"/>
<path style="fill:#929292; stroke:none;" d="M383.667 259.333L384.333 259.667L383.667 259.333z"/>
<path style="fill:#616161; stroke:none;" d="M15 260L15 262L17 262L17 260L15 260z"/>
<path style="fill:#b9b7b8; stroke:none;" d="M17 260L18 261L17 260z"/>
<path style="fill:#616161; stroke:none;" d="M140 260L140 262L142 262L142 260L140 260z"/>
<path style="fill:#b9b7b8; stroke:none;" d="M248 260L248 262L250 260L248 260z"/>
<path style="fill:#616161; stroke:none;" d="M383 260L383 262L385 262L385 260L383 260z"/>
<path style="fill:#929292; stroke:none;" d="M249 261L250 262L249 261z"/>
<path style="fill:#b9b7b8; stroke:none;" d="M17 262L20 264L17 262z"/>
<path style="fill:#f7f7f7; stroke:none;" d="M131 262L132 263L131 262z"/>
<path style="fill:#616161; stroke:none;" d="M142 262L142 263L144 265L145 265L142 262z"/>
<path style="fill:#b9b7b8; stroke:none;" d="M250 262L253 265L250 262M381 262L380 266L383 262L381 262M128 263L129 264L128 263z"/>
<path style="fill:#929292; stroke:none;" d="M143 263L144 264L143 263z"/>
<path style="fill:#616161; stroke:none;" d="M250 263L251 264L250 263z"/>
<path style="fill:#929292; stroke:none;" d="M17 264L19 266L17 264M251 264L252 265L251 264M382 264L383 265L382 264z"/>
<path style="fill:#616161; stroke:none;" d="M17 265L19 272L20 272L17 265M145 265L145 267L147 267L147 265L145 265z"/>
<path style="fill:#929292; stroke:none;" d="M253.333 265.667L253.667 266.333L253.333 265.667z"/>
<path style="fill:#b9b7b8; stroke:none;" d="M254.333 265.667L254.667 266.333L254.333 265.667z"/>
<path style="fill:#616161; stroke:none;" d="M381 265L381 268L383 265L381 265z"/>
<path style="fill:#b9b7b8; stroke:none;" d="M19 267L23 273L19 267z"/>
<path style="fill:#616161; stroke:none;" d="M147 267L148 268L147 267z"/>
<path style="fill:#b9b7b8; stroke:none;" d="M255 267L255 268L258 269L255 267M379 267L377 269L377 270L381 267L379 267z"/>
<path style="fill:#929292; stroke:none;" d="M147 268L148 269L147 268z"/>
<path style="fill:#616161; stroke:none;" d="M255 268L258 271L255 268z"/>
<path style="fill:#929292; stroke:none;" d="M256 268L257 269L256 268z"/>
<path style="fill:#616161; stroke:none;" d="M0 269L1 274L2 274L0 269z"/>
<path style="fill:#929292; stroke:none;" d="M19 269L20 270L19 269z"/>
<path style="fill:#616161; stroke:none;" d="M148.667 269.333L149.333 269.667L148.667 269.333z"/>
<path style="fill:#929292; stroke:none;" d="M257 269L258 270L257 269M380 269L378 274L379 274L380 269z"/>
<path style="fill:#616161; stroke:none;" d="M399 269L398 274L399 274L399 269M150 270L150 272L152 272L152 270L150 270z"/>
<path style="fill:#b9b7b8; stroke:none;" d="M258 270L260 272L260 270L258 270z"/>
<path style="fill:#616161; stroke:none;" d="M380 270L381 271L380 270z"/>
<path style="fill:#929292; stroke:none;" d="M20 271L22 274L20 271M258 271L259 272L258 271z"/>
<path style="fill:#b9b7b8; stroke:none;" d="M377.667 271.333L378.333 271.667L377.667 271.333z"/>
<path style="fill:#616161; stroke:none;" d="M152.333 272.667L152.667 273.333L152.333 272.667z"/>
<path style="fill:#b9b7b8; stroke:none;" d="M260 272L264 275L264 274L260 272z"/>
<path style="fill:#616161; stroke:none;" d="M379 272L378 275L379 272z"/>
<path style="fill:#929292; stroke:none;" d="M0 273L0 275L2 275L0 273z"/>
<path style="fill:#616161; stroke:none;" d="M20 273L20 275L22 275L20 273z"/>
<path style="fill:#929292; stroke:none;" d="M260 273L261 274L260 273M399 273L398 275L399 273z"/>
<path style="fill:#616161; stroke:none;" d="M153.667 274.333L154.333 274.667L153.667 274.333M261 274L262 275L261 274z"/>
<path style="fill:#b9b7b8; stroke:none;" d="M399 274C392.445 289.005 386.194 308.559 374 320L375 322L345.413 354.816L327 372L305 383L306 385L273 398L273 400L295.715 399.501L336 375L336 374L334 374L334 373L359 354L358 351C362.794 349.968 365.33 344.585 366 340L373 337L373 332L391 310C390.407 306.444 395.601 294.4 398 295L397 292C400.886 288.723 400.858 278.429 399 274M0 275C0 279.996 -1.87638 290.281 4 292L2 295L5 296C4.64574 299.593 7.24418 306.468 11 307L10 312L11 312L11 310L12 310C12.9536 316.371 19.3203 326.981 25 330L25 335L33 341L32 343L41 350C41.52 354.611 45.5583 358.24 50 359L54 366L57 365C61.4582 377.654 78.2721 381.935 87 391L88 391L89 388L90 388L90 392L105 398C108.804 402.354 121.439 400 127 400L127 398C114.443 396.965 103.66 388.389 92.8696 382.724C61.5558 366.282 35.2465 338.137 17.2284 308.015C11.6044 298.612 3.4249 285.934 2 275L0 275M22 275L22 277L24 277L24 275L22 275z"/>
<path style="fill:#616161; stroke:none;" d="M155 275L157 279L158 279L155 275M263 275L264 276L263 275z"/>
<path style="fill:#929292; stroke:none;" d="M264 275L263 277L264 275z"/>
<path style="fill:#b9b7b8; stroke:none;" d="M376 275L376 277L378 277L378 275L376 275M264 276L265 277L264 276z"/>
<path style="fill:#616161; stroke:none;" d="M2 277L2 279L4 279L4 277L2 277z"/>
<path style="fill:#929292; stroke:none;" d="M22 277L24 279L24 277L22 277M156.333 277.667L156.667 278.333L156.333 277.667M265 277L266 278L265 277z"/>
<path style="fill:#b9b7b8; stroke:none;" d="M266 277L265 279L267 279L266 277z"/>
<path style="fill:#616161; stroke:none;" d="M376 277L376 279L378 279L376 277z"/>
<path style="fill:#929292; stroke:none;" d="M377 277L378 278L377 277z"/>
<path style="fill:#616161; stroke:none;" d="M396 277L396 279L398 279L398 277L396 277M22 278L23 279L22 278z"/>
<path style="fill:#929292; stroke:none;" d="M2.66667 279.333L3.33333 279.667L2.66667 279.333M158 279L159 280L158 279z"/>
<path style="fill:#616161; stroke:none;" d="M159 279L160 280L159 279z"/>
<path style="fill:#b9b7b8; stroke:none;" d="M267 279L268 280L267 279M374 279L374 281L376 279L374 279z"/>
<path style="fill:#929292; stroke:none;" d="M24.3333 280.667L24.6667 281.333L24.3333 280.667z"/>
<path style="fill:#616161; stroke:none;" d="M160 280L160 282L162 282L162 280L160 280z"/>
<path style="fill:#b9b7b8; stroke:none;" d="M268 280L270 282L270 280L268 280z"/>
<path style="fill:#929292; stroke:none;" d="M375 280L374 282L376 282L375 280z"/>
<path style="fill:#616161; stroke:none;" d="M395 280L394 283L395 280z"/>
<path style="fill:#929292; stroke:none;" d="M268 281L269 282L268 281M4 282L5 285L6 285L4 282z"/>
<path style="fill:#616161; stroke:none;" d="M5 282L6 283L5 282M162 282L163 283L162 282z"/>
<path style="fill:#b9b7b8; stroke:none;" d="M270 282L273 285L270 282M373 282L374 283L373 282z"/>
<path style="fill:#616161; stroke:none;" d="M374 282L374 285L375 285L374 282z"/>
<path style="fill:#929292; stroke:none;" d="M395 282L396 283L395 282M25 283L25 285L27 285L25 283z"/>
<path style="fill:#b9b7b8; stroke:none;" d="M26 283L27 284L26 283M28.3333 283.667L28.6667 284.333L28.3333 283.667z"/>
<path style="fill:#929292; stroke:none;" d="M163.333 283.667L163.667 284.333L163.333 283.667z"/>
<path style="fill:#616161; stroke:none;" d="M164.333 283.667L164.667 284.333L164.333 283.667z"/>
<path style="fill:#929292; stroke:none;" d="M373.333 283.667L373.667 284.333L373.333 283.667M394.333 283.667L394.667 284.333L394.333 283.667z"/>
<path style="fill:#f7f7f7; stroke:none;" d="M396 283L397 284L396 283M399 283L400 284L399 283z"/>
<path style="fill:#929292; stroke:none;" d="M271 284L272 285L271 284z"/>
<path style="fill:#f7f7f7; stroke:none;" d="M0 285L1 286L0 285z"/>
<path style="fill:#616161; stroke:none;" d="M6 285L7 286L6 285M26 285L27 286L26 285M165 285L165 287L167 287L167 285L165 285z"/>
<path style="fill:#929292; stroke:none;" d="M273 285L273 287L275 287L273 285z"/>
<path style="fill:#b9b7b8; stroke:none;" d="M274 285L275 286L274 285M371 285L371 287L373 287L373 285L371 285z"/>
<path style="fill:#616161; stroke:none;" d="M393 285L394 286L393 285z"/>
<path style="fill:#f7f7f7; stroke:none;" d="M399 285L400 286L399 285M1 286L2 287L1 286z"/>
<path style="fill:#929292; stroke:none;" d="M6 286L7 287L6 286z"/>
<path style="fill:#b9b7b8; stroke:none;" d="M27 286L27 287L29 289L30 289L27 286z"/>
<path style="fill:#929292; stroke:none;" d="M393 286L394 287L393 286M27.6667 287.333L28.3333 287.667L27.6667 287.333z"/>
<path style="fill:#616161; stroke:none;" d="M167 287L168 288L167 287z"/>
<path style="fill:#b9b7b8; stroke:none;" d="M275 287L275 288L277 290L278 290L275 287z"/>
<path style="fill:#929292; stroke:none;" d="M371.667 287.333L372.333 287.667L371.667 287.333z"/>
<path style="fill:#f7f7f7; stroke:none;" d="M399 287L397 292L398 295C393.761 295.621 390.13 305.952 391 310L373 332L373 337L366 340C366 344.455 360.067 351.517 358 351L359 354L334 373L334 374L336 374L336 375L307.91 392.897L297 400L400 400L400 321L399 287z"/>
<path style="fill:#616161; stroke:none;" d="M27.6667 288.333L28.3333 288.667L27.6667 288.333z"/>
<path style="fill:#929292; stroke:none;" d="M167 288L168 289L167 288z"/>
<path style="fill:#616161; stroke:none;" d="M169 288L168 290L170 290L169 288M275 288L276 289L275 288z"/>
<path style="fill:#929292; stroke:none;" d="M276.333 288.667L276.667 289.333L276.333 288.667z"/>
<path style="fill:#616161; stroke:none;" d="M371.667 288.333L372.333 288.667L371.667 288.333M391 288L391 290L393 290L393 288L391 288z"/>
<path style="fill:#f7f7f7; stroke:none;" d="M0 289L0 400L78 400C84.2865 400 100.75 402.864 105 398L90 392L90 388L89 388L88 391L87 391L57 365L54 366L50 359C46.8051 359.639 40.5083 351.967 41 350L32 343L33 341L25 335L25 330C19.6998 325.745 13.7395 316.613 12 310L11 310L11 312L10 312L11 307L2 295L4 292L0 289z"/>
<path style="fill:#616161; stroke:none;" d="M7.66667 289.333L8.33333 289.667L7.66667 289.333z"/>
<path style="fill:#b9b7b8; stroke:none;" d="M31 289L32 290L31 289M370 289L371 290L370 289z"/>
<path style="fill:#929292; stroke:none;" d="M7.66667 290.333L8.33333 290.667L7.66667 290.333M29.3333 290.667L29.6667 291.333L29.3333 290.667z"/>
<path style="fill:#616161; stroke:none;" d="M170 290L170 292L172 292L172 290L170 290z"/>
<path style="fill:#b9b7b8; stroke:none;" d="M278 290L278 292L280 292L280 290L278 290M368 290L369 291L368 290z"/>
<path style="fill:#929292; stroke:none;" d="M370.333 290.667L370.667 291.333L370.333 290.667M391.667 290.333L392.333 290.667L391.667 290.333z"/>
<path style="fill:#616161; stroke:none;" d="M9 292L10 293L9 292z"/>
<path style="fill:#b9b7b8; stroke:none;" d="M30 292L30 294L32 294L30 292z"/>
<path style="fill:#616161; stroke:none;" d="M172 292L173 293L172 292z"/>
<path style="fill:#b9b7b8; stroke:none;" d="M280.667 292.333L281.333 292.667L280.667 292.333M368 292L368 294L370 294L370 292L368 292z"/>
<path style="fill:#616161; stroke:none;" d="M390 292L391 293L390 292z"/>
<path style="fill:#929292; stroke:none;" d="M9 293L10 294L9 293M172 293L173 294L172 293M280.667 293.333L281.333 293.667L280.667 293.333M390 293L391 294L390 293M30.6667 294.333L31.3333 294.667L30.6667 294.333z"/>
<path style="fill:#616161; stroke:none;" d="M173.667 294.333L174.333 294.667L173.667 294.333M281 294L282 295L281 294z"/>
<path style="fill:#b9b7b8; stroke:none;" d="M282 294L283 295L282 294z"/>
<path style="fill:#616161; stroke:none;" d="M368.667 294.333L369.333 294.667L368.667 294.333M10 295L10 297L12 297L12 295L10 295z"/>
<path style="fill:#b9b7b8; stroke:none;" d="M32 295L37 302L34 295L32 295z"/>
<path style="fill:#616161; stroke:none;" d="M175 295L175 297L177 297L175 295z"/>
<path style="fill:#b9b7b8; stroke:none;" d="M283 295L283 297L285 297L285 295L283 295M365 295L365 298L368 295L365 295z"/>
<path style="fill:#616161; stroke:none;" d="M388 295L388 297L390 297L390 295L388 295M32.3333 297.667L32.6667 298.333L32.3333 297.667M177.333 297.667L177.667 298.333L177.333 297.667M283 297L283 299L285 299L285 297L283 297z"/>
<path style="fill:#b9b7b8; stroke:none;" d="M363 297L364 298L363 297z"/>
<path style="fill:#616161; stroke:none;" d="M366 297L366 299L368 299L368 297L366 297z"/>
<path style="fill:#929292; stroke:none;" d="M176 298L177 299L176 298z"/>
<path style="fill:#616161; stroke:none;" d="M12 299L13 300L12 299M33 299L34 300L33 299z"/>
<path style="fill:#929292; stroke:none;" d="M178 299L179 300L178 299z"/>
<path style="fill:#616161; stroke:none;" d="M179 299L180 300L179 299z"/>
<path style="fill:#b9b7b8; stroke:none;" d="M363 299L360 304L363 305L363 299z"/>
<path style="fill:#929292; stroke:none;" d="M365 299L366 300L365 299z"/>
<path style="fill:#616161; stroke:none;" d="M386.667 299.333L387.333 299.667L386.667 299.333M13 300L15 303L13 300M34 300L35 301L34 300z"/>
<path style="fill:#f7f7f7; stroke:none;" d="M169 300L170 301L169 300z"/>
<path style="fill:#616161; stroke:none;" d="M180 300L180 302L182 302L182 300L180 300M283 300L283 302L285 302L285 300L283 300z"/>
<path style="fill:#929292; stroke:none;" d="M13 302L14 303L13 302z"/>
<path style="fill:#616161; stroke:none;" d="M35 302L36 303L35 302z"/>
<path style="fill:#929292; stroke:none;" d="M36 302L37 303L36 302z"/>
<path style="fill:#616161; stroke:none;" d="M182 302L182 303L184 305L185 305L182 302z"/>
<path style="fill:#929292; stroke:none;" d="M283.667 302.333L284.333 302.667L283.667 302.333z"/>
<path style="fill:#616161; stroke:none;" d="M363.667 302.333L364.333 302.667L363.667 302.333M385 302L386 303L385 302z"/>
<path style="fill:#f7f7f7; stroke:none;" d="M391 302L392 303L391 302z"/>
<path style="fill:#b9b7b8; stroke:none;" d="M37 303L37 305L39 305L37 303z"/>
<path style="fill:#929292; stroke:none;" d="M183.333 303.667L183.667 304.333L183.333 303.667z"/>
<path style="fill:#b9b7b8; stroke:none;" d="M283 303L283 305L285 305L285 303L283 303z"/>
<path style="fill:#616161; stroke:none;" d="M384.333 303.667L384.667 304.333L384.333 303.667M15 304L16 305L15 304z"/>
<path style="fill:#b9b7b8; stroke:none;" d="M358 304L359 305L358 304z"/>
<path style="fill:#929292; stroke:none;" d="M15 305L17 307L17 305L15 305z"/>
<path style="fill:#616161; stroke:none;" d="M37 305L39 307L39 305L37 305M185 305L185 306L188 307L185 305M279 307L282 305L279 307z"/>
<path style="fill:#b9b7b8; stroke:none;" d="M287 305L288 306L287 305z"/>
<path style="fill:#616161; stroke:none;" d="M361 305L360 309L361 309L363 305L361 305z"/>
<path style="fill:#929292; stroke:none;" d="M383 305L383 307L385 305L383 305z"/>
<path style="fill:#b9b7b8; stroke:none;" d="M39 306L43 312L44 311L39 306z"/>
<path style="fill:#929292; stroke:none;" d="M185.667 306.333L186.333 306.667L185.667 306.333M281 306L282 307L281 306z"/>
<path style="fill:#b9b7b8; stroke:none;" d="M359 306L356 312L361 306L359 306z"/>
<path style="fill:#616161; stroke:none;" d="M17 307L19 312L20 312L17 307z"/>
<path style="fill:#929292; stroke:none;" d="M39 307L40 310L41 310L39 307M188 307L189 308L188 307M190 309L221 308L277 308C271.049 305.503 262.42 307 256 307L211 307C205.627 307 193.702 304.764 190 309z"/>
<path style="fill:#f7f7f7; stroke:none;" d="M280 307L281 308L280 307z"/>
<path style="fill:#616161; stroke:none;" d="M382 307L381 310L382 310L382 307M39 308L40 309L39 308z"/>
<path style="fill:#929292; stroke:none;" d="M359.333 308.667L359.667 309.333L359.333 308.667M382 308L383 309L382 308M18 310L19 311L18 310z"/>
<path style="fill:#616161; stroke:none;" d="M41.3333 310.667L41.6667 311.333L41.3333 310.667z"/>
<path style="fill:#b9b7b8; stroke:none;" d="M285 310L286 311L285 310z"/>
<path style="fill:#616161; stroke:none;" d="M358 310L359 311L358 310M380.333 310.667L380.667 311.333L380.333 310.667z"/>
<path style="fill:#f7f7f7; stroke:none;" d="M357 311L358 312L357 311z"/>
<path style="fill:#b9b7b8; stroke:none;" d="M389 311L390 312L389 311z"/>
<path style="fill:#616161; stroke:none;" d="M20 312L20 314L22 314L20 312M42 312L42 314L44 314L42 312z"/>
<path style="fill:#929292; stroke:none;" d="M43 312L44 313L43 312M356 312L357 313L356 312z"/>
<path style="fill:#616161; stroke:none;" d="M357 312L356 314L358 314L357 312M379 312L378 314L380 314L379 312z"/>
<path style="fill:#b9b7b8; stroke:none;" d="M44.3333 313.667L44.6667 314.333L44.3333 313.667M354 313L350 318L350 319L356 313L354 313z"/>
<path style="fill:#929292; stroke:none;" d="M21 314L22 315L21 314M355 314L356 315L355 314M378 314L379 315L378 314z"/>
<path style="fill:#f7f7f7; stroke:none;" d="M16 315L17 316L16 315z"/>
<path style="fill:#616161; stroke:none;" d="M22 315L22 317L24 317L24 315L22 315z"/>
<path style="fill:#b9b7b8; stroke:none;" d="M45 315L45 317L47 317L47 315L45 315z"/>
<path style="fill:#616161; stroke:none;" d="M354.333 315.667L354.667 316.333L354.333 315.667M376 315L376 317L378 317L378 315L376 315M45.6667 317.333L46.3333 317.667L45.6667 317.333z"/>
<path style="fill:#b9b7b8; stroke:none;" d="M48 317L50 319L48 317z"/>
<path style="fill:#616161; stroke:none;" d="M353 317L354 318L353 317z"/>
<path style="fill:#929292; stroke:none;" d="M24.3333 318.667L24.6667 319.333L24.3333 318.667z"/>
<path style="fill:#616161; stroke:none;" d="M47 318L47 320L49 320L47 318z"/>
<path style="fill:#929292; stroke:none;" d="M48 318L49 319L48 318z"/>
<path style="fill:#616161; stroke:none;" d="M351 318L351 320L353 320L353 318L351 318M374.333 318.667L374.667 319.333L374.333 318.667z"/>
<path style="fill:#929292; stroke:none;" d="M375.333 318.667L375.667 319.333L375.333 318.667z"/>
<path style="fill:#616161; stroke:none;" d="M25 320L25 322L27 322L27 320L25 320z"/>
<path style="fill:#929292; stroke:none;" d="M49.3333 320.667L49.6667 321.333L49.3333 320.667M350.333 320.667L350.667 321.333L350.333 320.667z"/>
<path style="fill:#616161; stroke:none;" d="M373.333 320.667L373.667 321.333L373.333 320.667z"/>
<path style="fill:#b9b7b8; stroke:none;" d="M349 321L348 323L350 323L349 321z"/>
<path style="fill:#929292; stroke:none;" d="M374 321L375 322L374 321z"/>
<path style="fill:#b9b7b8; stroke:none;" d="M50 322L50 323L56 328L50 322z"/>
<path style="fill:#929292; stroke:none;" d="M27 323L29 325L29 323L27 323z"/>
<path style="fill:#616161; stroke:none;" d="M50.6667 323.333L51.3333 323.667L50.6667 323.333z"/>
<path style="fill:#b9b7b8; stroke:none;" d="M345 323L346 324L345 323M347 323L346 325L348 325L347 323z"/>
<path style="fill:#929292; stroke:none;" d="M371.667 323.333L372.333 323.667L371.667 323.333M29.3333 325.667L29.6667 326.333L29.3333 325.667M346 325L345 327L346 325M370.333 325.667L370.667 326.333L370.333 325.667z"/>
<path style="fill:#616161; stroke:none;" d="M53 326L53 328L55 328L53 326M346 326L345 328L347 328L346 326M30.6667 327.333L31.3333 327.667L30.6667 327.333M368.667 327.333L369.333 327.667L368.667 327.333z"/>
<path style="fill:#929292; stroke:none;" d="M30.6667 328.333L31.3333 328.667L30.6667 328.333M55.6667 328.333L56.3333 328.667L55.6667 328.333M343.667 328.333L344.333 328.667L343.667 328.333M368.667 328.333L369.333 328.667L368.667 328.333z"/>
<path style="fill:#616161; stroke:none;" d="M55.6667 329.333L56.3333 329.667L55.6667 329.333M343.667 329.333L344.333 329.667L343.667 329.333z"/>
<path style="fill:#929292; stroke:none;" d="M32 330L33 331L32 330z"/>
<path style="fill:#616161; stroke:none;" d="M33.3333 330.667L33.6667 331.333L33.3333 330.667M57 330L61 335L57 330z"/>
<path style="fill:#929292; stroke:none;" d="M58 330L60 333L58 330M341.333 330.667L341.667 331.333L341.333 330.667z"/>
<path style="fill:#616161; stroke:none;" d="M342.333 330.667L342.667 331.333L342.333 330.667z"/>
<path style="fill:#929292; stroke:none;" d="M366 330L367 331L366 330z"/>
<path style="fill:#b9b7b8; stroke:none;" d="M59 331L60 332L59 331z"/>
<path style="fill:#929292; stroke:none;" d="M34.3333 332.667L34.6667 333.333L34.3333 332.667z"/>
<path style="fill:#b9b7b8; stroke:none;" d="M60 332L60 334L62 334L60 332M339 332L338 334L340 334L339 332z"/>
<path style="fill:#616161; stroke:none;" d="M340 332L340 334L342 332L340 332z"/>
<path style="fill:#929292; stroke:none;" d="M365 332L366 333L365 332M35 334L36 335L35 334z"/>
<path style="fill:#616161; stroke:none;" d="M36 334L37 335L36 334z"/>
<path style="fill:#929292; stroke:none;" d="M61 334L62 335L61 334M338 334L339 335L338 334z"/>
<path style="fill:#616161; stroke:none;" d="M339 334L340 335L339 334M363 334L364 335L363 334z"/>
<path style="fill:#929292; stroke:none;" d="M364 334L365 335L364 334z"/>
<path style="fill:#616161; stroke:none;" d="M37 335L40 338L37 335z"/>
<path style="fill:#929292; stroke:none;" d="M62 335L62 337L64 337L64 335L62 335M336 335L336 337L338 337L338 335L336 335z"/>
<path style="fill:#616161; stroke:none;" d="M361 335L363 337L363 335L361 335z"/>
<path style="fill:#929292; stroke:none;" d="M38 337L39 338L38 337M64 337L65 338L64 337z"/>
<path style="fill:#b9b7b8; stroke:none;" d="M334 337L335 338L334 337z"/>
<path style="fill:#616161; stroke:none;" d="M335 337L336 338L335 337M360 337L361 338L360 337z"/>
<path style="fill:#929292; stroke:none;" d="M361 337L362 338L361 337z"/>
<path style="fill:#616161; stroke:none;" d="M40.3333 338.667L40.6667 339.333L40.3333 338.667z"/>
<path style="fill:#929292; stroke:none;" d="M65 338L65 340L67 340L67 338L65 338z"/>
<path style="fill:#616161; stroke:none;" d="M333 338L333 340L335 340L335 338L333 338M359.333 338.667L359.667 339.333L359.333 338.667M67 340L67 342L69 342L67 340z"/>
<path style="fill:#929292; stroke:none;" d="M68 340L69 341L68 340z"/>
<path style="fill:#616161; stroke:none;" d="M331 340L331 342L333 342L333 340L331 340z"/>
<path style="fill:#929292; stroke:none;" d="M42.6667 342.333L43.3333 342.667L42.6667 342.333z"/>
<path style="fill:#616161; stroke:none;" d="M69 342L70 343L69 342M330 342L331 343L330 342z"/>
<path style="fill:#929292; stroke:none;" d="M356.667 342.333L357.333 342.667L356.667 342.333z"/>
<path style="fill:#f7f7f7; stroke:none;" d="M35 343L36 344L35 343z"/>
<path style="fill:#929292; stroke:none;" d="M44.3333 343.667L44.6667 344.333L44.3333 343.667z"/>
<path style="fill:#616161; stroke:none;" d="M70 343L70 345L72 345L72 343L70 343M328 343L326 347L330 343L328 343M354.333 343.667L354.667 344.333L354.333 343.667z"/>
<path style="fill:#929292; stroke:none;" d="M355.333 343.667L355.667 344.333L355.333 343.667z"/>
<path style="fill:#f7f7f7; stroke:none;" d="M364 343L365 344L364 343z"/>
<path style="fill:#b9b7b8; stroke:none;" d="M327 344L328 345L327 344z"/>
<path style="fill:#929292; stroke:none;" d="M45 345L47 347L47 345L45 345z"/>
<path style="fill:#616161; stroke:none;" d="M72 345L74 347L72 345z"/>
<path style="fill:#b9b7b8; stroke:none;" d="M73 345L74 346L73 345M325.667 345.333L326.333 345.667L325.667 345.333z"/>
<path style="fill:#929292; stroke:none;" d="M353 345L354 346L353 345z"/>
<path style="fill:#616161; stroke:none;" d="M48 346L49 347L48 346z"/>
<path style="fill:#929292; stroke:none;" d="M74 346L75 347L74 346z"/>
<path style="fill:#b9b7b8; stroke:none;" d="M76 346L75 347L79 350L76 346M320 346L321 347L320 346M323 346L321 350L325 347L323 346z"/>
<path style="fill:#929292; stroke:none;" d="M325 346L326 347L325 346z"/>
<path style="fill:#616161; stroke:none;" d="M351 346L352 347L351 346z"/>
<path style="fill:#929292; stroke:none;" d="M47.6667 347.333L48.3333 347.667L47.6667 347.333M351.667 347.333L352.333 347.667L351.667 347.333z"/>
<path style="fill:#616161; stroke:none;" d="M49 348L50 349L49 348M75 348L77 350L77 348L75 348M323.667 348.333L324.333 348.667L323.667 348.333M350 348L351 349L350 348z"/>
<path style="fill:#f7f7f7; stroke:none;" d="M358 348L359 349L358 348z"/>
<path style="fill:#929292; stroke:none;" d="M49 349L50 350L49 349M322 349L323 350L322 349M350 349L351 350L350 349M50 350L50 352L52 352L52 350L50 350z"/>
<path style="fill:#616161; stroke:none;" d="M78 350L82 354L78 350z"/>
<path style="fill:#929292; stroke:none;" d="M79 350L80 351L79 350z"/>
<path style="fill:#b9b7b8; stroke:none;" d="M80 350L80 352L82 352L80 350M319 350L317 353L319 350z"/>
<path style="fill:#929292; stroke:none;" d="M320 350L321 351L320 350z"/>
<path style="fill:#616161; stroke:none;" d="M321 350L320 352L322 352L321 350z"/>
<path style="fill:#929292; stroke:none;" d="M348 350L348 352L350 352L350 350L348 350M52 352L55 355L55 354L52 352z"/>
<path style="fill:#616161; stroke:none;" d="M53 352L53 354L55 354L53 352M318.667 352.333L319.333 352.667L318.667 352.333z"/>
<path style="fill:#929292; stroke:none;" d="M347 352L348 353L347 352M82.6667 353.333L83.3333 353.667L82.6667 353.333z"/>
<path style="fill:#b9b7b8; stroke:none;" d="M84.3333 353.667L84.6667 354.333L84.3333 353.667z"/>
<path style="fill:#929292; stroke:none;" d="M316.667 353.333L317.333 353.667L316.667 353.333z"/>
<path style="fill:#616161; stroke:none;" d="M345.667 353.333L346.333 353.667L345.667 353.333M83 354L84 355L83 354z"/>
<path style="fill:#b9b7b8; stroke:none;" d="M314.667 354.333L315.333 354.667L314.667 354.333z"/>
<path style="fill:#616161; stroke:none;" d="M316 354L317 355L316 354z"/>
<path style="fill:#929292; stroke:none;" d="M345 354L346 355L345 354M55 355L55 357L57 357L57 355L55 355M85 355L85 357L87 357L87 355L85 355M313 355L314 356L313 355z"/>
<path style="fill:#616161; stroke:none;" d="M314 355L313 357L315 357L314 355z"/>
<path style="fill:#929292; stroke:none;" d="M343 355L343 357L345 357L345 355L343 355z"/>
<path style="fill:#616161; stroke:none;" d="M58 357L59 358L58 357M87.6667 357.333L88.3333 357.667L87.6667 357.333z"/>
<path style="fill:#b9b7b8; stroke:none;" d="M89 357L90 358L89 357M92 357L93 358L92 357M310 357L311 358L310 357z"/>
<path style="fill:#616161; stroke:none;" d="M311.667 357.333L312.333 357.667L311.667 357.333M341 357L342 358L341 357M60.3333 358.667L60.6667 359.333L60.3333 358.667z"/>
<path style="fill:#b9b7b8; stroke:none;" d="M90 358L92 360L92 358L90 358M305 358L306 359L305 358z"/>
<path style="fill:#929292; stroke:none;" d="M308 358L308 360L310 360L310 358L308 358z"/>
<path style="fill:#616161; stroke:none;" d="M339.333 358.667L339.667 359.333L339.333 358.667z"/>
<path style="fill:#f7f7f7; stroke:none;" d="M351 358L352 359L351 358z"/>
<path style="fill:#929292; stroke:none;" d="M90 359L91 360L90 359z"/>
<path style="fill:#616161; stroke:none;" d="M62.3333 360.667L62.6667 361.333L62.3333 360.667M92.3333 360.667L92.6667 361.333L92.3333 360.667z"/>
<path style="fill:#b9b7b8; stroke:none;" d="M93 360L93 362L95 362L95 360L93 360M305 360L307 362L307 360L305 360z"/>
<path style="fill:#616161; stroke:none;" d="M307.333 360.667L307.667 361.333L307.333 360.667M336 360L336 362L338 362L338 360L336 360M64 362L65 363L64 362z"/>
<path style="fill:#929292; stroke:none;" d="M95 362L96 363L95 362z"/>
<path style="fill:#b9b7b8; stroke:none;" d="M96 362L97 363L96 362M302.667 362.333L303.333 362.667L302.667 362.333z"/>
<path style="fill:#929292; stroke:none;" d="M304 362L305 363L304 362z"/>
<path style="fill:#616161; stroke:none;" d="M335 362L336 363L335 362M65.6667 363.333L66.3333 363.667L65.6667 363.333M97.3333 363.667L97.6667 364.333L97.3333 363.667z"/>
<path style="fill:#929292; stroke:none;" d="M98.3333 363.667L98.6667 364.333L98.3333 363.667z"/>
<path style="fill:#b9b7b8; stroke:none;" d="M99.3333 363.667L99.6667 364.333L99.3333 363.667M300.333 363.667L300.667 364.333L300.333 363.667z"/>
<path style="fill:#929292; stroke:none;" d="M301.333 363.667L301.667 364.333L301.333 363.667z"/>
<path style="fill:#616161; stroke:none;" d="M302.333 363.667L302.667 364.333L302.333 363.667z"/>
<path style="fill:#929292; stroke:none;" d="M333.333 363.667L333.667 364.333L333.333 363.667M65.6667 364.333L66.3333 364.667L65.6667 364.333M67.6667 365.333L68.3333 365.667L67.6667 365.333z"/>
<path style="fill:#616161; stroke:none;" d="M100 365L100 367L102 367L100 365z"/>
<path style="fill:#929292; stroke:none;" d="M101 365L102 366L101 365M298 365L297 367L298 365z"/>
<path style="fill:#616161; stroke:none;" d="M299 365L298 367L300 367L299 365z"/>
<path style="fill:#929292; stroke:none;" d="M331.667 365.333L332.333 365.667L331.667 365.333z"/>
<path style="fill:#f7f7f7; stroke:none;" d="M343 365L344 366L343 365z"/>
<path style="fill:#616161; stroke:none;" d="M69 366L70 367L69 366z"/>
<path style="fill:#929292; stroke:none;" d="M102.667 366.333L103.333 366.667L102.667 366.333z"/>
<path style="fill:#b9b7b8; stroke:none;" d="M104.333 366.667L104.667 367.333L104.333 366.667M295.667 366.333L296.333 366.667L295.667 366.333z"/>
<path style="fill:#616161; stroke:none;" d="M330 366L331 367L330 366M70 367L70 368L72 370L73 370L70 367M103 367L104 368L103 367z"/>
<path style="fill:#929292; stroke:none;" d="M295 367L296 368L295 367z"/>
<path style="fill:#616161; stroke:none;" d="M296 367L297 368L296 367M327 370L328 370L330 368L327 370z"/>
<path style="fill:#929292; stroke:none;" d="M70.6667 368.333L71.3333 368.667L70.6667 368.333M105 368L106 369L105 368z"/>
<path style="fill:#616161; stroke:none;" d="M106 368L105 370L107 370L106 368z"/>
<path style="fill:#b9b7b8; stroke:none;" d="M107 368L107 370L109 370L109 368L107 368M291 368L291 370L293 370L293 368L291 368z"/>
<path style="fill:#616161; stroke:none;" d="M293 368L294 370L295 370L296 368L293 368z"/>
<path style="fill:#929292; stroke:none;" d="M328.667 368.333L329.333 368.667L328.667 368.333M73.6667 370.333L74.3333 370.667L73.6667 370.333z"/>
<path style="fill:#616161; stroke:none;" d="M109.333 370.667L109.667 371.333L109.333 370.667z"/>
<path style="fill:#b9b7b8; stroke:none;" d="M110 370L119 375L119 374L110 370M284 373L284 374L290 370L284 373z"/>
<path style="fill:#616161; stroke:none;" d="M290.333 370.667L290.667 371.333L290.333 370.667z"/>
<path style="fill:#929292; stroke:none;" d="M325 370L327 372L327 370L325 370z"/>
<path style="fill:#616161; stroke:none;" d="M324 371L325 372L324 371M77 372L80 375L77 372M112 372L115 374L115 373L112 372z"/>
<path style="fill:#b9b7b8; stroke:none;" d="M281 372L282 373L281 372z"/>
<path style="fill:#616161; stroke:none;" d="M287 372L285 373L285 374L287 372M322 372L320 373L320 374L322 372z"/>
<path style="fill:#f7f7f7; stroke:none;" d="M64 373L65 374L64 373z"/>
<path style="fill:#929292; stroke:none;" d="M283 373L284 374L283 373M322 373L323 374L322 373M78 374L79 375L78 374z"/>
<path style="fill:#616161; stroke:none;" d="M115 374L116 375L115 374z"/>
<path style="fill:#929292; stroke:none;" d="M116 374L117 375L116 374z"/>
<path style="fill:#b9b7b8; stroke:none;" d="M282 374L283 375L282 374z"/>
<path style="fill:#616161; stroke:none;" d="M283.667 374.333L284.333 374.667L283.667 374.333z"/>
<path style="fill:#929292; stroke:none;" d="M320.667 374.333L321.333 374.667L320.667 374.333M81.3333 375.667L81.6667 376.333L81.3333 375.667z"/>
<path style="fill:#616161; stroke:none;" d="M82 375L83 376L82 375M119.333 375.667L119.667 376.333L119.333 375.667z"/>
<path style="fill:#929292; stroke:none;" d="M120 375L121 376L120 375z"/>
<path style="fill:#b9b7b8; stroke:none;" d="M121 375L120 377L122 377L121 375M278 375L279 376L278 375z"/>
<path style="fill:#929292; stroke:none;" d="M279 375L278 377L280 377L279 375z"/>
<path style="fill:#616161; stroke:none;" d="M280.333 375.667L280.667 376.333L280.333 375.667M316 375L318 377L318 375L316 375M84 377L85 378L84 377M122.667 377.333L123.333 377.667L122.667 377.333z"/>
<path style="fill:#929292; stroke:none;" d="M124 377L125 378L124 377z"/>
<path style="fill:#b9b7b8; stroke:none;" d="M274 377L275 378L274 377z"/>
<path style="fill:#929292; stroke:none;" d="M275 377L276 378L275 377z"/>
<path style="fill:#616161; stroke:none;" d="M276.667 377.333L277.333 377.667L276.667 377.333M314 377L315 378L314 377z"/>
<path style="fill:#929292; stroke:none;" d="M315 377L316 378L315 377M85 378L87 380L87 378L85 378z"/>
<path style="fill:#616161; stroke:none;" d="M87 378L87 380L89 380L89 378L87 378M127.333 378.667L127.667 379.333L127.333 378.667z"/>
<path style="fill:#b9b7b8; stroke:none;" d="M128 378L128 380L130 380L130 378L128 378M270.333 378.667L270.667 379.333L270.333 378.667z"/>
<path style="fill:#616161; stroke:none;" d="M271 378L273 380L273 378L271 378M311 378L311 380L313 380L313 378L311 378z"/>
<path style="fill:#929292; stroke:none;" d="M271 379L272 380L271 379M89.3333 380.667L89.6667 381.333L89.3333 380.667z"/>
<path style="fill:#616161; stroke:none;" d="M130 380L130 382L132 382L132 380L130 380z"/>
<path style="fill:#929292; stroke:none;" d="M132.333 380.667L132.667 381.333L132.333 380.667z"/>
<path style="fill:#b9b7b8; stroke:none;" d="M133.333 380.667L133.667 381.333L133.333 380.667M266.333 380.667L266.667 381.333L266.333 380.667z"/>
<path style="fill:#929292; stroke:none;" d="M267.333 380.667L267.667 381.333L267.333 380.667z"/>
<path style="fill:#616161; stroke:none;" d="M268 380L268 382L270 382L270 380L268 380z"/>
<path style="fill:#929292; stroke:none;" d="M310.333 380.667L310.667 381.333L310.333 380.667z"/>
<path style="fill:#616161; stroke:none;" d="M92 382L93 383L92 382M135.667 382.333L136.333 382.667L135.667 382.333z"/>
<path style="fill:#929292; stroke:none;" d="M137 382L138 383L137 382z"/>
<path style="fill:#b9b7b8; stroke:none;" d="M138 382L139 383L138 382M261 382L262 383L261 382z"/>
<path style="fill:#929292; stroke:none;" d="M262 382L263 383L262 382z"/>
<path style="fill:#616161; stroke:none;" d="M263.667 382.333L264.333 382.667L263.667 382.333M307 382L308 383L307 382M95 383L95 385L97 385L95 383M140 383L140 385L142 385L142 383L140 383z"/>
<path style="fill:#929292; stroke:none;" d="M142.333 383.667L142.667 384.333L142.333 383.667z"/>
<path style="fill:#b9b7b8; stroke:none;" d="M143.333 383.667L143.667 384.333L143.333 383.667M256 383L255 385L257 385L256 383z"/>
<path style="fill:#929292; stroke:none;" d="M257.333 383.667L257.667 384.333L257.333 383.667z"/>
<path style="fill:#616161; stroke:none;" d="M258 383L258 385L260 385L260 383L258 383M303 383L303 385L305 385L305 383L303 383z"/>
<path style="fill:#f7f7f7; stroke:none;" d="M319 383L320 384L319 383z"/>
<path style="fill:#929292; stroke:none;" d="M305 384L306 385L305 384M97 385L99 387L97 385z"/>
<path style="fill:#616161; stroke:none;" d="M98 385L99 386L98 385M145 385L145 386L150 387L150 386L145 385z"/>
<path style="fill:#929292; stroke:none;" d="M147 385L148 386L147 385z"/>
<path style="fill:#b9b7b8; stroke:none;" d="M148.667 385.333L149.333 385.667L148.667 385.333M250 385L251 386L250 385z"/>
<path style="fill:#929292; stroke:none;" d="M251.667 385.333L252.333 385.667L251.667 385.333z"/>
<path style="fill:#616161; stroke:none;" d="M253.667 385.333L254.333 385.667L253.667 385.333M298 386L298 387L302 386L298 386z"/>
<path style="fill:#929292; stroke:none;" d="M302 385L303 386L302 385z"/>
<path style="fill:#616161; stroke:none;" d="M99 386L99 387L102 387L99 386z"/>
<path style="fill:#929292; stroke:none;" d="M150.667 386.333L151.333 386.667L150.667 386.333z"/>
<path style="fill:#b9b7b8; stroke:none;" d="M152 386L152 387L157 388L152 386M243 386L243 387L243 388L247 387L247 386L243 386z"/>
<path style="fill:#929292; stroke:none;" d="M245 387L245 388L250 387L245 387z"/>
<path style="fill:#616161; stroke:none;" d="M250 386L250 387L253 387L250 386z"/>
<path style="fill:#929292; stroke:none;" d="M301 386L302 387L301 386M100.667 387.333L101.333 387.667L100.667 387.333z"/>
<path style="fill:#616161; stroke:none;" d="M152 387L153 388L152 387z"/>
<path style="fill:#929292; stroke:none;" d="M153.667 387.333L154.333 387.667L153.667 387.333z"/>
<path style="fill:#616161; stroke:none;" d="M247 387L248 388L247 387z"/>
<path style="fill:#929292; stroke:none;" d="M298 387L299 388L298 387M102 388L102 389L105 390L102 388z"/>
<path style="fill:#616161; stroke:none;" d="M104 388L105 389L104 388M155 388L155 389L161 390L155 388z"/>
<path style="fill:#929292; stroke:none;" d="M160 388L162 390L162 388L160 388z"/>
<path style="fill:#b9b7b8; stroke:none;" d="M162 388L162 390L165 390L165 388L162 388M235 390L238 388L235 390z"/>
<path style="fill:#929292; stroke:none;" d="M237 390L240 389L237 390z"/>
<path style="fill:#616161; stroke:none;" d="M238 389L238 390L245 389L238 389M295 388L294 390L295 388z"/>
<path style="fill:#929292; stroke:none;" d="M296.667 388.333L297.333 388.667L296.667 388.333z"/>
<path style="fill:#f7f7f7; stroke:none;" d="M310 388L311 389L310 388z"/>
<path style="fill:#929292; stroke:none;" d="M295 389L296 390L295 389M107 390L107 392L109 392L109 390L107 390z"/>
<path style="fill:#616161; stroke:none;" d="M168 390L172 392L172 391L168 390z"/>
<path style="fill:#929292; stroke:none;" d="M170 390L170 391L175 392L175 391L170 390z"/>
<path style="fill:#b9b7b8; stroke:none;" d="M173.667 390.333L174.333 390.667L173.667 390.333M213 391L213 392L227 391L213 391z"/>
<path style="fill:#929292; stroke:none;" d="M225 391L225 392L229 391L225 391z"/>
<path style="fill:#616161; stroke:none;" d="M228 391L228 392L232 391L228 391M290.333 390.667L290.667 391.333L290.333 390.667z"/>
<path style="fill:#929292; stroke:none;" d="M291 390L291 392L293 392L293 390L291 390z"/>
<path style="fill:#f7f7f7; stroke:none;" d="M308.333 390.667L308.667 391.333L308.333 390.667z"/>
<path style="fill:#616161; stroke:none;" d="M109 391L110 392L109 391z"/>
<path style="fill:#b9b7b8; stroke:none;" d="M175 391L175 392L187 392L175 391z"/>
<path style="fill:#929292; stroke:none;" d="M110 392L113 394L110 392z"/>
<path style="fill:#616161; stroke:none;" d="M179 392L179 393L221 393L208 392.999L179 392z"/>
<path style="fill:#929292; stroke:none;" d="M184 392L184 393L190 393L184 392z"/>
<path style="fill:#b9b7b8; stroke:none;" d="M190 392L190 393L211 393L190 392z"/>
<path style="fill:#929292; stroke:none;" d="M211 392L211 393L216 393L211 392z"/>
<path style="fill:#616161; stroke:none;" d="M287 392L285 393L285 394L287 392z"/>
<path style="fill:#929292; stroke:none;" d="M287 394L290 392L287 394z"/>
<path style="fill:#616161; stroke:none;" d="M113.667 393.333L114.333 393.667L113.667 393.333M115.667 394.333L116.333 394.667L115.667 394.333M283.667 394.333L284.333 394.667L283.667 394.333z"/>
<path style="fill:#929292; stroke:none;" d="M118.333 395.667L118.667 396.333L118.333 395.667z"/>
<path style="fill:#616161; stroke:none;" d="M119.333 395.667L119.667 396.333L119.333 395.667z"/>
<path style="fill:#929292; stroke:none;" d="M280 395L282 397L282 395L280 395z"/>
<path style="fill:#616161; stroke:none;" d="M280 396L281 397L280 396z"/>
<path style="fill:#929292; stroke:none;" d="M122.667 397.333L123.333 397.667L122.667 397.333z"/>
<path style="fill:#616161; stroke:none;" d="M124 397L125 398L124 397M275 397L276 398L275 397z"/>
<path style="fill:#929292; stroke:none;" d="M276.667 397.333L277.333 397.667L276.667 397.333M127.333 398.667L127.667 399.333L127.333 398.667z"/>
<path style="fill:#616161; stroke:none;" d="M128 398L128 400L130 400L130 398L128 398M270 398L270 400L272 400L272 398L270 398z"/>
<path style="fill:#929292; stroke:none;" d="M272.333 398.667L272.667 399.333L272.333 398.667z"/>
</svg>
